<svg xmlns="http://www.w3.org/2000/svg" xmlns:xlink="http://www.w3.org/1999/xlink" width="320" zoomAndPan="magnify" viewBox="0 0 240 239.999995" height="320" preserveAspectRatio="xMidYMid meet" version="1.0"><defs><clipPath id="9ec1fc41e7"><path d="M 11 11 L 228.8125 11 L 228.8125 228.8125 L 11 228.8125 Z M 11 11 " clip-rule="nonzero"/></clipPath></defs><g clip-path="url(#9ec1fc41e7)"><path fill="#22c55e" d="M 120.035156 11 C 97.730469 11 76.472656 17.703125 58.253906 30.28125 L 40.25 12.277344 C 39 11.023438 37.128906 10.65625 35.496094 11.332031 C 33.871094 12.007812 32.804688 13.597656 32.804688 15.359375 L 32.804688 32.804688 L 15.359375 32.804688 C 13.597656 32.804688 12.007812 33.871094 11.332031 35.496094 C 10.65625 37.128906 11.03125 39.003906 12.277344 40.25 L 30.28125 58.253906 C 17.703125 76.472656 11 97.730469 11 120.035156 C 11 180.15625 59.914062 229.070312 120.035156 229.070312 C 180.15625 229.070312 229.070312 180.15625 229.070312 120.035156 C 229.070312 59.914062 180.15625 11 120.035156 11 Z M 92.503906 98.671875 C 87.910156 104.585938 85.144531 111.984375 85.144531 120.035156 C 85.144531 139.273438 100.796875 154.925781 120.035156 154.925781 C 139.273438 154.925781 154.925781 139.273438 154.925781 120.035156 C 154.925781 100.796875 139.273438 85.144531 120.035156 85.144531 C 111.984375 85.144531 104.585938 87.910156 98.671875 92.503906 L 73.941406 67.777344 C 86.25 56.90625 102.363281 50.25 120.035156 50.25 C 158.511719 50.25 189.816406 81.558594 189.816406 120.035156 C 189.816406 158.511719 158.511719 189.816406 120.035156 189.816406 C 81.558594 189.816406 50.25 158.511719 50.25 120.035156 C 50.25 102.363281 56.90625 86.25 67.777344 73.941406 Z M 111.640625 117.804688 C 111.445312 118.519531 111.3125 119.257812 111.3125 120.035156 C 111.3125 124.84375 115.222656 128.757812 120.035156 128.757812 C 124.84375 128.757812 128.757812 124.84375 128.757812 120.035156 C 128.757812 115.222656 124.84375 111.3125 120.035156 111.3125 C 119.257812 111.3125 118.519531 111.445312 117.804688 111.640625 L 104.894531 98.730469 C 109.175781 95.679688 114.390625 93.867188 120.035156 93.867188 C 134.46875 93.867188 146.203125 105.601562 146.203125 120.035156 C 146.203125 134.46875 134.46875 146.203125 120.035156 146.203125 C 105.601562 146.203125 93.867188 134.46875 93.867188 120.035156 C 93.867188 114.390625 95.679688 109.175781 98.730469 104.894531 Z M 54.613281 38.972656 L 54.613281 48.445312 L 41.527344 35.363281 L 41.527344 25.890625 Z M 35.363281 41.527344 L 48.445312 54.613281 L 38.972656 54.613281 L 25.890625 41.527344 Z M 120.035156 220.347656 C 64.722656 220.347656 19.722656 175.351562 19.722656 120.035156 C 19.722656 99.570312 25.859375 80.066406 37.363281 63.335938 L 57.167969 63.335938 L 61.613281 67.78125 C 49.171875 81.675781 41.527344 99.960938 41.527344 120.035156 C 41.527344 163.320312 76.746094 198.539062 120.035156 198.539062 C 163.320312 198.539062 198.539062 163.320312 198.539062 120.035156 C 198.539062 76.746094 163.320312 41.527344 120.035156 41.527344 C 99.960938 41.527344 81.675781 49.171875 67.78125 61.613281 L 63.335938 57.167969 L 63.335938 37.363281 C 80.066406 25.855469 99.570312 19.722656 120.035156 19.722656 C 175.347656 19.722656 220.347656 64.722656 220.347656 120.035156 C 220.347656 175.351562 175.347656 220.347656 120.035156 220.347656 Z M 120.035156 220.347656 " fill-opacity="1" fill-rule="nonzero"/></g></svg>