<svg xmlns="http://www.w3.org/2000/svg" xmlns:xlink="http://www.w3.org/1999/xlink" width="320" zoomAndPan="magnify" viewBox="0 0 240 239.999995" height="320" preserveAspectRatio="xMidYMid meet" version="1.0"><defs><clipPath id="7b45b6efb0"><path d="M 97 216 L 141 216 L 141 233.472656 L 97 233.472656 Z M 97 216 " clip-rule="nonzero"/></clipPath><clipPath id="0035a80eb3"><path d="M 116 6.222656 L 124 6.222656 L 124 24 L 116 24 Z M 116 6.222656 " clip-rule="nonzero"/></clipPath></defs><path fill="#22c55e" d="M 62.222656 104 C 62.222656 118.933594 67.910156 132.976562 78.398438 143.820312 C 89.777344 155.378906 96 170.308594 96 185.597656 C 96 188.621094 98.488281 191.109375 101.511719 191.109375 L 136.710938 191.109375 C 139.734375 191.109375 142.222656 188.621094 142.222656 185.597656 L 142.222656 184.53125 C 142.222656 169.597656 148.265625 155.378906 159.464844 144.175781 C 170.132812 133.332031 176 119.109375 176 103.820312 C 176 88.53125 169.777344 74.132812 158.578125 63.289062 C 147.378906 52.445312 132.800781 46.753906 117.511719 47.109375 C 86.398438 48 62.222656 73.066406 62.222656 104 Z M 117.6875 54.222656 C 131.023438 53.867188 143.820312 58.84375 153.777344 68.265625 C 163.554688 77.6875 168.890625 90.3125 169.066406 103.820312 C 169.066406 117.15625 163.910156 129.597656 154.667969 139.023438 C 142.398438 151.464844 135.464844 167.289062 135.289062 184 L 103.289062 184 C 102.933594 167.289062 96 151.289062 83.734375 138.84375 C 74.667969 129.421875 69.511719 117.15625 69.511719 104 C 69.332031 76.800781 90.488281 54.933594 117.6875 54.222656 Z M 117.6875 54.222656 " fill-opacity="1" fill-rule="nonzero"/><path fill="#22c55e" d="M 140.445312 194.664062 L 97.777344 194.664062 C 95.824219 194.664062 94.222656 196.265625 94.222656 198.222656 C 94.222656 200.175781 95.824219 201.777344 97.777344 201.777344 L 140.445312 201.777344 C 142.398438 201.777344 144 200.175781 144 198.222656 C 144 196.265625 142.398438 194.664062 140.445312 194.664062 Z M 140.445312 194.664062 " fill-opacity="1" fill-rule="nonzero"/><path fill="#22c55e" d="M 144 208.886719 C 144 206.933594 142.398438 205.332031 140.445312 205.332031 L 97.777344 205.332031 C 95.824219 205.332031 94.222656 206.933594 94.222656 208.886719 C 94.222656 210.84375 95.824219 212.445312 97.777344 212.445312 L 140.445312 212.445312 C 142.398438 212.445312 144 210.84375 144 208.886719 Z M 144 208.886719 " fill-opacity="1" fill-rule="nonzero"/><g clip-path="url(#7b45b6efb0)"><path fill="#22c55e" d="M 106.667969 216 C 101.6875 216 97.777344 219.910156 97.777344 224.886719 C 97.777344 229.867188 101.6875 233.777344 106.667969 233.777344 L 131.554688 233.777344 C 136.535156 233.777344 140.445312 229.867188 140.445312 224.886719 C 140.445312 219.910156 136.535156 216 131.554688 216 Z M 133.332031 224.886719 C 133.332031 225.953125 132.621094 226.664062 131.554688 226.664062 L 106.667969 226.664062 C 105.601562 226.664062 104.890625 225.953125 104.890625 224.886719 C 104.890625 223.820312 105.601562 223.109375 106.667969 223.109375 L 131.554688 223.109375 C 132.621094 223.109375 133.332031 223.820312 133.332031 224.886719 Z M 133.332031 224.886719 " fill-opacity="1" fill-rule="nonzero"/></g><g clip-path="url(#0035a80eb3)"><path fill="#22c55e" d="M 120 24 C 121.957031 24 123.554688 22.398438 123.554688 20.445312 L 123.554688 9.777344 C 123.554688 7.820312 121.957031 6.222656 120 6.222656 C 118.042969 6.222656 116.445312 7.820312 116.445312 9.777344 L 116.445312 20.445312 C 116.445312 22.398438 118.042969 24 120 24 Z M 120 24 " fill-opacity="1" fill-rule="nonzero"/></g><path fill="#22c55e" d="M 181.15625 31.109375 L 173.6875 38.578125 C 172.265625 40 172.265625 42.132812 173.6875 43.554688 C 174.398438 44.265625 175.289062 44.621094 176.175781 44.621094 C 177.066406 44.621094 177.957031 44.265625 178.667969 43.554688 L 186.132812 36.089844 C 187.554688 34.667969 187.554688 32.535156 186.132812 31.109375 C 184.710938 29.6875 182.578125 29.6875 181.15625 31.109375 Z M 181.15625 31.109375 " fill-opacity="1" fill-rule="nonzero"/><path fill="#22c55e" d="M 212.445312 105.777344 C 214.398438 105.777344 216 104.175781 216 102.222656 C 216 100.265625 214.398438 98.667969 212.445312 98.667969 L 201.777344 98.667969 C 199.820312 98.667969 198.222656 100.265625 198.222656 102.222656 C 198.222656 104.175781 199.820312 105.777344 201.777344 105.777344 Z M 212.445312 105.777344 " fill-opacity="1" fill-rule="nonzero"/><path fill="#22c55e" d="M 178.667969 155.734375 C 177.246094 157.15625 177.246094 159.289062 178.667969 160.710938 L 186.132812 168.175781 C 186.84375 168.886719 187.734375 169.242188 188.621094 169.242188 C 189.511719 169.242188 190.398438 168.886719 191.109375 168.175781 C 192.53125 166.753906 192.53125 164.621094 191.109375 163.199219 L 183.644531 155.734375 C 182.222656 154.488281 179.910156 154.488281 178.667969 155.734375 Z M 178.667969 155.734375 " fill-opacity="1" fill-rule="nonzero"/><path fill="#22c55e" d="M 61.332031 157.332031 L 53.867188 164.800781 C 52.445312 166.222656 52.445312 168.355469 53.867188 169.777344 C 54.578125 170.488281 55.46875 170.84375 56.355469 170.84375 C 57.246094 170.84375 58.132812 170.488281 58.84375 169.777344 L 66.3125 162.308594 C 67.734375 160.886719 67.734375 158.753906 66.3125 157.332031 C 64.890625 155.910156 62.753906 155.910156 61.332031 157.332031 Z M 61.332031 157.332031 " fill-opacity="1" fill-rule="nonzero"/><path fill="#22c55e" d="M 38.222656 109.332031 C 40.179688 109.332031 41.777344 107.734375 41.777344 105.777344 C 41.777344 103.820312 40.179688 102.222656 38.222656 102.222656 L 27.554688 102.222656 C 25.601562 102.222656 24 103.820312 24 105.777344 C 24 107.734375 25.601562 109.332031 27.554688 109.332031 Z M 38.222656 109.332031 " fill-opacity="1" fill-rule="nonzero"/><path fill="#22c55e" d="M 53.867188 36.089844 C 52.445312 34.667969 50.3125 34.667969 48.890625 36.089844 C 47.46875 37.511719 47.46875 39.644531 48.890625 41.066406 L 56.355469 48.53125 C 57.066406 49.246094 57.957031 49.601562 58.84375 49.601562 C 59.734375 49.601562 60.621094 49.246094 61.332031 48.53125 C 62.753906 47.109375 62.753906 44.976562 61.332031 43.554688 Z M 53.867188 36.089844 " fill-opacity="1" fill-rule="nonzero"/><path fill="#22c55e" d="M 96 136.53125 C 96.355469 136.53125 96.890625 136.53125 97.246094 136.355469 L 116.800781 129.421875 C 116.976562 129.421875 116.976562 129.242188 117.15625 129.242188 C 117.332031 129.242188 117.332031 129.066406 117.511719 129.066406 C 117.511719 129.066406 117.6875 128.886719 117.6875 128.886719 C 117.867188 128.886719 117.867188 128.710938 118.042969 128.710938 L 153.421875 93.332031 C 155.910156 90.84375 155.910156 86.753906 153.421875 84.089844 L 145.066406 75.554688 C 142.578125 73.066406 138.488281 73.066406 135.820312 75.554688 L 100.445312 111.109375 C 100.265625 111.289062 100.265625 111.289062 100.265625 111.464844 C 100.265625 111.464844 100.089844 111.644531 100.089844 111.644531 C 100.089844 111.644531 99.910156 111.820312 99.910156 112 C 99.910156 112.175781 99.734375 112.175781 99.734375 112.355469 L 92.800781 131.910156 C 92.265625 133.15625 92.621094 134.578125 93.6875 135.644531 C 94.222656 136.175781 95.109375 136.53125 96 136.53125 Z M 132.265625 89.421875 L 139.734375 96.886719 L 115.554688 121.066406 L 108.089844 113.597656 Z M 104.535156 120 L 109.15625 124.621094 L 102.042969 127.109375 Z M 140.445312 81.066406 L 147.910156 88.53125 L 144.535156 91.910156 L 137.246094 84.445312 Z M 140.445312 81.066406 " fill-opacity="1" fill-rule="nonzero"/></svg>