<svg xmlns="http://www.w3.org/2000/svg" xmlns:xlink="http://www.w3.org/1999/xlink" width="320" zoomAndPan="magnify" viewBox="0 0 240 239.999995" height="320" preserveAspectRatio="xMidYMid meet" version="1.0"><defs><clipPath id="0d9670bab0"><path d="M 10.953125 7.144531 L 125 7.144531 L 125 226.894531 L 10.953125 226.894531 Z M 10.953125 7.144531 " clip-rule="nonzero"/></clipPath><clipPath id="3f09b9e8fc"><path d="M 73 54 L 223.953125 54 L 223.953125 180 L 73 180 Z M 73 54 " clip-rule="nonzero"/></clipPath></defs><path fill="#22c55e" d="M 117.070312 101.246094 C 116.519531 99.816406 115.164062 98.863281 113.621094 98.863281 C 112.082031 98.863281 110.726562 99.816406 110.175781 101.246094 L 99.175781 130.578125 C 98.480469 132.484375 99.433594 134.574219 101.339844 135.308594 C 103.246094 136.007812 105.335938 135.054688 106.070312 133.144531 L 107.941406 128.195312 L 119.34375 128.195312 L 121.214844 133.144531 C 121.761719 134.613281 123.15625 135.53125 124.660156 135.53125 C 125.101562 135.53125 125.539062 135.457031 125.941406 135.308594 C 127.851562 134.613281 128.804688 132.484375 128.070312 130.578125 Z M 110.691406 120.863281 L 113.660156 112.980469 L 116.628906 120.863281 Z M 110.691406 120.863281 " fill-opacity="1" fill-rule="nonzero"/><path fill="#22c55e" d="M 135.625 98.863281 C 133.605469 98.863281 131.957031 100.511719 131.957031 102.527344 L 131.957031 131.863281 C 131.957031 133.878906 133.605469 135.53125 135.625 135.53125 C 137.640625 135.53125 139.289062 133.878906 139.289062 131.863281 L 139.289062 102.527344 C 139.289062 100.511719 137.640625 98.863281 135.625 98.863281 Z M 135.625 98.863281 " fill-opacity="1" fill-rule="nonzero"/><g clip-path="url(#0d9670bab0)"><path fill="#22c55e" d="M 120.957031 179.53125 C 86.597656 179.53125 58.621094 151.554688 58.621094 117.195312 C 58.621094 82.839844 86.597656 54.859375 120.957031 54.859375 C 122.972656 54.859375 124.625 53.210938 124.625 51.195312 L 124.625 10.859375 C 124.625 8.84375 122.972656 7.191406 120.957031 7.191406 L 101.632812 7.191406 C 99.945312 7.191406 98.480469 8.328125 98.074219 9.980469 L 92.832031 31.027344 C 88.359375 32.492188 84.03125 34.253906 79.925781 36.34375 L 61.335938 25.195312 C 59.90625 24.316406 58.035156 24.574219 56.863281 25.746094 L 29.542969 53.0625 C 28.371094 54.238281 28.113281 56.109375 28.996094 57.539062 L 40.140625 76.128906 C 38.050781 80.234375 36.253906 84.5625 34.824219 89.035156 L 13.777344 94.277344 C 12.128906 94.683594 10.992188 96.148438 10.992188 97.835938 L 10.992188 136.484375 C 10.992188 138.167969 12.128906 139.636719 13.777344 140.039062 L 34.824219 145.28125 C 36.292969 149.757812 38.050781 154.082031 40.140625 158.191406 L 28.996094 176.78125 C 28.113281 178.210938 28.371094 180.082031 29.542969 181.253906 L 56.863281 208.570312 C 58.035156 209.746094 59.90625 210 61.335938 209.121094 L 79.925781 197.972656 C 84.03125 200.0625 88.359375 201.859375 92.832031 203.292969 L 98.074219 224.339844 C 98.480469 225.988281 99.945312 227.125 101.632812 227.125 L 120.957031 227.125 C 122.972656 227.125 124.625 225.476562 124.625 223.457031 L 124.625 183.125 C 124.625 181.105469 122.972656 179.457031 120.957031 179.457031 Z M 117.289062 219.863281 L 104.492188 219.863281 L 99.433594 199.585938 C 99.101562 198.339844 98.148438 197.351562 96.9375 196.949219 C 91.550781 195.335938 86.34375 193.207031 81.539062 190.605469 C 80.402344 189.980469 79.007812 190.015625 77.910156 190.675781 L 60.015625 201.421875 L 36.730469 178.136719 L 47.476562 160.242188 C 48.132812 159.144531 48.171875 157.75 47.546875 156.613281 C 44.945312 151.808594 42.816406 146.601562 41.203125 141.214844 C 40.835938 139.964844 39.847656 139.011719 38.566406 138.71875 L 18.289062 133.660156 L 18.289062 100.730469 L 38.566406 95.671875 C 39.8125 95.34375 40.800781 94.386719 41.203125 93.179688 C 42.816406 87.789062 44.945312 82.582031 47.546875 77.777344 C 48.171875 76.640625 48.132812 75.246094 47.476562 74.148438 L 36.730469 56.253906 L 60.015625 32.96875 L 77.910156 43.714844 C 79.007812 44.375 80.402344 44.410156 81.539062 43.789062 C 86.34375 41.183594 91.550781 39.058594 96.9375 37.445312 C 98.1875 37.078125 99.140625 36.085938 99.433594 34.804688 L 104.492188 14.527344 L 117.289062 14.527344 L 117.289062 47.636719 C 80.585938 49.542969 51.289062 80.015625 51.289062 117.195312 C 51.289062 154.375 80.585938 184.847656 117.289062 186.753906 Z M 117.289062 219.863281 " fill-opacity="1" fill-rule="nonzero"/></g><g clip-path="url(#3f09b9e8fc)"><path fill="#22c55e" d="M 208.957031 102.527344 C 202.136719 102.527344 196.453125 107.222656 194.804688 113.527344 L 157.625 113.527344 L 157.625 98.863281 L 172.292969 98.863281 C 173.316406 98.863281 174.308594 98.421875 175.003906 97.652344 L 188.425781 82.949219 C 190.222656 83.71875 192.203125 84.195312 194.292969 84.195312 C 202.394531 84.195312 208.957031 77.632812 208.957031 69.527344 C 208.957031 61.425781 202.394531 54.859375 194.292969 54.859375 C 186.1875 54.859375 179.625 61.425781 179.625 69.527344 C 179.625 72.863281 180.796875 75.90625 182.667969 78.363281 L 170.675781 91.527344 L 157.625 91.527344 L 157.625 84.195312 C 157.625 82.179688 155.972656 80.527344 153.957031 80.527344 L 146.625 80.527344 L 146.625 73.195312 C 146.625 71.179688 144.972656 69.527344 142.957031 69.527344 C 140.941406 69.527344 139.289062 71.179688 139.289062 73.195312 L 139.289062 80.527344 L 124.625 80.527344 L 124.625 73.195312 C 124.625 71.179688 122.972656 69.527344 120.957031 69.527344 C 118.941406 69.527344 117.289062 71.179688 117.289062 73.195312 L 117.289062 80.527344 L 102.621094 80.527344 L 102.621094 73.195312 C 102.621094 71.179688 100.972656 69.527344 98.957031 69.527344 C 96.9375 69.527344 95.289062 71.179688 95.289062 73.195312 L 95.289062 80.527344 L 87.957031 80.527344 C 85.9375 80.527344 84.289062 82.179688 84.289062 84.195312 L 84.289062 91.527344 L 76.957031 91.527344 C 74.9375 91.527344 73.289062 93.179688 73.289062 95.195312 C 73.289062 97.210938 74.9375 98.863281 76.957031 98.863281 L 84.289062 98.863281 L 84.289062 113.527344 L 76.957031 113.527344 C 74.9375 113.527344 73.289062 115.179688 73.289062 117.195312 C 73.289062 119.210938 74.9375 120.863281 76.957031 120.863281 L 84.289062 120.863281 L 84.289062 135.53125 L 76.957031 135.53125 C 74.9375 135.53125 73.289062 137.179688 73.289062 139.195312 C 73.289062 141.214844 74.9375 142.863281 76.957031 142.863281 L 84.289062 142.863281 L 84.289062 150.195312 C 84.289062 152.214844 85.9375 153.863281 87.957031 153.863281 L 95.289062 153.863281 L 95.289062 161.195312 C 95.289062 163.214844 96.9375 164.863281 98.957031 164.863281 C 100.972656 164.863281 102.621094 163.214844 102.621094 161.195312 L 102.621094 153.863281 L 117.289062 153.863281 L 117.289062 161.195312 C 117.289062 163.214844 118.941406 164.863281 120.957031 164.863281 C 122.972656 164.863281 124.625 163.214844 124.625 161.195312 L 124.625 153.863281 L 139.289062 153.863281 L 139.289062 161.195312 C 139.289062 163.214844 140.941406 164.863281 142.957031 164.863281 C 144.972656 164.863281 146.625 163.214844 146.625 161.195312 L 146.625 153.863281 L 153.957031 153.863281 C 155.972656 153.863281 157.625 152.214844 157.625 150.195312 L 157.625 142.863281 L 170.675781 142.863281 L 182.667969 156.027344 C 180.796875 158.484375 179.625 161.527344 179.625 164.863281 C 179.625 172.96875 186.1875 179.53125 194.292969 179.53125 C 202.394531 179.53125 208.957031 172.96875 208.957031 164.863281 C 208.957031 156.761719 202.394531 150.195312 194.292969 150.195312 C 192.203125 150.195312 190.222656 150.636719 188.425781 151.441406 L 175.003906 136.738281 C 174.308594 135.96875 173.316406 135.53125 172.292969 135.53125 L 157.625 135.53125 L 157.625 120.863281 L 194.804688 120.863281 C 196.453125 127.167969 202.136719 131.863281 208.957031 131.863281 C 217.0625 131.863281 223.625 125.300781 223.625 117.195312 C 223.625 109.09375 217.0625 102.527344 208.957031 102.527344 Z M 194.292969 62.195312 C 198.324219 62.195312 201.625 65.496094 201.625 69.527344 C 201.625 73.5625 198.324219 76.863281 194.292969 76.863281 C 190.257812 76.863281 186.957031 73.5625 186.957031 69.527344 C 186.957031 65.496094 190.257812 62.195312 194.292969 62.195312 Z M 201.625 164.863281 C 201.625 168.898438 198.324219 172.195312 194.292969 172.195312 C 190.257812 172.195312 186.957031 168.898438 186.957031 164.863281 C 186.957031 160.832031 190.257812 157.53125 194.292969 157.53125 C 198.324219 157.53125 201.625 160.832031 201.625 164.863281 Z M 150.289062 146.53125 L 91.621094 146.53125 L 91.621094 87.863281 L 150.289062 87.863281 Z M 208.957031 124.527344 C 204.925781 124.527344 201.625 121.230469 201.625 117.195312 C 201.625 113.164062 204.925781 109.863281 208.957031 109.863281 C 212.992188 109.863281 216.292969 113.164062 216.292969 117.195312 C 216.292969 121.230469 212.992188 124.527344 208.957031 124.527344 Z M 208.957031 124.527344 " fill-opacity="1" fill-rule="nonzero"/></g></svg>