<svg xmlns="http://www.w3.org/2000/svg" xmlns:xlink="http://www.w3.org/1999/xlink" width="320" zoomAndPan="magnify" viewBox="0 0 240 239.999995" height="320" preserveAspectRatio="xMidYMid meet" version="1.0"><defs><clipPath id="98aa1f2b05"><path d="M 12.898438 12.898438 L 227.398438 12.898438 L 227.398438 227.398438 L 12.898438 227.398438 Z M 12.898438 12.898438 " clip-rule="nonzero"/></clipPath></defs><g clip-path="url(#98aa1f2b05)"><path fill="#16a34a" d="M 222.808594 90.007812 L 209.300781 90.007812 C 207.914062 85.859375 206.257812 81.851562 204.363281 78.035156 L 213.898438 68.5 C 215.570312 66.828125 215.570312 64.117188 213.898438 62.445312 L 177.546875 26.09375 C 175.875 24.417969 173.164062 24.417969 171.492188 26.09375 L 161.972656 35.609375 C 158.101562 33.683594 154.085938 32.019531 149.984375 30.648438 L 149.984375 17.183594 C 149.984375 14.8125 148.066406 12.898438 145.699219 12.898438 L 94.292969 12.898438 C 91.925781 12.898438 90.007812 14.8125 90.007812 17.183594 L 90.007812 30.691406 C 85.859375 32.078125 81.851562 33.730469 78.035156 35.628906 L 68.5 26.09375 C 66.828125 24.417969 64.117188 24.417969 62.445312 26.09375 L 26.09375 62.445312 C 24.417969 64.117188 24.417969 66.828125 26.09375 68.5 L 35.609375 78.019531 C 33.683594 81.886719 32.019531 85.90625 30.648438 90.007812 L 17.183594 90.007812 C 14.8125 90.007812 12.898438 91.925781 12.898438 94.292969 L 12.898438 145.699219 C 12.898438 148.066406 14.8125 149.984375 17.183594 149.984375 L 30.691406 149.984375 C 32.078125 154.132812 33.730469 158.140625 35.628906 161.957031 L 26.09375 171.492188 C 24.417969 173.164062 24.417969 175.875 26.09375 177.546875 L 62.445312 213.898438 C 64.117188 215.570312 66.828125 215.570312 68.5 213.898438 L 78.019531 204.382812 C 81.886719 206.308594 85.90625 207.972656 90.007812 209.34375 L 90.007812 222.808594 C 90.007812 225.175781 91.925781 227.09375 94.292969 227.09375 L 145.699219 227.09375 C 148.066406 227.09375 149.984375 225.175781 149.984375 222.808594 L 149.984375 209.300781 C 154.132812 207.914062 158.140625 206.257812 161.957031 204.363281 L 171.492188 213.898438 C 173.164062 215.570312 175.875 215.570312 177.546875 213.898438 L 213.898438 177.546875 C 215.570312 175.875 215.570312 173.164062 213.898438 171.492188 L 204.382812 161.972656 C 206.308594 158.101562 207.972656 154.085938 209.34375 149.984375 L 222.808594 149.984375 C 225.175781 149.984375 227.09375 148.066406 227.09375 145.699219 L 227.09375 94.292969 C 227.09375 91.925781 225.175781 90.007812 222.808594 90.007812 Z M 218.527344 141.414062 L 206.207031 141.414062 C 204.308594 141.414062 202.636719 142.660156 202.097656 144.476562 C 200.421875 150.113281 198.160156 155.585938 195.367188 160.746094 C 194.464844 162.414062 194.769531 164.476562 196.105469 165.8125 L 204.8125 174.519531 L 174.519531 204.8125 L 165.796875 196.089844 C 164.457031 194.746094 162.386719 194.457031 160.726562 195.351562 C 155.679688 198.089844 150.214844 200.34375 144.472656 202.058594 C 142.65625 202.597656 141.414062 204.269531 141.414062 206.164062 L 141.414062 218.527344 L 98.578125 218.527344 L 98.578125 206.207031 C 98.578125 204.308594 97.328125 202.636719 95.515625 202.097656 C 89.878906 200.421875 84.40625 198.160156 79.246094 195.367188 C 77.585938 194.46875 75.519531 194.757812 74.179688 196.105469 L 65.472656 204.8125 L 35.179688 174.519531 L 43.902344 165.796875 C 45.246094 164.457031 45.542969 162.390625 44.636719 160.726562 C 41.902344 155.679688 39.648438 150.214844 37.933594 144.472656 C 37.394531 142.65625 35.722656 141.414062 33.828125 141.414062 L 21.464844 141.414062 L 21.464844 98.578125 L 33.785156 98.578125 C 35.679688 98.578125 37.355469 97.328125 37.894531 95.515625 C 39.566406 89.878906 41.832031 84.40625 44.625 79.246094 C 45.523438 77.578125 45.222656 75.515625 43.886719 74.179688 L 35.179688 65.472656 L 65.472656 35.179688 L 74.195312 43.902344 C 75.539062 45.25 77.613281 45.542969 79.265625 44.636719 C 84.3125 41.902344 89.777344 39.648438 95.519531 37.933594 C 97.332031 37.394531 98.578125 35.722656 98.578125 33.828125 L 98.578125 21.464844 L 141.414062 21.464844 L 141.414062 33.785156 C 141.414062 35.679688 142.660156 37.355469 144.476562 37.894531 C 150.113281 39.566406 155.585938 41.832031 160.746094 44.625 C 162.402344 45.519531 164.46875 45.226562 165.8125 43.886719 L 174.519531 35.179688 L 204.8125 65.472656 L 196.089844 74.195312 C 194.746094 75.535156 194.449219 77.601562 195.351562 79.265625 C 198.089844 84.3125 200.34375 89.777344 202.058594 95.519531 C 202.597656 97.332031 204.269531 98.578125 206.164062 98.578125 L 218.527344 98.578125 Z M 218.527344 141.414062 " fill-opacity="1" fill-rule="nonzero"/></g><path fill="#16a34a" d="M 119.996094 47.167969 C 79.839844 47.167969 47.167969 79.839844 47.167969 119.996094 C 47.167969 160.152344 79.839844 192.820312 119.996094 192.820312 C 160.152344 192.820312 192.820312 160.152344 192.820312 119.996094 C 192.820312 79.839844 160.152344 47.167969 119.996094 47.167969 Z M 119.996094 184.253906 C 84.5625 184.253906 55.738281 155.429688 55.738281 119.996094 C 55.738281 84.5625 84.5625 55.738281 119.996094 55.738281 C 155.429688 55.738281 184.253906 84.5625 184.253906 119.996094 C 184.253906 155.429688 155.429688 184.253906 119.996094 184.253906 Z M 119.996094 184.253906 " fill-opacity="1" fill-rule="nonzero"/><path fill="#16a34a" d="M 119.996094 85.722656 L 96.066406 85.722656 L 105.890625 75.902344 C 107.5625 74.226562 107.5625 71.515625 105.890625 69.84375 C 104.214844 68.171875 101.503906 68.171875 99.832031 69.84375 L 82.695312 86.980469 C 81.023438 88.652344 81.023438 91.363281 82.695312 93.039062 C 82.695312 93.039062 99.816406 110.15625 99.832031 110.171875 C 101.421875 111.761719 104.191406 111.871094 105.890625 110.171875 C 107.5625 108.5 107.5625 105.789062 105.890625 104.117188 L 96.066406 94.292969 L 119.996094 94.292969 C 136.527344 94.292969 149.984375 107.746094 149.984375 124.28125 C 149.984375 126.648438 151.898438 128.5625 154.265625 128.5625 C 156.636719 128.5625 158.550781 126.648438 158.550781 124.28125 C 158.550781 103.019531 141.257812 85.722656 119.996094 85.722656 Z M 119.996094 85.722656 " fill-opacity="1" fill-rule="nonzero"/><path fill="#16a34a" d="M 140.160156 129.820312 C 138.488281 128.144531 135.777344 128.144531 134.101562 129.820312 C 132.429688 131.492188 132.429688 134.203125 134.101562 135.875 L 143.925781 145.699219 L 119.996094 145.699219 C 103.460938 145.699219 90.007812 132.246094 90.007812 115.710938 C 90.007812 113.34375 88.09375 111.429688 85.722656 111.429688 C 83.355469 111.429688 81.441406 113.34375 81.441406 115.710938 C 81.441406 136.972656 98.734375 154.265625 119.996094 154.265625 L 143.925781 154.265625 L 134.101562 164.089844 C 132.429688 165.761719 132.429688 168.472656 134.101562 170.148438 C 135.664062 171.710938 138.503906 171.804688 140.160156 170.148438 L 157.296875 153.011719 C 158.96875 151.339844 158.96875 148.628906 157.296875 146.953125 Z M 140.160156 129.820312 " fill-opacity="1" fill-rule="nonzero"/></svg>