<svg xmlns="http://www.w3.org/2000/svg" xmlns:xlink="http://www.w3.org/1999/xlink" width="40" zoomAndPan="magnify" viewBox="0 0 30 30.000001" height="40" preserveAspectRatio="xMidYMid meet" version="1.0"><defs><clipPath id="14871d441e"><path d="M 1.574219 1.390625 L 28 1.390625 L 28 27.519531 L 1.574219 27.519531 Z M 1.574219 1.390625 " clip-rule="nonzero"/></clipPath></defs><g clip-path="url(#14871d441e)"><path fill="#16a34a" d="M 10.867188 20.03125 L 8.785156 17.949219 L 7.648438 19.085938 L 9.730469 21.171875 Z M 25.125 4.140625 C 26.011719 4.140625 26.730469 4.855469 26.730469 5.742188 C 26.730469 6.0625 26.636719 6.359375 26.476562 6.609375 C 28.21875 10.164062 27.511719 14.460938 24.699219 17.277344 C 23.015625 18.957031 20.691406 20 18.121094 20 C 16.089844 20 14.203125 19.34375 12.664062 18.230469 L 11.4375 19.457031 L 11.617188 19.632812 C 11.726562 19.742188 11.78125 19.886719 11.78125 20.03125 C 11.78125 20.175781 11.726562 20.320312 11.617188 20.433594 L 5.480469 26.566406 C 4.59375 27.457031 3.140625 27.457031 2.25 26.566406 C 1.804688 26.121094 1.585938 25.539062 1.585938 24.953125 C 1.585938 24.367188 1.808594 23.78125 2.25 23.335938 L 8.386719 17.203125 C 8.605469 16.980469 8.964844 16.984375 9.183594 17.203125 L 9.363281 17.378906 L 10.585938 16.15625 C 9.839844 15.128906 9.296875 13.941406 9.023438 12.652344 C 8.796875 12.773438 8.539062 12.84375 8.265625 12.84375 C 7.378906 12.84375 6.660156 12.125 6.660156 11.238281 C 6.660156 10.351562 7.378906 9.632812 8.265625 9.632812 C 8.476562 9.632812 8.679688 9.671875 8.867188 9.75 C 9.34375 5.050781 13.3125 1.394531 18.121094 1.394531 C 20.648438 1.394531 23.019531 2.414062 24.757812 4.179688 C 24.875 4.152344 24.996094 4.136719 25.125 4.136719 Z M 25.851562 7.175781 C 26.351562 8.273438 26.613281 9.464844 26.613281 10.699219 C 26.613281 15.390625 22.808594 19.191406 18.121094 19.191406 C 13.878906 19.191406 10.308594 16.0625 9.714844 11.925781 C 9.816406 11.71875 9.871094 11.484375 9.871094 11.238281 C 9.871094 10.980469 9.808594 10.734375 9.699219 10.519531 L 11.347656 9.082031 C 10.847656 11.183594 11.332031 13.484375 12.832031 15.230469 C 12.84375 15.25 12.859375 15.269531 12.875 15.289062 C 12.996094 15.417969 13.117188 15.546875 13.242188 15.667969 C 15.964844 18.339844 20.339844 18.324219 23.042969 15.621094 C 25.40625 13.261719 25.714844 9.625 23.976562 6.929688 L 24.015625 6.902344 C 24.304688 7.179688 24.695312 7.347656 25.125 7.347656 C 25.386719 7.347656 25.632812 7.285156 25.851562 7.175781 Z M 23.589844 6.21875 C 23.542969 6.066406 23.519531 5.910156 23.519531 5.742188 C 23.519531 5.289062 23.710938 4.878906 24.015625 4.585938 C 20.730469 1.417969 15.480469 1.394531 12.175781 4.632812 C 10.886719 5.894531 10 7.5625 9.722656 9.429688 L 11.9375 7.492188 C 12.285156 6.828125 12.742188 6.207031 13.3125 5.660156 C 13.375 4.828125 14.066406 4.171875 14.914062 4.171875 C 15.105469 4.171875 15.285156 4.207031 15.453125 4.265625 C 18.050781 3.1875 21.050781 3.785156 23.042969 5.773438 C 23.203125 5.9375 23.355469 6.101562 23.496094 6.273438 Z M 25.6875 5.183594 C 25.1875 4.683594 24.332031 5.039062 24.332031 5.742188 C 24.332031 5.902344 24.375 6.042969 24.445312 6.160156 L 24.449219 6.164062 C 24.699219 6.566406 25.300781 6.691406 25.6875 6.304688 C 25.996094 5.996094 25.996094 5.492188 25.6875 5.183594 Z M 8.828125 10.675781 C 8.328125 10.175781 7.472656 10.53125 7.472656 11.238281 C 7.472656 11.941406 8.328125 12.296875 8.828125 11.800781 C 9.136719 11.488281 9.136719 10.984375 8.828125 10.675781 Z M 19.433594 7.113281 C 20.03125 7.113281 20.550781 7.441406 20.828125 7.925781 L 22.800781 6.707031 C 22.695312 6.582031 22.585938 6.464844 22.46875 6.347656 C 20.828125 4.703125 18.398438 4.136719 16.21875 4.84375 C 16.410156 5.105469 16.519531 5.429688 16.519531 5.777344 C 16.519531 5.957031 16.492188 6.128906 16.4375 6.289062 L 18.347656 7.535156 C 18.636719 7.273438 19.015625 7.113281 19.429688 7.113281 Z M 21.035156 8.746094 C 21.023438 9.621094 20.308594 10.324219 19.433594 10.324219 C 18.546875 10.324219 17.828125 9.605469 17.828125 8.71875 C 17.828125 8.542969 17.855469 8.371094 17.910156 8.210938 L 15.996094 6.964844 C 15.710938 7.222656 15.332031 7.382812 14.914062 7.382812 C 14.484375 7.382812 14.09375 7.210938 13.804688 6.9375 L 12.589844 7.996094 C 11.707031 9.804688 11.761719 11.96875 12.773438 13.742188 L 12.773438 12.953125 C 12.773438 12.726562 12.953125 12.546875 13.175781 12.546875 L 14.375 12.546875 C 14.601562 12.546875 14.78125 12.726562 14.78125 12.953125 L 14.78125 15.867188 C 15.035156 16.03125 15.296875 16.175781 15.566406 16.296875 L 15.566406 9.683594 C 15.566406 9.460938 15.75 9.277344 15.972656 9.277344 L 17.171875 9.277344 C 17.394531 9.277344 17.574219 9.460938 17.574219 9.683594 L 17.574219 16.824219 C 17.835938 16.847656 18.101562 16.855469 18.363281 16.84375 L 18.363281 11.699219 C 18.363281 11.476562 18.542969 11.292969 18.765625 11.292969 L 19.964844 11.292969 C 20.1875 11.292969 20.371094 11.476562 20.371094 11.699219 L 20.371094 16.425781 C 20.640625 16.320312 20.902344 16.195312 21.15625 16.050781 L 21.15625 10.222656 C 21.15625 10 21.339844 9.816406 21.5625 9.816406 L 22.761719 9.816406 C 22.984375 9.816406 23.164062 10 23.164062 10.222656 L 23.164062 14.21875 C 24.597656 12.171875 24.640625 9.441406 23.285156 7.355469 Z M 19.992188 8.15625 C 19.613281 7.777344 19.027344 7.894531 18.769531 8.277344 L 18.765625 8.285156 C 18.761719 8.289062 18.761719 8.292969 18.757812 8.296875 C 18.683594 8.414062 18.636719 8.558594 18.636719 8.71875 C 18.636719 9.425781 19.496094 9.78125 19.992188 9.28125 C 20.304688 8.972656 20.304688 8.46875 19.992188 8.15625 Z M 15.476562 5.214844 C 14.976562 4.71875 14.121094 5.070312 14.121094 5.777344 C 14.121094 5.914062 14.152344 6.039062 14.210938 6.148438 C 14.214844 6.15625 14.21875 6.160156 14.222656 6.167969 C 14.460938 6.59375 15.082031 6.734375 15.476562 6.339844 C 15.785156 6.027344 15.785156 5.527344 15.476562 5.214844 Z M 19.558594 12.105469 L 19.171875 12.105469 L 19.171875 16.695312 L 19.558594 16.609375 Z M 21.96875 15.394531 C 22.101562 15.285156 22.230469 15.167969 22.355469 15.046875 L 22.355469 10.628906 L 21.96875 10.628906 Z M 16.65625 16.632812 C 16.691406 16.640625 16.730469 16.648438 16.765625 16.65625 L 16.765625 10.089844 L 16.378906 10.089844 L 16.378906 16.5625 C 16.46875 16.585938 16.5625 16.609375 16.65625 16.632812 Z M 13.953125 15.222656 L 13.96875 15.238281 L 13.96875 13.355469 L 13.582031 13.355469 L 13.582031 14.851562 C 13.644531 14.917969 13.707031 14.984375 13.769531 15.046875 C 13.828125 15.109375 13.890625 15.167969 13.953125 15.222656 Z M 7.074219 19.660156 L 9.15625 21.742188 L 4.90625 25.992188 C 3.996094 26.90625 2.394531 26.273438 2.394531 24.953125 C 2.394531 24.574219 2.535156 24.199219 2.824219 23.910156 Z M 11.09375 16.792969 C 11.382812 17.125 11.695312 17.433594 12.023438 17.722656 L 10.863281 18.882812 L 9.9375 17.953125 Z M 11.09375 16.792969 " fill-opacity="1" fill-rule="evenodd"/></g></svg>