<svg xmlns="http://www.w3.org/2000/svg" xmlns:xlink="http://www.w3.org/1999/xlink" width="320" zoomAndPan="magnify" viewBox="0 0 240 247.92" height="320" preserveAspectRatio="xMidYMid meet" version="1.0"><defs><clipPath id="51e8cb8832"><path d="M 46 10 L 195 10 L 195 233.265625 L 46 233.265625 Z M 46 10 " clip-rule="nonzero"/></clipPath><clipPath id="d5433a46a9"><path d="M 206 80 L 231.894531 80 L 231.894531 89 L 206 89 Z M 206 80 " clip-rule="nonzero"/></clipPath><clipPath id="a4fd90705d"><path d="M 9.214844 80 L 36 80 L 36 89 L 9.214844 89 Z M 9.214844 80 " clip-rule="nonzero"/></clipPath></defs><g clip-path="url(#51e8cb8832)"><path fill="#16a34a" d="M 170.289062 29.140625 C 154.351562 14.875 133.734375 8.300781 112.265625 10.679688 C 77.945312 14.46875 50.457031 42.179688 46.855469 76.539062 C 44.140625 102.613281 54.914062 127.648438 75.679688 143.472656 C 82.03125 148.300781 86.003906 155.097656 87.007812 162.492188 C 80.988281 162.640625 76.125 167.542969 76.125 173.597656 C 76.125 179.652344 81.140625 184.742188 87.269531 184.742188 L 87.269531 192.171875 L 83.554688 192.171875 C 81.511719 192.171875 79.839844 193.84375 79.839844 195.886719 C 79.839844 197.929688 81.511719 199.597656 83.554688 199.597656 L 87.269531 199.597656 L 87.269531 203.3125 C 87.269531 209.441406 92.28125 214.457031 98.410156 214.457031 L 102.125 214.457031 C 102.125 224.710938 110.445312 233.03125 120.699219 233.03125 C 130.949219 233.03125 139.269531 224.710938 139.269531 214.457031 L 142.984375 214.457031 C 149.113281 214.457031 154.128906 209.441406 154.128906 203.3125 L 154.128906 199.597656 L 157.84375 199.597656 C 159.886719 199.597656 161.558594 197.929688 161.558594 195.886719 C 161.558594 193.84375 159.886719 192.171875 157.84375 192.171875 L 154.128906 192.171875 L 154.128906 184.742188 C 160.257812 184.742188 165.273438 179.726562 165.273438 173.597656 C 165.273438 167.46875 160.40625 162.640625 154.390625 162.492188 C 155.390625 155.097656 159.367188 148.300781 165.679688 143.511719 C 184.289062 129.320312 194.988281 107.8125 194.988281 84.488281 C 194.988281 63.386719 185.960938 43.21875 170.25 29.140625 Z M 120.734375 225.636719 C 114.605469 225.636719 109.59375 220.625 109.59375 214.496094 L 131.878906 214.496094 C 131.878906 220.625 126.863281 225.636719 120.734375 225.636719 Z M 146.738281 203.351562 C 146.738281 205.394531 145.066406 207.066406 143.023438 207.066406 L 98.449219 207.066406 C 96.40625 207.066406 94.734375 205.394531 94.734375 203.351562 L 94.734375 199.636719 L 146.738281 199.636719 Z M 146.738281 192.207031 L 94.734375 192.207031 L 94.734375 184.777344 L 146.738281 184.777344 Z M 157.878906 173.636719 C 157.878906 175.679688 156.210938 177.347656 154.167969 177.347656 L 87.304688 177.347656 C 85.261719 177.347656 83.589844 175.679688 83.589844 173.636719 C 83.589844 171.59375 85.261719 169.921875 87.304688 169.921875 L 154.167969 169.921875 C 156.210938 169.921875 157.878906 171.59375 157.878906 173.636719 Z M 161.222656 137.605469 C 153.050781 143.84375 147.964844 152.757812 146.921875 162.492188 L 94.511719 162.492188 C 93.472656 152.757812 88.382812 143.84375 80.171875 137.566406 C 61.488281 123.304688 51.792969 100.757812 54.207031 77.28125 C 57.441406 46.375 82.179688 21.453125 113.046875 18.035156 C 132.363281 15.878906 150.933594 21.785156 165.273438 34.636719 C 179.425781 47.304688 187.558594 65.46875 187.558594 84.449219 C 187.558594 105.4375 177.9375 124.828125 161.1875 137.566406 Z M 161.222656 137.605469 " fill-opacity="1" fill-rule="nonzero"/></g><g clip-path="url(#d5433a46a9)"><path fill="#16a34a" d="M 228.457031 80.773438 L 209.882812 80.773438 C 207.839844 80.773438 206.167969 82.445312 206.167969 84.488281 C 206.167969 86.53125 207.839844 88.199219 209.882812 88.199219 L 228.457031 88.199219 C 230.5 88.199219 232.171875 86.53125 232.171875 84.488281 C 232.171875 82.445312 230.5 80.773438 228.457031 80.773438 Z M 228.457031 80.773438 " fill-opacity="1" fill-rule="nonzero"/></g><g clip-path="url(#a4fd90705d)"><path fill="#16a34a" d="M 35.300781 84.488281 C 35.300781 82.445312 33.628906 80.773438 31.585938 80.773438 L 13.015625 80.773438 C 10.972656 80.773438 9.300781 82.445312 9.300781 84.488281 C 9.300781 86.53125 10.972656 88.199219 13.015625 88.199219 L 31.585938 88.199219 C 33.628906 88.199219 35.300781 86.53125 35.300781 84.488281 Z M 35.300781 84.488281 " fill-opacity="1" fill-rule="nonzero"/></g><path fill="#16a34a" d="M 193.761719 37.089844 C 194.503906 37.089844 195.25 36.867188 195.878906 36.421875 L 211.109375 25.761719 C 212.78125 24.570312 213.191406 22.269531 212.039062 20.597656 C 210.851562 18.925781 208.546875 18.515625 206.875 19.667969 L 191.644531 30.328125 C 189.972656 31.515625 189.566406 33.820312 190.71875 35.492188 C 191.421875 36.53125 192.574219 37.089844 193.761719 37.089844 Z M 193.761719 37.089844 " fill-opacity="1" fill-rule="nonzero"/><path fill="#16a34a" d="M 45.589844 132.589844 L 30.359375 143.25 C 28.691406 144.4375 28.28125 146.742188 29.433594 148.414062 C 30.136719 149.453125 31.289062 150.011719 32.480469 150.011719 C 33.222656 150.011719 33.964844 149.789062 34.597656 149.34375 L 49.824219 138.679688 C 51.496094 137.492188 51.90625 135.191406 50.753906 133.519531 C 49.566406 131.847656 47.261719 131.4375 45.589844 132.589844 Z M 45.589844 132.589844 " fill-opacity="1" fill-rule="nonzero"/><path fill="#16a34a" d="M 195.878906 132.589844 C 194.207031 131.402344 191.867188 131.808594 190.71875 133.519531 C 189.527344 135.191406 189.9375 137.53125 191.644531 138.679688 L 206.875 149.34375 C 207.507812 149.789062 208.285156 150.011719 208.992188 150.011719 C 210.179688 150.011719 211.332031 149.453125 212.039062 148.414062 C 213.226562 146.742188 212.816406 144.402344 211.109375 143.25 Z M 195.878906 132.589844 " fill-opacity="1" fill-rule="nonzero"/><path fill="#16a34a" d="M 45.589844 36.421875 C 46.222656 36.867188 47.003906 37.089844 47.707031 37.089844 C 48.898438 37.089844 50.046875 36.53125 50.753906 35.492188 C 51.941406 33.820312 51.535156 31.480469 49.824219 30.328125 L 34.597656 19.667969 C 32.925781 18.480469 30.585938 18.886719 29.433594 20.597656 C 28.242188 22.269531 28.652344 24.609375 30.359375 25.761719 Z M 45.589844 36.421875 " fill-opacity="1" fill-rule="nonzero"/><path fill="#16a34a" d="M 165.308594 65.652344 C 167.351562 65.652344 169.023438 63.984375 169.023438 61.9375 C 169.023438 59.894531 167.351562 58.226562 165.308594 58.226562 L 157.878906 58.226562 L 157.878906 50.796875 C 157.878906 48.753906 156.210938 47.082031 154.167969 47.082031 L 146.738281 47.082031 L 146.738281 39.652344 C 146.738281 37.609375 145.066406 35.9375 143.023438 35.9375 C 140.980469 35.9375 139.308594 37.609375 139.308594 39.652344 L 139.308594 47.082031 L 124.449219 47.082031 L 124.449219 39.652344 C 124.449219 37.609375 122.777344 35.9375 120.734375 35.9375 C 118.691406 35.9375 117.019531 37.609375 117.019531 39.652344 L 117.019531 47.082031 L 102.164062 47.082031 L 102.164062 39.652344 C 102.164062 37.609375 100.492188 35.9375 98.449219 35.9375 C 96.40625 35.9375 94.734375 37.609375 94.734375 39.652344 L 94.734375 47.082031 L 87.304688 47.082031 C 85.261719 47.082031 83.589844 48.753906 83.589844 50.796875 L 83.589844 58.226562 L 76.160156 58.226562 C 74.117188 58.226562 72.445312 59.894531 72.445312 61.9375 C 72.445312 63.984375 74.117188 65.652344 76.160156 65.652344 L 83.589844 65.652344 L 83.589844 80.511719 L 76.160156 80.511719 C 74.117188 80.511719 72.445312 82.183594 72.445312 84.226562 C 72.445312 86.269531 74.117188 87.941406 76.160156 87.941406 L 83.589844 87.941406 L 83.589844 102.800781 L 76.160156 102.800781 C 74.117188 102.800781 72.445312 104.46875 72.445312 106.511719 C 72.445312 108.554688 74.117188 110.226562 76.160156 110.226562 L 83.589844 110.226562 L 83.589844 117.65625 C 83.589844 119.699219 85.261719 121.371094 87.304688 121.371094 L 94.734375 121.371094 L 94.734375 128.800781 C 94.734375 130.84375 96.40625 132.515625 98.449219 132.515625 C 100.492188 132.515625 102.164062 130.84375 102.164062 128.800781 L 102.164062 121.371094 L 117.019531 121.371094 L 117.019531 128.800781 C 117.019531 130.84375 118.691406 132.515625 120.734375 132.515625 C 122.777344 132.515625 124.449219 130.84375 124.449219 128.800781 L 124.449219 121.371094 L 139.308594 121.371094 L 139.308594 128.800781 C 139.308594 130.84375 140.980469 132.515625 143.023438 132.515625 C 145.066406 132.515625 146.738281 130.84375 146.738281 128.800781 L 146.738281 121.371094 L 154.167969 121.371094 C 156.210938 121.371094 157.878906 119.699219 157.878906 117.65625 L 157.878906 110.226562 L 165.308594 110.226562 C 167.351562 110.226562 169.023438 108.554688 169.023438 106.511719 C 169.023438 104.46875 167.351562 102.800781 165.308594 102.800781 L 157.878906 102.800781 L 157.878906 87.941406 L 165.308594 87.941406 C 167.351562 87.941406 169.023438 86.269531 169.023438 84.226562 C 169.023438 82.183594 167.351562 80.511719 165.308594 80.511719 L 157.878906 80.511719 L 157.878906 65.652344 Z M 150.453125 113.941406 L 91.019531 113.941406 L 91.019531 54.511719 L 150.453125 54.511719 Z M 150.453125 113.941406 " fill-opacity="1" fill-rule="nonzero"/><path fill="#16a34a" d="M 116.796875 68.070312 C 116.242188 66.621094 114.867188 65.652344 113.304688 65.652344 C 111.746094 65.652344 110.371094 66.621094 109.816406 68.070312 L 98.671875 97.785156 C 97.964844 99.714844 98.929688 101.832031 100.863281 102.578125 C 102.792969 103.28125 104.910156 102.316406 105.65625 100.382812 L 107.550781 95.371094 L 119.101562 95.371094 L 120.996094 100.382812 C 121.550781 101.871094 122.964844 102.800781 124.488281 102.800781 C 124.933594 102.800781 125.378906 102.726562 125.789062 102.578125 C 127.71875 101.871094 128.683594 99.714844 127.980469 97.785156 L 116.835938 68.070312 Z M 110.335938 87.941406 L 113.34375 79.953125 L 116.351562 87.941406 Z M 110.335938 87.941406 " fill-opacity="1" fill-rule="nonzero"/><path fill="#16a34a" d="M 135.59375 65.652344 C 133.550781 65.652344 131.878906 67.324219 131.878906 69.367188 L 131.878906 99.085938 C 131.878906 101.128906 133.550781 102.800781 135.59375 102.800781 C 137.636719 102.800781 139.308594 101.128906 139.308594 99.085938 L 139.308594 69.367188 C 139.308594 67.324219 137.636719 65.652344 135.59375 65.652344 Z M 135.59375 65.652344 " fill-opacity="1" fill-rule="nonzero"/></svg>