<svg xmlns="http://www.w3.org/2000/svg" xmlns:xlink="http://www.w3.org/1999/xlink" width="240" zoomAndPan="magnify" viewBox="0 0 180 179.999997" height="240" preserveAspectRatio="xMidYMid meet" version="1.0"><defs><clipPath id="8abd6b6eef"><path d="M 14 57 L 133 57 L 133 175.648438 L 14 175.648438 Z M 14 57 " clip-rule="nonzero"/></clipPath></defs><path fill="#4379ee" d="M 129.828125 23.714844 C 130.429688 23.71875 131.023438 23.667969 131.613281 23.554688 C 132.203125 23.441406 132.777344 23.273438 133.335938 23.046875 C 133.890625 22.824219 134.421875 22.546875 134.921875 22.214844 C 135.425781 21.886719 135.890625 21.511719 136.320312 21.089844 C 136.746094 20.667969 137.128906 20.210938 137.46875 19.710938 C 137.804688 19.214844 138.089844 18.691406 138.324219 18.136719 C 138.558594 17.585938 138.734375 17.011719 138.855469 16.425781 C 138.976562 15.835938 139.039062 15.242188 139.042969 14.640625 C 139.046875 14.039062 138.992188 13.445312 138.878906 12.855469 C 138.765625 12.265625 138.59375 11.691406 138.367188 11.136719 C 138.140625 10.582031 137.859375 10.050781 137.53125 9.550781 C 137.199219 9.050781 136.820312 8.585938 136.398438 8.160156 C 135.976562 7.734375 135.515625 7.351562 135.019531 7.015625 C 134.519531 6.679688 133.996094 6.394531 133.441406 6.164062 C 132.886719 5.933594 132.316406 5.757812 131.726562 5.636719 C 131.136719 5.519531 130.542969 5.457031 129.941406 5.457031 C 129.339844 5.453125 128.746094 5.511719 128.15625 5.625 C 127.566406 5.742188 126.996094 5.914062 126.441406 6.140625 C 125.882812 6.371094 125.355469 6.652344 124.855469 6.984375 C 124.355469 7.316406 123.894531 7.695312 123.46875 8.121094 C 123.042969 8.542969 122.664062 9.003906 122.328125 9.503906 C 121.996094 10.003906 121.710938 10.53125 121.480469 11.085938 C 121.253906 11.640625 121.078125 12.210938 120.960938 12.800781 C 120.84375 13.390625 120.785156 13.984375 120.785156 14.585938 C 120.78125 15.179688 120.835938 15.773438 120.949219 16.359375 C 121.066406 16.945312 121.234375 17.511719 121.460938 18.066406 C 121.6875 18.617188 121.964844 19.140625 122.292969 19.640625 C 122.621094 20.136719 122.996094 20.597656 123.414062 21.023438 C 123.835938 21.445312 124.292969 21.824219 124.789062 22.160156 C 125.28125 22.492188 125.804688 22.773438 126.355469 23.003906 C 126.90625 23.238281 127.472656 23.410156 128.058594 23.53125 C 128.640625 23.648438 129.230469 23.710938 129.828125 23.714844 Z M 129.828125 18.109375 C 129.367188 18.085938 128.925781 17.976562 128.507812 17.78125 C 128.089844 17.585938 127.722656 17.320312 127.410156 16.980469 C 127.09375 16.640625 126.859375 16.253906 126.695312 15.820312 C 126.535156 15.386719 126.460938 14.9375 126.476562 14.476562 C 126.492188 14.015625 126.59375 13.574219 126.78125 13.148438 C 126.96875 12.726562 127.230469 12.359375 127.566406 12.039062 C 127.902344 11.71875 128.28125 11.476562 128.714844 11.308594 C 129.144531 11.136719 129.589844 11.058594 130.050781 11.066406 C 130.515625 11.070312 130.957031 11.167969 131.382812 11.347656 C 131.808594 11.53125 132.183594 11.785156 132.507812 12.113281 C 132.832031 12.441406 133.082031 12.820312 133.257812 13.25 C 133.433594 13.675781 133.523438 14.121094 133.523438 14.585938 C 133.53125 14.828125 133.515625 15.070312 133.476562 15.3125 C 133.433594 15.550781 133.367188 15.785156 133.277344 16.011719 C 133.1875 16.238281 133.074219 16.457031 132.941406 16.660156 C 132.804688 16.863281 132.652344 17.050781 132.480469 17.222656 C 132.304688 17.394531 132.117188 17.546875 131.910156 17.679688 C 131.707031 17.8125 131.488281 17.921875 131.261719 18.007812 C 131.03125 18.09375 130.796875 18.15625 130.554688 18.195312 C 130.316406 18.234375 130.074219 18.25 129.828125 18.234375 Z M 129.828125 18.109375 " fill-opacity="1" fill-rule="nonzero"/><path fill="#4379ee" d="M 104.394531 23.714844 C 104.996094 23.714844 105.589844 23.660156 106.179688 23.546875 C 106.765625 23.433594 107.339844 23.261719 107.894531 23.035156 C 108.449219 22.804688 108.976562 22.527344 109.476562 22.195312 C 109.976562 21.863281 110.441406 21.488281 110.867188 21.066406 C 111.292969 20.640625 111.671875 20.183594 112.007812 19.683594 C 112.34375 19.1875 112.628906 18.660156 112.859375 18.109375 C 113.089844 17.554688 113.265625 16.984375 113.386719 16.394531 C 113.503906 15.808594 113.5625 15.210938 113.566406 14.613281 C 113.566406 14.011719 113.511719 13.417969 113.394531 12.828125 C 113.28125 12.242188 113.109375 11.667969 112.878906 11.113281 C 112.652344 10.558594 112.371094 10.03125 112.039062 9.53125 C 111.707031 9.03125 111.332031 8.570312 110.90625 8.144531 C 110.484375 7.71875 110.023438 7.339844 109.523438 7.003906 C 109.027344 6.671875 108.5 6.386719 107.945312 6.15625 C 107.394531 5.925781 106.820312 5.75 106.234375 5.632812 C 105.644531 5.515625 105.050781 5.457031 104.449219 5.457031 C 103.851562 5.453125 103.257812 5.511719 102.667969 5.628906 C 102.078125 5.746094 101.507812 5.917969 100.953125 6.144531 C 100.398438 6.375 99.871094 6.65625 99.371094 6.988281 C 98.875 7.320312 98.410156 7.699219 97.988281 8.125 C 97.5625 8.546875 97.183594 9.007812 96.847656 9.507812 C 96.515625 10.007812 96.234375 10.535156 96.003906 11.085938 C 95.773438 11.640625 95.601562 12.214844 95.484375 12.800781 C 95.367188 13.390625 95.308594 13.984375 95.308594 14.585938 C 95.304688 15.183594 95.359375 15.777344 95.476562 16.363281 C 95.589844 16.949219 95.761719 17.519531 95.988281 18.074219 C 96.214844 18.628906 96.492188 19.15625 96.824219 19.652344 C 97.15625 20.152344 97.53125 20.613281 97.953125 21.039062 C 98.375 21.460938 98.835938 21.839844 99.332031 22.171875 C 99.828125 22.507812 100.355469 22.789062 100.90625 23.019531 C 101.460938 23.246094 102.03125 23.421875 102.617188 23.539062 C 103.203125 23.65625 103.796875 23.714844 104.394531 23.714844 Z M 104.394531 10.976562 C 104.863281 10.976562 105.3125 11.066406 105.746094 11.246094 C 106.179688 11.425781 106.5625 11.679688 106.890625 12.011719 C 107.222656 12.34375 107.476562 12.726562 107.65625 13.160156 C 107.832031 13.59375 107.921875 14.046875 107.917969 14.515625 C 107.917969 14.980469 107.824219 15.433594 107.644531 15.863281 C 107.460938 16.296875 107.203125 16.675781 106.871094 17.007812 C 106.539062 17.335938 106.152344 17.589844 105.71875 17.765625 C 105.285156 17.941406 104.835938 18.027344 104.367188 18.023438 C 103.898438 18.019531 103.449219 17.925781 103.015625 17.742188 C 102.585938 17.558594 102.207031 17.300781 101.878906 16.964844 C 101.550781 16.632812 101.296875 16.246094 101.125 15.8125 C 100.949219 15.378906 100.863281 14.925781 100.871094 14.457031 C 100.886719 14.003906 100.988281 13.570312 101.175781 13.152344 C 101.363281 12.738281 101.621094 12.375 101.949219 12.0625 C 102.277344 11.75 102.65625 11.507812 103.078125 11.34375 C 103.5 11.175781 103.941406 11.097656 104.394531 11.101562 Z M 104.394531 10.976562 " fill-opacity="1" fill-rule="nonzero"/><path fill="#4379ee" d="M 161.589844 48.765625 L 99.9375 48.765625 C 99.5625 48.765625 99.207031 48.835938 98.863281 48.980469 C 98.519531 49.121094 98.21875 49.324219 97.953125 49.585938 C 97.691406 49.847656 97.488281 50.152344 97.347656 50.496094 C 97.203125 50.839844 97.132812 51.195312 97.132812 51.570312 L 97.132812 62.140625 C 97.132812 62.511719 97.203125 62.871094 97.347656 63.214844 C 97.488281 63.558594 97.691406 63.859375 97.953125 64.121094 C 98.21875 64.386719 98.519531 64.589844 98.863281 64.730469 C 99.207031 64.871094 99.5625 64.945312 99.9375 64.945312 C 100.308594 64.945312 100.664062 64.871094 101.007812 64.730469 C 101.351562 64.589844 101.65625 64.386719 101.917969 64.121094 C 102.179688 63.859375 102.382812 63.558594 102.523438 63.214844 C 102.667969 62.871094 102.738281 62.511719 102.738281 62.140625 L 102.738281 54.371094 L 159 54.371094 L 159 94.667969 L 126.6875 94.667969 C 126.488281 94.640625 126.292969 94.640625 126.09375 94.65625 C 125.898438 94.675781 125.703125 94.710938 125.511719 94.769531 C 125.324219 94.828125 125.140625 94.90625 124.96875 95.003906 C 124.796875 95.101562 124.636719 95.214844 124.488281 95.347656 C 124.335938 95.480469 124.203125 95.625 124.085938 95.785156 C 123.96875 95.945312 123.867188 96.117188 123.789062 96.296875 C 123.707031 96.476562 123.644531 96.664062 123.601562 96.859375 C 123.5625 97.054688 123.539062 97.25 123.539062 97.449219 C 123.539062 97.648438 123.5625 97.84375 123.601562 98.035156 C 123.644531 98.230469 123.707031 98.417969 123.789062 98.601562 C 123.867188 98.78125 123.96875 98.949219 124.085938 99.109375 C 124.203125 99.269531 124.335938 99.417969 124.488281 99.546875 C 124.636719 99.679688 124.796875 99.792969 124.96875 99.890625 C 125.140625 99.988281 125.324219 100.066406 125.511719 100.125 C 125.703125 100.183594 125.898438 100.222656 126.09375 100.238281 C 126.292969 100.257812 126.488281 100.253906 126.6875 100.230469 L 161.589844 100.230469 C 161.960938 100.230469 162.320312 100.15625 162.664062 100.015625 C 163.007812 99.875 163.308594 99.671875 163.570312 99.410156 C 163.835938 99.144531 164.035156 98.84375 164.179688 98.5 C 164.320312 98.15625 164.390625 97.796875 164.390625 97.425781 L 164.390625 51.570312 C 164.386719 51.199219 164.3125 50.84375 164.167969 50.503906 C 164.023438 50.160156 163.820312 49.859375 163.558594 49.597656 C 163.296875 49.335938 162.996094 49.132812 162.65625 48.992188 C 162.316406 48.847656 161.960938 48.769531 161.589844 48.765625 Z M 161.589844 48.765625 " fill-opacity="1" fill-rule="nonzero"/><path fill="#4379ee" d="M 73.566406 83.5 C 72.492188 83.5 71.417969 83.550781 70.347656 83.65625 C 69.273438 83.761719 68.210938 83.921875 67.15625 84.132812 C 66.101562 84.339844 65.058594 84.601562 64.027344 84.914062 C 62.996094 85.226562 61.984375 85.589844 60.992188 86 C 59.996094 86.414062 59.023438 86.871094 58.074219 87.378906 C 57.125 87.886719 56.203125 88.441406 55.308594 89.039062 C 54.414062 89.636719 53.550781 90.277344 52.71875 90.960938 C 51.886719 91.640625 51.089844 92.363281 50.328125 93.125 C 49.566406 93.886719 48.84375 94.683594 48.164062 95.515625 C 47.480469 96.347656 46.839844 97.210938 46.242188 98.105469 C 45.644531 99 45.089844 99.921875 44.582031 100.871094 C 44.074219 101.820312 43.617188 102.792969 43.203125 103.789062 C 42.792969 104.78125 42.429688 105.792969 42.117188 106.824219 C 41.804688 107.855469 41.542969 108.898438 41.332031 109.953125 C 41.125 111.007812 40.964844 112.070312 40.859375 113.144531 C 40.753906 114.214844 40.703125 115.289062 40.703125 116.363281 C 40.703125 117.441406 40.753906 118.515625 40.859375 119.585938 C 40.964844 120.65625 41.125 121.71875 41.332031 122.777344 C 41.542969 123.832031 41.804688 124.875 42.117188 125.90625 C 42.429688 126.933594 42.792969 127.945312 43.203125 128.941406 C 43.617188 129.9375 44.074219 130.90625 44.582031 131.855469 C 45.089844 132.804688 45.644531 133.730469 46.242188 134.625 C 46.839844 135.519531 47.480469 136.382812 48.164062 137.214844 C 48.84375 138.046875 49.566406 138.84375 50.328125 139.605469 C 51.089844 140.363281 51.886719 141.085938 52.71875 141.769531 C 53.550781 142.453125 54.414062 143.09375 55.308594 143.691406 C 56.203125 144.289062 57.125 144.839844 58.074219 145.347656 C 59.023438 145.855469 59.996094 146.316406 60.992188 146.726562 C 61.984375 147.140625 62.996094 147.503906 64.027344 147.816406 C 65.058594 148.128906 66.101562 148.386719 67.15625 148.597656 C 68.210938 148.808594 69.273438 148.964844 70.347656 149.070312 C 71.417969 149.175781 72.492188 149.230469 73.566406 149.230469 C 74.644531 149.230469 75.71875 149.175781 76.789062 149.070312 C 77.859375 148.964844 78.921875 148.808594 79.980469 148.597656 C 81.035156 148.386719 82.078125 148.128906 83.109375 147.816406 C 84.136719 147.503906 85.148438 147.140625 86.144531 146.726562 C 87.140625 146.316406 88.109375 145.855469 89.058594 145.347656 C 90.007812 144.84375 90.929688 144.289062 91.828125 143.691406 C 92.722656 143.09375 93.585938 142.453125 94.417969 141.769531 C 95.25 141.085938 96.046875 140.363281 96.804688 139.605469 C 97.566406 138.84375 98.289062 138.046875 98.972656 137.214844 C 99.65625 136.382812 100.296875 135.519531 100.894531 134.625 C 101.492188 133.730469 102.042969 132.804688 102.550781 131.855469 C 103.058594 130.90625 103.519531 129.9375 103.929688 128.941406 C 104.34375 127.945312 104.703125 126.933594 105.015625 125.90625 C 105.328125 124.875 105.589844 123.832031 105.800781 122.777344 C 106.011719 121.71875 106.167969 120.65625 106.273438 119.585938 C 106.378906 118.515625 106.433594 117.441406 106.433594 116.363281 C 106.429688 115.289062 106.378906 114.214844 106.269531 113.144531 C 106.164062 112.074219 106.003906 111.011719 105.792969 109.957031 C 105.582031 108.902344 105.320312 107.859375 105.007812 106.828125 C 104.695312 105.800781 104.332031 104.789062 103.917969 103.792969 C 103.507812 102.800781 103.046875 101.828125 102.539062 100.878906 C 102.03125 99.933594 101.480469 99.011719 100.878906 98.117188 C 100.28125 97.222656 99.640625 96.359375 98.960938 95.527344 C 98.277344 94.695312 97.554688 93.898438 96.792969 93.136719 C 96.035156 92.378906 95.238281 91.65625 94.40625 90.972656 C 93.574219 90.289062 92.710938 89.648438 91.816406 89.050781 C 90.921875 88.453125 90 87.898438 89.050781 87.394531 C 88.101562 86.886719 87.132812 86.425781 86.136719 86.011719 C 85.144531 85.601562 84.132812 85.238281 83.101562 84.925781 C 82.074219 84.609375 81.03125 84.347656 79.976562 84.136719 C 78.921875 83.925781 77.859375 83.769531 76.789062 83.660156 C 75.714844 83.554688 74.644531 83.5 73.566406 83.5 Z M 46.308594 116.363281 C 46.304688 115.46875 46.347656 114.578125 46.433594 113.6875 C 46.519531 112.796875 46.652344 111.910156 46.824219 111.035156 C 46.996094 110.15625 47.214844 109.289062 47.472656 108.433594 C 47.730469 107.574219 48.03125 106.734375 48.371094 105.90625 C 48.714844 105.078125 49.09375 104.269531 49.515625 103.480469 C 49.9375 102.691406 50.394531 101.925781 50.890625 101.179688 C 51.386719 100.4375 51.917969 99.71875 52.484375 99.023438 C 53.050781 98.332031 53.652344 97.667969 54.285156 97.035156 C 54.914062 96.402344 55.578125 95.800781 56.269531 95.234375 C 56.960938 94.664062 57.675781 94.132812 58.421875 93.632812 C 59.164062 93.136719 59.929688 92.675781 60.71875 92.253906 C 61.507812 91.832031 62.316406 91.449219 63.140625 91.105469 C 63.96875 90.761719 64.808594 90.460938 65.664062 90.199219 C 66.523438 89.941406 67.386719 89.722656 68.265625 89.546875 C 69.144531 89.371094 70.027344 89.242188 70.917969 89.152344 C 71.808594 89.0625 72.699219 89.019531 73.59375 89.019531 C 74.492188 89.019531 75.382812 89.0625 76.273438 89.148438 C 77.164062 89.238281 78.046875 89.367188 78.925781 89.542969 C 79.804688 89.714844 80.671875 89.933594 81.527344 90.191406 C 82.382812 90.453125 83.226562 90.753906 84.050781 91.09375 C 84.878906 91.4375 85.6875 91.820312 86.476562 92.242188 C 87.265625 92.664062 88.03125 93.121094 88.777344 93.617188 C 89.519531 94.117188 90.238281 94.648438 90.929688 95.214844 C 91.621094 95.785156 92.28125 96.382812 92.914062 97.015625 C 93.546875 97.648438 94.148438 98.3125 94.714844 99.003906 C 95.285156 99.695312 95.816406 100.414062 96.3125 101.15625 C 96.808594 101.902344 97.269531 102.667969 97.691406 103.457031 C 98.113281 104.246094 98.496094 105.054688 98.835938 105.878906 C 99.179688 106.707031 99.480469 107.546875 99.738281 108.40625 C 100 109.261719 100.214844 110.128906 100.390625 111.007812 C 100.5625 111.882812 100.695312 112.769531 100.78125 113.660156 C 100.871094 114.550781 100.914062 115.441406 100.914062 116.335938 C 100.910156 117.230469 100.867188 118.125 100.78125 119.015625 C 100.691406 119.90625 100.558594 120.789062 100.382812 121.667969 C 100.210938 122.542969 99.992188 123.410156 99.730469 124.265625 C 99.472656 125.121094 99.167969 125.964844 98.824219 126.789062 C 98.484375 127.617188 98.101562 128.425781 97.679688 129.214844 C 97.253906 130 96.796875 130.769531 96.296875 131.511719 C 95.800781 132.253906 95.265625 132.972656 94.699219 133.664062 C 94.128906 134.355469 93.527344 135.015625 92.894531 135.648438 C 92.261719 136.28125 91.597656 136.878906 90.90625 137.445312 C 90.214844 138.011719 89.496094 138.546875 88.75 139.042969 C 88.007812 139.539062 87.242188 139.996094 86.449219 140.417969 C 85.660156 140.835938 84.851562 141.21875 84.027344 141.558594 C 83.199219 141.902344 82.355469 142.203125 81.5 142.460938 C 80.644531 142.71875 79.777344 142.933594 78.898438 143.109375 C 78.019531 143.28125 77.136719 143.410156 76.246094 143.496094 C 75.355469 143.582031 74.460938 143.625 73.566406 143.625 C 72.675781 143.625 71.785156 143.578125 70.898438 143.488281 C 70.007812 143.402344 69.128906 143.269531 68.253906 143.09375 C 67.378906 142.917969 66.511719 142.703125 65.660156 142.441406 C 64.804688 142.183594 63.964844 141.878906 63.140625 141.539062 C 62.316406 141.195312 61.511719 140.816406 60.726562 140.394531 C 59.9375 139.972656 59.175781 139.515625 58.433594 139.019531 C 57.691406 138.523438 56.976562 137.992188 56.285156 137.425781 C 55.59375 136.859375 54.933594 136.257812 54.304688 135.628906 C 53.671875 134.996094 53.074219 134.335938 52.507812 133.648438 C 51.941406 132.957031 51.410156 132.242188 50.914062 131.5 C 50.417969 130.757812 49.960938 129.992188 49.539062 129.207031 C 49.117188 128.417969 48.734375 127.613281 48.394531 126.789062 C 48.050781 125.964844 47.75 125.125 47.492188 124.273438 C 47.230469 123.417969 47.011719 122.554688 46.839844 121.679688 C 46.664062 120.804688 46.53125 119.921875 46.441406 119.035156 C 46.351562 118.148438 46.308594 117.257812 46.308594 116.363281 Z M 46.308594 116.363281 " fill-opacity="1" fill-rule="nonzero"/><g clip-path="url(#8abd6b6eef)"><path fill="#4379ee" d="M 129.742188 104.601562 L 122.269531 104.601562 C 121.457031 104.589844 120.667969 104.457031 119.894531 104.207031 C 119.121094 103.957031 118.402344 103.597656 117.734375 103.132812 C 117.070312 102.667969 116.488281 102.117188 115.984375 101.476562 C 115.484375 100.835938 115.089844 100.136719 114.796875 99.378906 C 114.5 98.628906 114.316406 97.847656 114.242188 97.042969 C 114.167969 96.238281 114.207031 95.441406 114.363281 94.648438 C 114.515625 93.851562 114.777344 93.097656 115.148438 92.378906 C 115.519531 91.660156 115.980469 91.007812 116.539062 90.421875 L 121.804688 85.199219 C 122.332031 84.636719 122.601562 83.972656 122.609375 83.203125 C 122.605469 82.441406 122.335938 81.789062 121.804688 81.25 L 109.066406 68.511719 C 108.535156 67.945312 107.886719 67.660156 107.113281 67.660156 C 106.328125 67.671875 105.664062 67.953125 105.117188 68.511719 L 99.554688 73.4375 C 98.808594 74.171875 97.949219 74.734375 96.976562 75.125 C 96.003906 75.515625 94.996094 75.703125 93.949219 75.6875 C 92.769531 75.6875 91.640625 75.460938 90.550781 75.007812 C 89.78125 74.722656 89.066406 74.328125 88.414062 73.828125 C 87.761719 73.328125 87.195312 72.742188 86.71875 72.074219 C 86.242188 71.402344 85.875 70.679688 85.617188 69.898438 C 85.355469 69.117188 85.21875 68.3125 85.203125 67.492188 L 85.203125 60.1875 C 85.203125 59.816406 85.128906 59.457031 84.988281 59.117188 C 84.847656 58.773438 84.644531 58.46875 84.382812 58.207031 C 84.117188 57.945312 83.816406 57.742188 83.472656 57.597656 C 83.128906 57.457031 82.769531 57.386719 82.398438 57.386719 L 64.609375 57.386719 C 64.238281 57.390625 63.882812 57.464844 63.542969 57.609375 C 63.203125 57.753906 62.898438 57.957031 62.636719 58.21875 C 62.375 58.480469 62.175781 58.78125 62.03125 59.121094 C 61.886719 59.460938 61.8125 59.816406 61.804688 60.1875 L 61.804688 67.660156 C 61.789062 68.46875 61.660156 69.261719 61.410156 70.03125 C 61.164062 70.800781 60.808594 71.515625 60.347656 72.183594 C 59.886719 72.847656 59.339844 73.429688 58.703125 73.933594 C 58.070312 74.4375 57.378906 74.835938 56.625 75.132812 C 55.480469 75.597656 54.292969 75.839844 53.058594 75.855469 C 52 75.839844 50.988281 75.621094 50.015625 75.199219 C 49.046875 74.78125 48.191406 74.191406 47.453125 73.4375 L 42.1875 68.339844 C 41.933594 68.070312 41.632812 67.859375 41.289062 67.710938 C 40.945312 67.5625 40.585938 67.492188 40.214844 67.492188 C 39.839844 67.492188 39.480469 67.5625 39.140625 67.710938 C 38.796875 67.859375 38.496094 68.070312 38.238281 68.339844 L 25.5 81.078125 C 25.246094 81.34375 25.046875 81.648438 24.910156 81.988281 C 24.773438 82.332031 24.703125 82.683594 24.703125 83.054688 C 24.703125 83.421875 24.773438 83.777344 24.910156 84.117188 C 25.046875 84.460938 25.246094 84.761719 25.5 85.027344 L 30.808594 90.421875 C 31.371094 91.007812 31.839844 91.664062 32.210938 92.386719 C 32.578125 93.113281 32.835938 93.875 32.980469 94.675781 C 33.121094 95.476562 33.148438 96.28125 33.050781 97.089844 C 32.957031 97.898438 32.746094 98.675781 32.421875 99.421875 C 32.121094 100.191406 31.71875 100.898438 31.210938 101.550781 C 30.707031 102.199219 30.117188 102.765625 29.445312 103.242188 C 28.773438 103.722656 28.050781 104.09375 27.269531 104.363281 C 26.488281 104.628906 25.6875 104.78125 24.863281 104.816406 L 17.433594 104.816406 C 17.078125 104.808594 16.734375 104.871094 16.402344 104.996094 C 16.070312 105.121094 15.773438 105.304688 15.511719 105.546875 C 15.25 105.789062 15.042969 106.070312 14.890625 106.390625 C 14.738281 106.710938 14.652344 107.050781 14.628906 107.40625 L 14.628906 125.367188 C 14.628906 125.738281 14.703125 126.09375 14.84375 126.4375 C 14.988281 126.78125 15.1875 127.085938 15.453125 127.347656 C 15.714844 127.609375 16.015625 127.8125 16.359375 127.957031 C 16.703125 128.097656 17.0625 128.167969 17.433594 128.167969 L 24.863281 128.167969 C 25.671875 128.183594 26.457031 128.3125 27.226562 128.554688 C 27.996094 128.800781 28.710938 129.152344 29.375 129.609375 C 30.039062 130.066406 30.625 130.609375 31.128906 131.238281 C 31.632812 131.871094 32.035156 132.558594 32.335938 133.308594 C 32.6875 134.058594 32.917969 134.847656 33.027344 135.667969 C 33.140625 136.492188 33.128906 137.3125 32.992188 138.128906 C 32.855469 138.945312 32.601562 139.726562 32.226562 140.46875 C 31.855469 141.210938 31.382812 141.878906 30.808594 142.476562 L 25.542969 147.742188 C 25.289062 148.007812 25.089844 148.3125 24.953125 148.652344 C 24.816406 148.996094 24.746094 149.351562 24.746094 149.71875 C 24.746094 150.085938 24.816406 150.441406 24.953125 150.78125 C 25.089844 151.125 25.289062 151.425781 25.542969 151.691406 L 38.28125 164.429688 C 38.542969 164.691406 38.847656 164.890625 39.1875 165.035156 C 39.53125 165.175781 39.886719 165.246094 40.257812 165.246094 C 40.625 165.246094 40.980469 165.175781 41.324219 165.035156 C 41.667969 164.890625 41.96875 164.691406 42.230469 164.429688 L 47.496094 159.164062 C 48.242188 158.429688 49.101562 157.859375 50.070312 157.464844 C 51.042969 157.066406 52.050781 156.871094 53.101562 156.871094 C 54.28125 156.863281 55.414062 157.089844 56.496094 157.550781 C 57.261719 157.855469 57.964844 158.261719 58.613281 158.769531 C 59.257812 159.277344 59.820312 159.867188 60.292969 160.539062 C 60.769531 161.207031 61.136719 161.933594 61.402344 162.710938 C 61.667969 163.488281 61.816406 164.289062 61.847656 165.109375 L 61.847656 172.542969 C 61.851562 172.910156 61.929688 173.265625 62.074219 173.605469 C 62.214844 173.949219 62.417969 174.25 62.679688 174.511719 C 62.941406 174.773438 63.242188 174.976562 63.585938 175.121094 C 63.925781 175.261719 64.28125 175.339844 64.652344 175.34375 L 82.570312 175.34375 C 82.941406 175.34375 83.296875 175.273438 83.640625 175.128906 C 83.984375 174.988281 84.289062 174.785156 84.550781 174.523438 C 84.8125 174.261719 85.015625 173.957031 85.160156 173.613281 C 85.300781 173.269531 85.371094 172.914062 85.371094 172.542969 L 85.371094 165.066406 C 85.386719 164.257812 85.515625 163.464844 85.765625 162.691406 C 86.019531 161.917969 86.375 161.199219 86.839844 160.53125 C 87.304688 159.867188 87.859375 159.285156 88.496094 158.785156 C 89.136719 158.28125 89.835938 157.886719 90.59375 157.59375 C 91.730469 157.09375 92.917969 156.839844 94.160156 156.832031 C 95.207031 156.820312 96.210938 157.011719 97.175781 157.410156 C 98.140625 157.808594 98.992188 158.378906 99.722656 159.125 L 104.988281 164.386719 C 105.542969 164.933594 106.207031 165.203125 106.984375 165.195312 C 107.753906 165.210938 108.40625 164.941406 108.9375 164.386719 L 121.675781 151.648438 C 121.941406 151.390625 122.148438 151.089844 122.292969 150.746094 C 122.4375 150.40625 122.507812 150.046875 122.507812 149.675781 C 122.507812 149.304688 122.4375 148.945312 122.292969 148.605469 C 122.148438 148.261719 121.941406 147.960938 121.675781 147.703125 L 116.539062 142.476562 C 115.96875 141.894531 115.5 141.238281 115.128906 140.511719 C 114.761719 139.789062 114.503906 139.023438 114.363281 138.21875 C 114.222656 137.417969 114.207031 136.613281 114.308594 135.804688 C 114.410156 134.996094 114.628906 134.21875 114.96875 133.476562 C 115.253906 132.703125 115.644531 131.992188 116.144531 131.339844 C 116.644531 130.6875 117.230469 130.121094 117.902344 129.644531 C 118.570312 129.167969 119.296875 128.796875 120.078125 128.539062 C 120.859375 128.28125 121.660156 128.144531 122.484375 128.125 L 129.957031 128.125 C 130.324219 128.121094 130.675781 128.046875 131.015625 127.902344 C 131.355469 127.757812 131.652344 127.554688 131.910156 127.289062 C 132.167969 127.027344 132.367188 126.726562 132.507812 126.386719 C 132.648438 126.046875 132.714844 125.691406 132.714844 125.324219 L 132.714844 107.40625 C 132.722656 107.015625 132.652344 106.644531 132.5 106.285156 C 132.351562 105.925781 132.132812 105.613281 131.851562 105.347656 C 131.566406 105.078125 131.242188 104.882812 130.875 104.753906 C 130.507812 104.621094 130.132812 104.574219 129.742188 104.601562 Z M 103.800781 155.175781 C 102.539062 153.902344 101.078125 152.921875 99.421875 152.238281 C 97.765625 151.550781 96.039062 151.214844 94.246094 151.226562 C 92.328125 151.234375 90.488281 151.617188 88.726562 152.371094 C 88.085938 152.621094 87.46875 152.914062 86.871094 153.253906 C 86.277344 153.59375 85.710938 153.976562 85.171875 154.402344 C 84.632812 154.828125 84.128906 155.289062 83.660156 155.789062 C 83.191406 156.289062 82.761719 156.824219 82.371094 157.386719 C 81.980469 157.953125 81.636719 158.542969 81.332031 159.160156 C 81.03125 159.777344 80.777344 160.410156 80.574219 161.066406 C 80.367188 161.71875 80.210938 162.386719 80.101562 163.066406 C 79.996094 163.742188 79.941406 164.425781 79.9375 165.109375 L 79.9375 169.738281 L 67.410156 169.738281 L 67.410156 165.066406 C 67.417969 163.703125 67.222656 162.371094 66.832031 161.0625 C 66.4375 159.757812 65.863281 158.539062 65.105469 157.402344 C 64.351562 156.269531 63.445312 155.269531 62.390625 154.40625 C 61.335938 153.539062 60.179688 152.847656 58.917969 152.328125 C 57.097656 151.578125 55.199219 151.195312 53.226562 151.183594 C 51.4375 151.167969 49.714844 151.5 48.058594 152.175781 C 46.402344 152.855469 44.941406 153.824219 43.675781 155.089844 L 40.109375 158.359375 L 31.617188 149.867188 L 34.886719 146.597656 C 35.363281 146.113281 35.800781 145.59375 36.199219 145.042969 C 36.601562 144.492188 36.957031 143.914062 37.273438 143.308594 C 37.585938 142.703125 37.855469 142.082031 38.074219 141.4375 C 38.296875 140.792969 38.46875 140.136719 38.59375 139.46875 C 38.71875 138.796875 38.792969 138.121094 38.816406 137.441406 C 38.839844 136.761719 38.8125 136.082031 38.738281 135.40625 C 38.660156 134.730469 38.535156 134.0625 38.359375 133.40625 C 38.183594 132.746094 37.957031 132.105469 37.6875 131.480469 C 37.441406 130.839844 37.144531 130.222656 36.804688 129.628906 C 36.464844 129.03125 36.082031 128.464844 35.65625 127.925781 C 35.234375 127.386719 34.769531 126.882812 34.269531 126.414062 C 33.769531 125.945312 33.234375 125.515625 32.671875 125.125 C 32.105469 124.734375 31.515625 124.390625 30.898438 124.089844 C 30.28125 123.789062 29.648438 123.535156 28.992188 123.328125 C 28.339844 123.121094 27.671875 122.964844 26.996094 122.859375 C 26.316406 122.75 25.636719 122.695312 24.949219 122.691406 L 20.234375 122.691406 L 20.234375 110.164062 L 24.863281 110.164062 C 26.238281 110.132812 27.578125 109.902344 28.886719 109.480469 C 30.195312 109.054688 31.417969 108.453125 32.550781 107.675781 C 33.683594 106.898438 34.683594 105.972656 35.546875 104.90625 C 36.410156 103.835938 37.105469 102.664062 37.628906 101.394531 C 38.152344 100.125 38.484375 98.804688 38.625 97.4375 C 38.765625 96.066406 38.710938 94.707031 38.453125 93.359375 C 38.199219 92.007812 37.757812 90.71875 37.128906 89.496094 C 36.5 88.273438 35.707031 87.167969 34.757812 86.175781 L 31.617188 82.988281 L 40.109375 74.242188 L 43.503906 77.683594 C 44.777344 78.9375 46.238281 79.90625 47.894531 80.582031 C 49.550781 81.257812 51.269531 81.59375 53.058594 81.589844 C 54.984375 81.574219 56.835938 81.207031 58.621094 80.484375 C 59.257812 80.234375 59.875 79.9375 60.46875 79.597656 C 61.0625 79.253906 61.628906 78.871094 62.167969 78.445312 C 62.703125 78.019531 63.207031 77.554688 63.675781 77.054688 C 64.144531 76.554688 64.574219 76.023438 64.960938 75.457031 C 65.351562 74.894531 65.695312 74.304688 66 73.6875 C 66.300781 73.074219 66.554688 72.4375 66.761719 71.785156 C 66.96875 71.132812 67.128906 70.464844 67.238281 69.789062 C 67.34375 69.113281 67.402344 68.433594 67.410156 67.746094 L 67.410156 63.074219 L 79.765625 63.074219 L 79.765625 67.746094 C 79.765625 69.109375 79.960938 70.441406 80.351562 71.746094 C 80.746094 73.050781 81.320312 74.273438 82.078125 75.40625 C 82.832031 76.539062 83.738281 77.539062 84.789062 78.40625 C 85.84375 79.269531 87 79.964844 88.257812 80.484375 C 90.085938 81.277344 92 81.671875 93.992188 81.671875 C 95.832031 81.710938 97.601562 81.382812 99.308594 80.691406 C 101.011719 79.996094 102.507812 78.992188 103.800781 77.683594 L 107.113281 74.371094 L 115.859375 83.117188 L 112.292969 86.175781 C 111.355469 87.167969 110.578125 88.277344 109.960938 89.496094 C 109.339844 90.714844 108.910156 91.996094 108.660156 93.339844 C 108.414062 94.683594 108.363281 96.035156 108.507812 97.394531 C 108.648438 98.753906 108.984375 100.066406 109.507812 101.328125 C 110.027344 102.589844 110.71875 103.753906 111.578125 104.816406 C 112.4375 105.878906 113.429688 106.800781 114.554688 107.574219 C 115.679688 108.351562 116.890625 108.953125 118.1875 109.378906 C 119.488281 109.804688 120.820312 110.039062 122.1875 110.082031 L 126.855469 110.082031 L 126.855469 122.4375 L 122.1875 122.4375 C 120.824219 122.429688 119.488281 122.625 118.183594 123.015625 C 116.875 123.410156 115.65625 123.984375 114.519531 124.738281 C 113.386719 125.496094 112.386719 126.402344 111.523438 127.457031 C 110.660156 128.511719 109.964844 129.667969 109.449219 130.929688 C 109.15625 131.566406 108.914062 132.222656 108.726562 132.894531 C 108.535156 133.570312 108.394531 134.253906 108.308594 134.949219 C 108.222656 135.644531 108.191406 136.34375 108.210938 137.042969 C 108.230469 137.742188 108.304688 138.4375 108.429688 139.125 C 108.558594 139.816406 108.734375 140.488281 108.964844 141.152344 C 109.195312 141.8125 109.472656 142.453125 109.800781 143.074219 C 110.128906 143.691406 110.5 144.28125 110.917969 144.84375 C 111.335938 145.40625 111.792969 145.933594 112.292969 146.425781 L 115.605469 149.695312 L 106.941406 158.359375 Z M 103.800781 155.175781 " fill-opacity="1" fill-rule="nonzero"/></g><path fill="#4379ee" d="M 161.589844 30.972656 L 38.453125 30.972656 C 38.078125 30.972656 37.722656 31.046875 37.378906 31.1875 C 37.035156 31.332031 36.734375 31.53125 36.46875 31.796875 C 36.207031 32.058594 36.003906 32.359375 35.863281 32.703125 C 35.71875 33.046875 35.648438 33.40625 35.648438 33.777344 C 35.648438 34.148438 35.71875 34.507812 35.863281 34.847656 C 36.003906 35.191406 36.207031 35.496094 36.46875 35.757812 C 36.734375 36.019531 37.035156 36.222656 37.378906 36.367188 C 37.722656 36.507812 38.078125 36.578125 38.453125 36.578125 L 161.589844 36.578125 C 161.960938 36.578125 162.320312 36.507812 162.664062 36.367188 C 163.007812 36.222656 163.308594 36.019531 163.570312 35.757812 C 163.835938 35.496094 164.035156 35.191406 164.179688 34.847656 C 164.320312 34.507812 164.390625 34.148438 164.390625 33.777344 C 164.390625 33.40625 164.320312 33.046875 164.179688 32.703125 C 164.035156 32.359375 163.835938 32.058594 163.570312 31.796875 C 163.308594 31.53125 163.007812 31.332031 162.664062 31.1875 C 162.320312 31.046875 161.960938 30.972656 161.589844 30.972656 Z M 161.589844 30.972656 " fill-opacity="1" fill-rule="nonzero"/><path fill="#4379ee" d="M 155.304688 23.714844 C 155.90625 23.71875 156.5 23.667969 157.09375 23.554688 C 157.683594 23.441406 158.253906 23.273438 158.8125 23.046875 C 159.367188 22.824219 159.898438 22.546875 160.402344 22.214844 C 160.902344 21.886719 161.367188 21.511719 161.796875 21.089844 C 162.222656 20.667969 162.605469 20.210938 162.945312 19.710938 C 163.28125 19.214844 163.566406 18.691406 163.800781 18.136719 C 164.035156 17.582031 164.210938 17.011719 164.332031 16.425781 C 164.453125 15.835938 164.515625 15.242188 164.519531 14.640625 C 164.523438 14.039062 164.46875 13.445312 164.355469 12.855469 C 164.242188 12.265625 164.070312 11.691406 163.84375 11.136719 C 163.617188 10.582031 163.339844 10.050781 163.007812 9.550781 C 162.675781 9.050781 162.300781 8.585938 161.875 8.160156 C 161.453125 7.734375 160.992188 7.351562 160.496094 7.015625 C 159.996094 6.679688 159.472656 6.394531 158.917969 6.164062 C 158.363281 5.933594 157.792969 5.757812 157.203125 5.636719 C 156.613281 5.519531 156.019531 5.457031 155.417969 5.457031 C 154.820312 5.453125 154.222656 5.511719 153.632812 5.625 C 153.042969 5.742188 152.472656 5.914062 151.917969 6.140625 C 151.363281 6.371094 150.832031 6.652344 150.332031 6.984375 C 149.832031 7.316406 149.371094 7.695312 148.945312 8.121094 C 148.519531 8.542969 148.140625 9.003906 147.804688 9.503906 C 147.472656 10.003906 147.191406 10.53125 146.960938 11.085938 C 146.730469 11.640625 146.554688 12.210938 146.4375 12.800781 C 146.320312 13.390625 146.261719 13.984375 146.261719 14.585938 C 146.257812 15.179688 146.3125 15.773438 146.429688 16.359375 C 146.542969 16.945312 146.710938 17.511719 146.9375 18.066406 C 147.164062 18.617188 147.441406 19.140625 147.769531 19.640625 C 148.097656 20.136719 148.472656 20.597656 148.894531 21.023438 C 149.3125 21.445312 149.769531 21.824219 150.265625 22.160156 C 150.757812 22.492188 151.28125 22.773438 151.832031 23.003906 C 152.382812 23.238281 152.949219 23.410156 153.535156 23.53125 C 154.117188 23.648438 154.710938 23.710938 155.304688 23.714844 Z M 155.304688 18.109375 C 154.84375 18.085938 154.402344 17.976562 153.984375 17.78125 C 153.566406 17.585938 153.199219 17.320312 152.886719 16.980469 C 152.574219 16.640625 152.335938 16.253906 152.171875 15.820312 C 152.011719 15.386719 151.9375 14.9375 151.953125 14.476562 C 151.96875 14.015625 152.070312 13.574219 152.257812 13.148438 C 152.445312 12.726562 152.707031 12.359375 153.042969 12.039062 C 153.378906 11.71875 153.761719 11.476562 154.191406 11.308594 C 154.621094 11.136719 155.066406 11.058594 155.53125 11.066406 C 155.992188 11.070312 156.433594 11.167969 156.859375 11.347656 C 157.285156 11.53125 157.660156 11.785156 157.984375 12.113281 C 158.308594 12.441406 158.558594 12.820312 158.734375 13.25 C 158.910156 13.675781 159 14.121094 159 14.585938 C 159.007812 14.828125 158.992188 15.070312 158.953125 15.3125 C 158.910156 15.550781 158.84375 15.785156 158.753906 16.011719 C 158.664062 16.238281 158.554688 16.457031 158.417969 16.660156 C 158.285156 16.863281 158.128906 17.050781 157.957031 17.222656 C 157.78125 17.394531 157.59375 17.546875 157.386719 17.679688 C 157.183594 17.8125 156.964844 17.921875 156.738281 18.007812 C 156.507812 18.09375 156.273438 18.15625 156.035156 18.195312 C 155.792969 18.234375 155.550781 18.25 155.304688 18.234375 Z M 155.304688 18.109375 " fill-opacity="1" fill-rule="nonzero"/><path fill="#4379ee" d="M 56.539062 54.371094 C 56.910156 54.371094 57.269531 54.300781 57.613281 54.15625 C 57.953125 54.015625 58.257812 53.8125 58.519531 53.550781 C 58.78125 53.285156 58.984375 52.984375 59.128906 52.640625 C 59.269531 52.296875 59.339844 51.941406 59.339844 51.570312 C 59.339844 51.195312 59.269531 50.839844 59.128906 50.496094 C 58.984375 50.152344 58.78125 49.851562 58.519531 49.585938 C 58.257812 49.324219 57.953125 49.121094 57.613281 48.980469 C 57.269531 48.835938 56.910156 48.765625 56.539062 48.765625 L 38.28125 48.765625 C 37.910156 48.765625 37.554688 48.835938 37.210938 48.980469 C 36.867188 49.121094 36.566406 49.324219 36.300781 49.585938 C 36.039062 49.851562 35.835938 50.152344 35.695312 50.496094 C 35.554688 50.839844 35.480469 51.195312 35.480469 51.570312 C 35.480469 51.941406 35.554688 52.296875 35.695312 52.640625 C 35.835938 52.984375 36.039062 53.285156 36.300781 53.550781 C 36.566406 53.8125 36.867188 54.015625 37.210938 54.15625 C 37.554688 54.300781 37.910156 54.371094 38.28125 54.371094 Z M 56.539062 54.371094 " fill-opacity="1" fill-rule="nonzero"/></svg>