<svg xmlns="http://www.w3.org/2000/svg" xmlns:xlink="http://www.w3.org/1999/xlink" width="320" zoomAndPan="magnify" viewBox="0 0 240 247.92" height="320" preserveAspectRatio="xMidYMid meet" version="1.0"><defs><clipPath id="4d8d512e84"><path d="M 8.007812 13 L 125 13 L 125 225.800781 L 8.007812 225.800781 Z M 8.007812 13 " clip-rule="nonzero"/></clipPath><clipPath id="847bef1691"><path d="M 174 196 L 208 196 L 208 225.800781 L 174 225.800781 Z M 174 196 " clip-rule="nonzero"/></clipPath><clipPath id="4321e1d66e"><path d="M 76 196 L 110 196 L 110 225.800781 L 76 225.800781 Z M 76 196 " clip-rule="nonzero"/></clipPath></defs><path fill="#20a751" d="M 142.257812 224.742188 C 138.855469 224.738281 135.464844 224.53125 132.085938 224.121094 C 128.707031 223.710938 125.367188 223.097656 122.0625 222.285156 C 118.757812 221.472656 115.511719 220.464844 112.332031 219.257812 C 109.148438 218.054688 106.050781 216.660156 103.035156 215.082031 C 100.019531 213.503906 97.109375 211.75 94.304688 209.820312 C 91.503906 207.890625 88.824219 205.800781 86.273438 203.546875 C 83.722656 201.296875 81.316406 198.898438 79.054688 196.355469 C 76.792969 193.8125 74.691406 191.144531 72.75 188.347656 L 76.863281 185.492188 C 78.6875 188.125 80.664062 190.636719 82.792969 193.027344 C 84.921875 195.417969 87.1875 197.675781 89.585938 199.792969 C 91.988281 201.914062 94.507812 203.878906 97.144531 205.695312 C 99.78125 207.511719 102.519531 209.160156 105.355469 210.648438 C 108.191406 212.132812 111.105469 213.441406 114.101562 214.574219 C 117.097656 215.710938 120.148438 216.660156 123.257812 217.425781 C 126.367188 218.191406 129.507812 218.765625 132.6875 219.152344 C 135.867188 219.539062 139.058594 219.734375 142.257812 219.734375 C 186.125 219.734375 221.8125 184.046875 221.8125 140.183594 C 221.8125 96.316406 186.125 60.628906 142.257812 60.628906 C 117.3125 60.628906 94.289062 71.996094 79.089844 91.816406 L 75.121094 88.769531 C 91.273438 67.707031 115.742188 55.625 142.257812 55.625 C 188.886719 55.625 226.816406 93.558594 226.816406 140.183594 C 226.816406 186.808594 188.886719 224.742188 142.257812 224.742188 Z M 142.257812 224.742188 " fill-opacity="1" fill-rule="nonzero"/><path fill="#20a751" d="M 142.257812 208.054688 C 139.527344 208.050781 136.804688 207.886719 134.09375 207.554688 C 131.378906 207.226562 128.699219 206.734375 126.042969 206.082031 C 123.390625 205.425781 120.789062 204.617188 118.234375 203.648438 C 115.675781 202.683594 113.191406 201.566406 110.769531 200.296875 C 108.347656 199.03125 106.011719 197.621094 103.761719 196.074219 C 101.511719 194.523438 99.363281 192.84375 97.316406 191.035156 C 95.265625 189.226562 93.335938 187.304688 91.519531 185.261719 C 89.703125 183.21875 88.015625 181.078125 86.457031 178.832031 C 86.269531 178.558594 86.140625 178.261719 86.066406 177.9375 C 85.996094 177.613281 85.992188 177.289062 86.050781 176.960938 C 86.109375 176.632812 86.230469 176.332031 86.410156 176.050781 C 86.589844 175.773438 86.8125 175.539062 87.085938 175.347656 C 87.359375 175.160156 87.660156 175.03125 87.984375 174.960938 C 88.308594 174.890625 88.632812 174.882812 88.960938 174.941406 C 89.285156 175 89.589844 175.121094 89.867188 175.300781 C 90.148438 175.480469 90.382812 175.707031 90.570312 175.976562 C 92.011719 178.058594 93.574219 180.042969 95.257812 181.933594 C 96.941406 183.824219 98.730469 185.609375 100.625 187.285156 C 102.523438 188.957031 104.515625 190.511719 106.597656 191.949219 C 108.683594 193.382812 110.847656 194.6875 113.089844 195.863281 C 115.332031 197.035156 117.636719 198.070312 120.003906 198.96875 C 122.371094 199.863281 124.78125 200.613281 127.238281 201.21875 C 129.695312 201.824219 132.179688 202.28125 134.695312 202.585938 C 137.207031 202.890625 139.726562 203.046875 142.257812 203.046875 C 176.925781 203.046875 205.125 174.84375 205.125 140.179688 C 205.125 105.515625 176.925781 77.316406 142.257812 77.316406 C 122.546875 77.316406 104.351562 86.300781 92.332031 101.96875 C 92.128906 102.234375 91.882812 102.449219 91.597656 102.613281 C 91.308594 102.78125 91 102.886719 90.671875 102.929688 C 90.34375 102.972656 90.015625 102.953125 89.695312 102.867188 C 89.375 102.78125 89.082031 102.636719 88.820312 102.433594 C 88.554688 102.234375 88.339844 101.988281 88.175781 101.699219 C 88.007812 101.410156 87.90625 101.101562 87.863281 100.773438 C 87.820312 100.445312 87.839844 100.117188 87.925781 99.796875 C 88.011719 99.476562 88.160156 99.183594 88.359375 98.921875 C 101.332031 82.007812 120.976562 72.308594 142.257812 72.308594 C 179.683594 72.308594 210.128906 102.757812 210.128906 140.179688 C 210.128906 177.605469 179.683594 208.054688 142.257812 208.054688 Z M 142.257812 208.054688 " fill-opacity="1" fill-rule="nonzero"/><g clip-path="url(#4d8d512e84)"><path fill="#20a751" d="M 55.164062 225.609375 C 54.832031 225.609375 54.515625 225.546875 54.207031 225.417969 C 53.898438 225.292969 53.628906 225.113281 53.394531 224.875 C 53.160156 224.640625 52.980469 224.371094 52.851562 224.066406 C 52.726562 223.757812 52.660156 223.4375 52.660156 223.105469 L 52.660156 140.355469 L 10.730469 140.355469 C 10.515625 140.355469 10.300781 140.324219 10.09375 140.269531 C 9.882812 140.214844 9.683594 140.132812 9.496094 140.027344 C 9.304688 139.917969 9.132812 139.789062 8.980469 139.636719 C 8.824219 139.484375 8.691406 139.316406 8.582031 139.128906 C 8.46875 138.945312 8.386719 138.746094 8.324219 138.539062 C 8.265625 138.328125 8.234375 138.117188 8.230469 137.898438 C 8.226562 137.683594 8.25 137.46875 8.300781 137.257812 C 8.351562 137.046875 8.429688 136.847656 8.53125 136.65625 L 74.90625 14.378906 C 75.039062 14.132812 75.210938 13.917969 75.414062 13.730469 C 75.621094 13.539062 75.851562 13.390625 76.105469 13.28125 C 76.359375 13.167969 76.625 13.101562 76.902344 13.078125 C 77.179688 13.054688 77.453125 13.078125 77.722656 13.148438 C 77.992188 13.214844 78.246094 13.324219 78.476562 13.476562 C 78.710938 13.628906 78.914062 13.816406 79.082031 14.035156 C 79.253906 14.253906 79.386719 14.496094 79.476562 14.761719 C 79.566406 15.023438 79.609375 15.292969 79.609375 15.574219 L 79.609375 98.324219 L 121.542969 98.324219 C 121.757812 98.324219 121.972656 98.351562 122.179688 98.410156 C 122.390625 98.464844 122.589844 98.546875 122.777344 98.652344 C 122.96875 98.761719 123.136719 98.890625 123.292969 99.042969 C 123.449219 99.195312 123.582031 99.363281 123.691406 99.550781 C 123.804688 99.734375 123.886719 99.933594 123.949219 100.140625 C 124.007812 100.351562 124.039062 100.5625 124.042969 100.78125 C 124.046875 100.996094 124.023438 101.210938 123.972656 101.421875 C 123.921875 101.632812 123.84375 101.832031 123.742188 102.023438 L 57.363281 224.300781 C 57.144531 224.703125 56.839844 225.023438 56.445312 225.257812 C 56.050781 225.492188 55.625 225.609375 55.164062 225.609375 Z M 14.9375 135.347656 L 55.164062 135.351562 C 55.496094 135.351562 55.816406 135.414062 56.121094 135.539062 C 56.429688 135.667969 56.699219 135.847656 56.933594 136.082031 C 57.167969 136.316406 57.351562 136.589844 57.476562 136.894531 C 57.605469 137.203125 57.667969 137.519531 57.667969 137.851562 L 57.667969 213.25 L 117.332031 103.332031 L 77.109375 103.332031 C 76.777344 103.332031 76.457031 103.269531 76.148438 103.140625 C 75.84375 103.015625 75.574219 102.832031 75.339844 102.597656 C 75.105469 102.363281 74.921875 102.09375 74.796875 101.785156 C 74.667969 101.480469 74.605469 101.160156 74.605469 100.828125 L 74.605469 25.429688 Z M 14.9375 135.347656 " fill-opacity="1" fill-rule="nonzero"/></g><path fill="#20a751" d="M 218.867188 84.890625 C 218.378906 84.890625 217.925781 84.757812 217.511719 84.492188 L 168.804688 53.09375 C 168.527344 52.914062 168.292969 52.6875 168.105469 52.414062 C 167.914062 52.140625 167.785156 51.84375 167.714844 51.519531 C 167.644531 51.195312 167.640625 50.871094 167.699219 50.542969 C 167.757812 50.214844 167.878906 49.914062 168.058594 49.632812 C 168.617188 48.769531 169.214844 47.929688 169.855469 47.125 C 170.496094 46.316406 171.175781 45.542969 171.894531 44.800781 C 172.609375 44.058594 173.359375 43.355469 174.148438 42.6875 C 174.933594 42.023438 175.75 41.394531 176.597656 40.808594 C 177.445312 40.222656 178.320312 39.679688 179.21875 39.175781 C 180.121094 38.675781 181.046875 38.21875 181.992188 37.808594 C 182.9375 37.398438 183.898438 37.039062 184.882812 36.722656 C 185.863281 36.40625 186.859375 36.140625 187.867188 35.921875 C 188.871094 35.703125 189.890625 35.535156 190.914062 35.417969 C 191.9375 35.300781 192.964844 35.234375 193.996094 35.214844 C 195.027344 35.199219 196.054688 35.234375 197.082031 35.316406 C 198.109375 35.402344 199.132812 35.535156 200.144531 35.71875 C 201.160156 35.90625 202.164062 36.136719 203.152344 36.421875 C 204.144531 36.703125 205.121094 37.035156 206.078125 37.414062 C 207.039062 37.792969 207.976562 38.21875 208.894531 38.6875 C 209.808594 39.160156 210.703125 39.671875 211.566406 40.230469 C 226.15625 49.636719 230.375 69.15625 220.972656 83.742188 C 220.597656 84.324219 220.070312 84.6875 219.394531 84.832031 C 219.222656 84.871094 219.046875 84.890625 218.867188 84.890625 Z M 173.71875 50.304688 L 218.019531 78.863281 C 224.234375 66.890625 220.417969 51.890625 208.855469 44.441406 C 208.171875 44 207.46875 43.589844 206.746094 43.214844 C 206.023438 42.835938 205.285156 42.496094 204.53125 42.1875 C 203.777344 41.878906 203.011719 41.605469 202.230469 41.367188 C 201.453125 41.128906 200.664062 40.929688 199.863281 40.765625 C 199.066406 40.597656 198.261719 40.472656 197.453125 40.382812 C 196.644531 40.289062 195.832031 40.238281 195.019531 40.222656 C 194.203125 40.207031 193.390625 40.230469 192.578125 40.289062 C 191.765625 40.347656 190.957031 40.445312 190.152344 40.578125 C 189.347656 40.714844 188.554688 40.882812 187.765625 41.089844 C 186.976562 41.300781 186.203125 41.542969 185.4375 41.820312 C 184.671875 42.101562 183.921875 42.414062 183.183594 42.761719 C 182.449219 43.113281 181.730469 43.492188 181.027344 43.910156 C 180.328125 44.324219 179.644531 44.769531 178.988281 45.246094 C 178.328125 45.726562 177.691406 46.234375 177.078125 46.769531 C 176.464844 47.304688 175.875 47.871094 175.316406 48.460938 C 174.753906 49.050781 174.222656 49.664062 173.71875 50.304688 Z M 173.71875 50.304688 " fill-opacity="1" fill-rule="nonzero"/><g clip-path="url(#847bef1691)"><path fill="#20a751" d="M 189.878906 225.613281 C 188.699219 225.613281 187.53125 225.5 186.375 225.269531 C 184.039062 224.816406 181.882812 223.929688 179.898438 222.613281 C 177.917969 221.292969 176.265625 219.644531 174.945312 217.664062 C 174.761719 217.390625 174.636719 217.089844 174.570312 216.765625 C 174.503906 216.4375 174.503906 216.113281 174.570312 215.785156 C 174.632812 215.460938 174.757812 215.160156 174.941406 214.882812 C 175.125 214.605469 175.355469 214.375 175.632812 214.191406 C 175.90625 214.007812 176.207031 213.882812 176.53125 213.816406 C 176.859375 213.75 177.183594 213.75 177.507812 213.8125 C 177.835938 213.878906 178.136719 214.003906 178.414062 214.1875 C 178.6875 214.371094 178.921875 214.601562 179.105469 214.875 C 179.578125 215.582031 180.117188 216.230469 180.71875 216.832031 C 181.320312 217.429688 181.972656 217.964844 182.679688 218.433594 C 183.386719 218.902344 184.132812 219.300781 184.917969 219.625 C 185.703125 219.945312 186.511719 220.191406 187.34375 220.351562 C 188.175781 220.515625 189.015625 220.597656 189.867188 220.597656 C 190.714844 220.59375 191.554688 220.511719 192.386719 220.34375 C 193.21875 220.175781 194.027344 219.929688 194.8125 219.601562 C 195.59375 219.277344 196.339844 218.875 197.042969 218.402344 C 197.75 217.929688 198.398438 217.394531 199 216.792969 C 199.597656 216.191406 200.132812 215.539062 200.601562 214.832031 C 201.074219 214.125 201.46875 213.378906 201.792969 212.59375 C 202.117188 211.808594 202.363281 211 202.527344 210.167969 C 202.691406 209.335938 202.773438 208.496094 202.769531 207.644531 C 202.769531 206.796875 202.683594 205.957031 202.519531 205.125 C 202.351562 204.292969 202.105469 203.484375 201.78125 202.699219 C 201.453125 201.917969 201.054688 201.171875 200.582031 200.46875 C 200.398438 200.191406 200.273438 199.890625 200.207031 199.566406 C 200.140625 199.242188 200.140625 198.914062 200.203125 198.589844 C 200.269531 198.261719 200.394531 197.960938 200.578125 197.6875 C 200.761719 197.410156 200.992188 197.179688 201.265625 196.992188 C 201.542969 196.808594 201.84375 196.683594 202.167969 196.617188 C 202.492188 196.554688 202.820312 196.550781 203.144531 196.617188 C 203.472656 196.679688 203.773438 196.804688 204.046875 196.988281 C 204.324219 197.171875 204.554688 197.402344 204.742188 197.679688 C 205.644531 199.027344 206.351562 200.472656 206.863281 202.011719 C 207.375 203.554688 207.671875 205.136719 207.753906 206.757812 C 207.835938 208.378906 207.703125 209.984375 207.347656 211.566406 C 206.996094 213.152344 206.4375 214.664062 205.675781 216.097656 C 204.914062 217.53125 203.972656 218.835938 202.855469 220.015625 C 201.738281 221.191406 200.484375 222.203125 199.09375 223.039062 C 197.703125 223.878906 196.226562 224.515625 194.660156 224.953125 C 193.097656 225.390625 191.503906 225.609375 189.878906 225.613281 Z M 189.878906 225.613281 " fill-opacity="1" fill-rule="nonzero"/></g><g clip-path="url(#4321e1d66e)"><path fill="#20a751" d="M 94.636719 225.613281 C 92.859375 225.613281 91.125 225.351562 89.429688 224.835938 C 87.730469 224.316406 86.148438 223.558594 84.679688 222.566406 C 76.464844 217.058594 74.265625 205.890625 79.777344 197.679688 C 79.960938 197.402344 80.191406 197.171875 80.46875 196.988281 C 80.746094 196.800781 81.046875 196.675781 81.371094 196.613281 C 81.699219 196.546875 82.023438 196.550781 82.351562 196.613281 C 82.675781 196.679688 82.976562 196.804688 83.253906 196.988281 C 83.53125 197.175781 83.757812 197.40625 83.945312 197.683594 C 84.128906 197.960938 84.25 198.261719 84.316406 198.585938 C 84.378906 198.914062 84.378906 199.238281 84.3125 199.566406 C 84.246094 199.890625 84.121094 200.191406 83.933594 200.46875 C 83.460938 201.171875 83.0625 201.917969 82.734375 202.699219 C 82.40625 203.484375 82.160156 204.292969 81.992188 205.125 C 81.824219 205.957031 81.738281 206.800781 81.738281 207.648438 C 81.734375 208.5 81.816406 209.339844 81.980469 210.171875 C 82.144531 211.007812 82.386719 211.816406 82.710938 212.601562 C 83.035156 213.386719 83.429688 214.132812 83.902344 214.839844 C 84.371094 215.546875 84.90625 216.203125 85.503906 216.804688 C 86.105469 217.40625 86.757812 217.945312 87.460938 218.417969 C 88.167969 218.890625 88.914062 219.289062 89.695312 219.617188 C 90.480469 219.941406 91.289062 220.191406 92.121094 220.355469 C 92.957031 220.523438 93.796875 220.609375 94.644531 220.609375 C 95.496094 220.609375 96.335938 220.53125 97.167969 220.367188 C 98.003906 220.199219 98.8125 219.957031 99.597656 219.632812 C 100.382812 219.308594 101.128906 218.910156 101.835938 218.441406 C 102.542969 217.96875 103.195312 217.433594 103.796875 216.835938 C 104.398438 216.234375 104.9375 215.582031 105.410156 214.875 C 105.59375 214.601562 105.824219 214.371094 106.101562 214.1875 C 106.378906 214.003906 106.679688 213.882812 107.003906 213.816406 C 107.328125 213.753906 107.65625 213.753906 107.980469 213.820312 C 108.304688 213.886719 108.605469 214.011719 108.882812 214.195312 C 109.15625 214.378906 109.386719 214.609375 109.570312 214.886719 C 109.753906 215.160156 109.878906 215.460938 109.941406 215.789062 C 110.007812 216.113281 110.007812 216.4375 109.941406 216.765625 C 109.875 217.089844 109.753906 217.390625 109.566406 217.664062 C 108.246094 219.644531 106.597656 221.292969 104.613281 222.613281 C 102.632812 223.929688 100.472656 224.816406 98.136719 225.269531 C 96.980469 225.5 95.8125 225.613281 94.636719 225.613281 Z M 94.636719 225.613281 " fill-opacity="1" fill-rule="nonzero"/></g><path fill="#20a751" d="M 77.109375 75.480469 C 76.839844 75.480469 76.578125 75.4375 76.320312 75.351562 C 76.0625 75.269531 75.828125 75.144531 75.609375 74.984375 C 75.394531 74.820312 75.207031 74.628906 75.054688 74.40625 C 74.898438 74.1875 74.78125 73.945312 74.707031 73.6875 C 74.628906 73.425781 74.597656 73.160156 74.605469 72.890625 C 74.613281 72.621094 74.667969 72.359375 74.761719 72.105469 C 74.855469 71.851562 74.988281 71.621094 75.15625 71.410156 C 75.328125 71.199219 75.523438 71.019531 75.753906 70.875 L 107.65625 50.308594 C 100.941406 41.792969 89.519531 38.132812 79.03125 41.394531 C 78.714844 41.496094 78.390625 41.527344 78.058594 41.5 C 77.730469 41.46875 77.417969 41.375 77.121094 41.222656 C 76.828125 41.066406 76.574219 40.863281 76.363281 40.605469 C 76.152344 40.351562 75.996094 40.066406 75.898438 39.75 C 75.796875 39.429688 75.765625 39.109375 75.792969 38.777344 C 75.824219 38.445312 75.917969 38.132812 76.070312 37.839844 C 76.226562 37.546875 76.429688 37.292969 76.6875 37.082031 C 76.941406 36.867188 77.226562 36.714844 77.542969 36.613281 C 91 32.449219 105.691406 37.800781 113.320312 49.632812 C 113.5 49.914062 113.621094 50.214844 113.679688 50.542969 C 113.738281 50.867188 113.734375 51.195312 113.664062 51.519531 C 113.59375 51.84375 113.464844 52.140625 113.273438 52.414062 C 113.085938 52.6875 112.851562 52.914062 112.574219 53.09375 L 78.464844 75.082031 C 78.050781 75.347656 77.601562 75.480469 77.109375 75.480469 Z M 77.109375 75.480469 " fill-opacity="1" fill-rule="nonzero"/><path fill="#20a751" d="M 152.207031 145.003906 C 152.207031 145.660156 152.140625 146.3125 152.015625 146.957031 C 151.886719 147.601562 151.695312 148.226562 151.445312 148.835938 C 151.191406 149.441406 150.882812 150.019531 150.519531 150.566406 C 150.152344 151.113281 149.738281 151.617188 149.273438 152.082031 C 148.808594 152.546875 148.304688 152.960938 147.757812 153.328125 C 147.210938 153.691406 146.632812 154 146.027344 154.253906 C 145.417969 154.503906 144.792969 154.695312 144.148438 154.824219 C 143.503906 154.949219 142.851562 155.015625 142.195312 155.015625 C 141.539062 155.015625 140.886719 154.949219 140.242188 154.824219 C 139.597656 154.695312 138.972656 154.503906 138.363281 154.253906 C 137.757812 154 137.179688 153.691406 136.632812 153.328125 C 136.085938 152.960938 135.582031 152.546875 135.117188 152.082031 C 134.652344 151.617188 134.234375 151.113281 133.871094 150.566406 C 133.503906 150.019531 133.195312 149.441406 132.945312 148.835938 C 132.695312 148.226562 132.503906 147.601562 132.375 146.957031 C 132.246094 146.3125 132.183594 145.660156 132.183594 145.003906 C 132.183594 144.347656 132.246094 143.695312 132.375 143.050781 C 132.503906 142.40625 132.695312 141.78125 132.945312 141.171875 C 133.195312 140.566406 133.503906 139.988281 133.871094 139.441406 C 134.234375 138.894531 134.652344 138.390625 135.117188 137.925781 C 135.582031 137.460938 136.085938 137.042969 136.632812 136.679688 C 137.179688 136.3125 137.757812 136.003906 138.363281 135.753906 C 138.972656 135.503906 139.597656 135.3125 140.242188 135.183594 C 140.886719 135.054688 141.539062 134.992188 142.195312 134.992188 C 142.851562 134.992188 143.503906 135.054688 144.148438 135.183594 C 144.792969 135.3125 145.417969 135.503906 146.027344 135.753906 C 146.632812 136.003906 147.210938 136.3125 147.757812 136.679688 C 148.304688 137.042969 148.808594 137.460938 149.273438 137.925781 C 149.738281 138.390625 150.152344 138.894531 150.519531 139.441406 C 150.882812 139.988281 151.191406 140.566406 151.445312 141.171875 C 151.695312 141.78125 151.886719 142.40625 152.015625 143.050781 C 152.140625 143.695312 152.207031 144.347656 152.207031 145.003906 Z M 152.207031 145.003906 " fill-opacity="1" fill-rule="nonzero"/><path fill="#20a751" d="M 147.652344 136.316406 L 188.914062 114.96875 L 153.183594 144.660156 C 152.929688 144.871094 152.660156 145.054688 152.367188 145.214844 C 152.078125 145.371094 151.773438 145.5 151.457031 145.597656 C 151.140625 145.695312 150.820312 145.761719 150.492188 145.796875 C 150.160156 145.832031 149.832031 145.835938 149.503906 145.804688 C 149.171875 145.773438 148.851562 145.710938 148.53125 145.617188 C 148.214844 145.523438 147.910156 145.402344 147.617188 145.246094 C 147.324219 145.09375 147.050781 144.910156 146.792969 144.703125 C 146.535156 144.496094 146.300781 144.261719 146.089844 144.007812 C 145.878906 143.753906 145.695312 143.480469 145.535156 143.191406 C 145.378906 142.898438 145.25 142.597656 145.152344 142.28125 C 145.054688 141.964844 144.988281 141.640625 144.953125 141.3125 C 144.921875 140.984375 144.917969 140.65625 144.949219 140.324219 C 144.980469 139.996094 145.042969 139.671875 145.136719 139.355469 C 145.230469 139.039062 145.355469 138.734375 145.507812 138.441406 C 145.664062 138.148438 145.84375 137.875 146.054688 137.617188 C 146.261719 137.359375 146.496094 137.125 146.75 136.914062 C 147.03125 136.683594 147.332031 136.484375 147.652344 136.316406 Z M 147.652344 136.316406 " fill-opacity="1" fill-rule="nonzero"/><path fill="#20a751" d="M 130.789062 144.351562 L 117.164062 126.648438 L 137.152344 136.625 C 137.453125 136.773438 137.738281 136.953125 138.003906 137.160156 C 138.269531 137.367188 138.515625 137.597656 138.734375 137.851562 C 138.957031 138.105469 139.148438 138.378906 139.316406 138.671875 C 139.484375 138.964844 139.621094 139.269531 139.726562 139.589844 C 139.835938 139.910156 139.910156 140.238281 139.953125 140.574219 C 139.992188 140.90625 140.003906 141.242188 139.980469 141.578125 C 139.957031 141.914062 139.898438 142.246094 139.8125 142.570312 C 139.722656 142.894531 139.601562 143.210938 139.453125 143.511719 C 139.300781 143.8125 139.121094 144.097656 138.917969 144.363281 C 138.710938 144.628906 138.480469 144.875 138.226562 145.09375 C 137.96875 145.316406 137.695312 145.511719 137.402344 145.675781 C 137.109375 145.84375 136.804688 145.980469 136.484375 146.089844 C 136.164062 146.195312 135.839844 146.269531 135.503906 146.3125 C 135.167969 146.355469 134.835938 146.363281 134.5 146.339844 C 134.160156 146.316406 133.832031 146.261719 133.503906 146.171875 C 133.179688 146.085938 132.867188 145.964844 132.566406 145.816406 C 131.863281 145.460938 131.269531 144.972656 130.789062 144.351562 Z M 130.789062 144.351562 " fill-opacity="1" fill-rule="nonzero"/></svg>