<svg xmlns="http://www.w3.org/2000/svg" xmlns:xlink="http://www.w3.org/1999/xlink" width="200" zoomAndPan="magnify" viewBox="0 0 150 157.92" height="200" preserveAspectRatio="xMidYMid meet" version="1.0"><defs><clipPath id="0639bce223"><path d="M 6 8.78125 L 145 8.78125 L 145 100 L 6 100 Z M 6 8.78125 " clip-rule="nonzero"/></clipPath><clipPath id="6e72e0cfa9"><path d="M 42 55 L 104 55 L 104 142.214844 L 42 142.214844 Z M 42 55 " clip-rule="nonzero"/></clipPath></defs><g clip-path="url(#0639bce223)"><path fill="#065f46" d="M 113.726562 36.808594 L 113.582031 36.808594 C 108.472656 20.167969 93.144531 8.78125 75.480469 8.78125 C 55.625 8.78125 38.839844 23.527344 36.066406 42.796875 C 35.480469 42.796875 34.898438 42.796875 34.3125 42.796875 C 18.839844 42.796875 6.140625 55.347656 6.140625 70.96875 C 6.140625 86.589844 18.695312 99.144531 34.3125 99.144531 L 40.007812 99.144531 C 39.859375 97.828125 40.007812 96.660156 40.007812 95.347656 C 40.152344 94.472656 40.152344 93.742188 40.296875 92.867188 L 34.167969 92.867188 C 22.050781 92.867188 12.269531 83.085938 12.269531 70.96875 C 12.269531 58.851562 22.050781 49.074219 34.167969 49.074219 C 35.480469 49.074219 36.796875 49.21875 38.109375 49.511719 C 38.984375 49.65625 39.859375 49.511719 40.589844 48.925781 C 41.320312 48.34375 41.757812 47.613281 41.757812 46.589844 C 43.070312 28.78125 57.816406 14.914062 75.480469 14.914062 C 91.101562 14.914062 104.53125 25.570312 108.179688 40.75 C 108.472656 42.210938 109.929688 43.234375 111.535156 43.085938 C 112.414062 42.941406 113.144531 42.941406 113.726562 42.941406 C 127.449219 42.941406 138.542969 54.035156 138.542969 67.757812 C 138.542969 81.480469 127.449219 92.574219 113.726562 92.574219 L 108.179688 92.574219 C 107.742188 94.617188 107.304688 96.808594 106.867188 98.851562 L 113.726562 98.851562 C 130.804688 98.851562 144.820312 84.984375 144.820312 67.757812 C 144.820312 50.824219 130.953125 36.808594 113.726562 36.808594 Z M 113.726562 36.808594 " fill-opacity="1" fill-rule="nonzero"/></g><g clip-path="url(#6e72e0cfa9)"><path fill="#065f46" d="M 96.9375 56.957031 C 78.105469 76.078125 48.910156 75.496094 47.011719 95.785156 C 46.574219 100.3125 47.742188 103.816406 50.664062 107.464844 C 61.757812 96.515625 73.4375 90.238281 77.816406 88.050781 C 78.691406 87.609375 79.714844 88.050781 80.003906 89.070312 C 80.152344 89.800781 79.859375 90.53125 79.273438 90.824219 C 62.339844 101.1875 53 111.84375 42.78125 137.097656 C 42.050781 138.851562 42.78125 141.039062 44.53125 141.769531 C 44.96875 141.914062 45.40625 142.0625 45.847656 142.0625 C 47.160156 142.0625 48.472656 141.1875 49.058594 139.871094 C 51.539062 133.886719 57.816406 120.894531 61.027344 116.515625 C 69.933594 121.332031 81.027344 122.644531 88.765625 117.390625 C 101.757812 108.632812 104.238281 77.683594 103.363281 59.4375 C 103.214844 56.226562 99.273438 54.621094 96.9375 56.957031 Z M 96.9375 56.957031 " fill-opacity="1" fill-rule="nonzero"/></g></svg>