<svg xmlns="http://www.w3.org/2000/svg" xmlns:xlink="http://www.w3.org/1999/xlink" width="40" zoomAndPan="magnify" viewBox="0 0 30 30.000001" height="40" preserveAspectRatio="xMidYMid meet" version="1.0"><defs><clipPath id="cc7c3a6693"><path d="M 1.621094 1.570312 L 28.472656 1.570312 L 28.472656 27.699219 L 1.621094 27.699219 Z M 1.621094 1.570312 " clip-rule="nonzero"/></clipPath></defs><g clip-path="url(#cc7c3a6693)"><path fill="#16a34a" d="M 17.859375 2.097656 C 18.304688 2.421875 18.601562 2.890625 18.714844 3.429688 C 18.761719 3.859375 18.71875 4.214844 18.546875 4.609375 C 18.53125 4.664062 18.515625 4.722656 18.503906 4.777344 C 18.78125 5.039062 19.0625 5.289062 19.355469 5.527344 C 19.519531 5.660156 19.671875 5.800781 19.828125 5.945312 C 20.085938 6.183594 20.355469 6.410156 20.625 6.636719 C 21.132812 7.074219 21.496094 7.390625 21.714844 7.589844 C 21.855469 7.71875 22.003906 7.839844 22.152344 7.960938 C 22.285156 8.066406 22.40625 8.171875 22.523438 8.292969 C 22.675781 8.449219 22.84375 8.582031 23.011719 8.71875 C 23.179688 8.855469 23.335938 9.003906 23.492188 9.15625 C 23.59375 9.238281 23.679688 9.285156 23.808594 9.324219 C 23.84375 9.289062 23.882812 9.253906 23.921875 9.214844 C 24.410156 8.796875 25 8.695312 25.617188 8.734375 C 26.175781 8.832031 26.667969 9.117188 27.003906 9.574219 C 27.363281 10.132812 27.480469 10.738281 27.34375 11.390625 C 27.175781 11.984375 26.789062 12.441406 26.277344 12.765625 C 26.167969 12.820312 26.074219 12.839844 25.957031 12.863281 C 25.960938 12.902344 25.964844 12.9375 25.96875 12.976562 C 26.09375 14.167969 26.203125 15.359375 26.304688 16.554688 C 26.332031 16.839844 26.355469 17.128906 26.382812 17.414062 C 26.402344 17.636719 26.421875 17.859375 26.441406 18.082031 C 26.457031 18.28125 26.472656 18.480469 26.492188 18.679688 C 26.5 18.761719 26.507812 18.84375 26.515625 18.929688 C 26.523438 19.054688 26.535156 19.183594 26.546875 19.3125 C 26.550781 19.351562 26.554688 19.390625 26.558594 19.429688 C 26.5625 19.46875 26.5625 19.503906 26.566406 19.539062 C 26.570312 19.574219 26.574219 19.605469 26.574219 19.636719 C 26.585938 19.726562 26.597656 19.808594 26.628906 19.894531 C 26.699219 19.925781 26.773438 19.949219 26.859375 19.96875 C 27.132812 20.054688 27.332031 20.183594 27.554688 20.355469 C 27.59375 20.382812 27.628906 20.40625 27.667969 20.433594 C 28.105469 20.847656 28.339844 21.433594 28.371094 22.03125 C 28.355469 22.59375 28.109375 23.082031 27.730469 23.484375 C 27.257812 23.933594 26.714844 24.078125 26.078125 24.070312 C 25.515625 24.039062 25.019531 23.808594 24.640625 23.394531 C 24.152344 22.792969 24.117188 22.195312 24.144531 21.453125 C 24.101562 21.445312 24.0625 21.441406 24.019531 21.4375 C 23.84375 21.410156 23.679688 21.359375 23.511719 21.300781 C 23.480469 21.292969 23.449219 21.28125 23.417969 21.269531 C 23.316406 21.234375 23.214844 21.203125 23.117188 21.167969 C 22.984375 21.121094 22.851562 21.078125 22.722656 21.035156 C 22.6875 21.023438 22.65625 21.011719 22.625 21 C 22.304688 20.894531 21.984375 20.792969 21.660156 20.695312 C 21.648438 20.726562 21.636719 20.757812 21.625 20.792969 C 21.445312 21.21875 20.980469 21.539062 20.570312 21.71875 C 20.039062 21.910156 19.453125 21.933594 18.925781 21.703125 C 18.800781 21.632812 18.683594 21.558594 18.5625 21.476562 C 18.476562 21.417969 18.386719 21.371094 18.292969 21.324219 C 17.929688 21.59375 17.574219 21.863281 17.226562 22.144531 C 17.039062 22.296875 16.847656 22.441406 16.652344 22.585938 C 16.394531 22.777344 16.144531 22.976562 15.894531 23.179688 C 15.660156 23.375 15.417969 23.558594 15.175781 23.742188 C 14.972656 23.898438 14.773438 24.054688 14.578125 24.21875 C 14.527344 24.253906 14.476562 24.273438 14.417969 24.273438 C 14.433594 24.3125 14.449219 24.355469 14.464844 24.398438 C 14.691406 25.042969 14.6875 25.574219 14.40625 26.207031 C 14.136719 26.742188 13.699219 27.085938 13.136719 27.273438 C 12.566406 27.441406 11.945312 27.367188 11.425781 27.085938 C 11.046875 26.851562 10.804688 26.554688 10.585938 26.167969 C 10.5625 26.125 10.539062 26.082031 10.511719 26.039062 C 10.289062 25.480469 10.375 24.925781 10.503906 24.355469 C 10.007812 23.996094 9.507812 23.640625 9.003906 23.289062 C 8.847656 23.183594 8.691406 23.070312 8.539062 22.960938 C 8.507812 22.941406 8.480469 22.921875 8.449219 22.898438 C 8.390625 22.859375 8.332031 22.816406 8.273438 22.777344 C 8.097656 22.652344 7.917969 22.523438 7.738281 22.398438 C 7.59375 22.296875 7.449219 22.191406 7.300781 22.089844 C 6.617188 21.605469 5.929688 21.128906 5.242188 20.652344 C 5.222656 20.667969 5.203125 20.683594 5.183594 20.699219 C 4.644531 21.128906 4.078125 21.25 3.402344 21.1875 C 2.890625 21.109375 2.445312 20.824219 2.125 20.421875 C 1.730469 19.875 1.617188 19.386719 1.660156 18.714844 C 1.75 18.167969 2.078125 17.691406 2.511719 17.359375 C 2.828125 17.136719 3.132812 17.039062 3.515625 16.988281 C 3.515625 16.953125 3.515625 16.917969 3.519531 16.882812 C 3.546875 16.304688 3.625 15.730469 3.699219 15.15625 C 3.714844 15.042969 3.726562 14.925781 3.742188 14.8125 C 3.746094 14.78125 3.75 14.75 3.753906 14.722656 C 3.761719 14.660156 3.769531 14.597656 3.777344 14.535156 C 3.789062 14.441406 3.800781 14.34375 3.8125 14.25 C 3.875 13.75 3.9375 13.253906 4 12.757812 C 4.03125 12.5 4.0625 12.246094 4.09375 11.992188 C 4.121094 11.785156 4.144531 11.574219 4.171875 11.363281 C 4.195312 11.164062 4.21875 10.964844 4.246094 10.765625 C 4.253906 10.695312 4.261719 10.621094 4.273438 10.546875 C 4.285156 10.445312 4.296875 10.34375 4.308594 10.242188 C 4.3125 10.210938 4.316406 10.183594 4.320312 10.152344 C 4.339844 9.980469 4.378906 9.824219 4.441406 9.664062 C 4.402344 9.652344 4.367188 9.640625 4.328125 9.628906 C 3.777344 9.433594 3.421875 9.042969 3.152344 8.539062 C 2.960938 8.09375 2.914062 7.519531 3.078125 7.058594 C 3.109375 6.984375 3.140625 6.914062 3.175781 6.839844 C 3.195312 6.800781 3.210938 6.757812 3.230469 6.714844 C 3.449219 6.222656 3.839844 5.910156 4.332031 5.703125 C 4.90625 5.503906 5.492188 5.542969 6.046875 5.792969 C 6.484375 6.03125 6.859375 6.421875 7.035156 6.890625 C 7.042969 6.921875 7.054688 6.953125 7.066406 6.980469 C 7.074219 7.003906 7.085938 7.027344 7.09375 7.050781 C 7.632812 6.867188 8.164062 6.664062 8.699219 6.457031 C 8.78125 6.425781 8.863281 6.394531 8.945312 6.363281 C 9.148438 6.28125 9.351562 6.203125 9.550781 6.125 C 9.808594 6.027344 10.070312 5.925781 10.328125 5.824219 C 10.378906 5.804688 10.429688 5.785156 10.480469 5.765625 C 11.847656 5.238281 13.21875 4.714844 14.585938 4.1875 C 14.585938 4.136719 14.585938 4.085938 14.585938 4.035156 C 14.585938 3.964844 14.582031 3.898438 14.582031 3.828125 C 14.582031 3.792969 14.582031 3.761719 14.582031 3.726562 C 14.578125 3.121094 14.828125 2.691406 15.230469 2.261719 C 15.417969 2.082031 15.609375 1.96875 15.851562 1.875 C 15.882812 1.859375 15.910156 1.847656 15.945312 1.832031 C 16.582031 1.59375 17.300781 1.738281 17.859375 2.097656 Z M 14.644531 5.058594 C 14.601562 5.074219 14.5625 5.089844 14.519531 5.105469 C 14.472656 5.121094 14.425781 5.140625 14.375 5.15625 C 14.328125 5.175781 14.277344 5.195312 14.226562 5.214844 C 12.945312 5.691406 11.667969 6.1875 10.390625 6.679688 C 10.089844 6.796875 9.789062 6.914062 9.488281 7.027344 C 9.445312 7.042969 9.402344 7.0625 9.359375 7.078125 C 9.140625 7.160156 8.921875 7.246094 8.703125 7.328125 C 8.191406 7.523438 7.683594 7.722656 7.175781 7.9375 C 7.164062 8.046875 7.148438 8.160156 7.136719 8.273438 C 7.734375 8.695312 8.335938 9.101562 8.949219 9.5 C 9.113281 9.605469 9.277344 9.710938 9.4375 9.816406 C 9.519531 9.871094 9.601562 9.921875 9.679688 9.976562 C 9.886719 10.109375 10.089844 10.242188 10.292969 10.382812 C 10.332031 10.410156 10.371094 10.4375 10.414062 10.464844 C 10.492188 10.519531 10.566406 10.570312 10.644531 10.625 C 10.679688 10.648438 10.714844 10.671875 10.75 10.695312 C 10.777344 10.71875 10.808594 10.738281 10.839844 10.761719 C 10.894531 10.792969 10.953125 10.800781 11.015625 10.789062 C 11.113281 10.75 11.167969 10.695312 11.242188 10.621094 C 11.660156 10.242188 12.171875 10.152344 12.714844 10.164062 C 12.789062 10.164062 12.859375 10.164062 12.929688 10.164062 C 12.992188 10.167969 13.050781 10.167969 13.113281 10.167969 C 13.40625 9.613281 13.691406 9.058594 13.972656 8.496094 C 14.035156 8.367188 14.101562 8.238281 14.164062 8.109375 C 14.398438 7.644531 14.628906 7.175781 14.851562 6.707031 C 14.980469 6.433594 15.113281 6.164062 15.246094 5.898438 C 15.265625 5.859375 15.285156 5.824219 15.300781 5.789062 C 15.34375 5.703125 15.386719 5.621094 15.429688 5.535156 C 15.398438 5.503906 15.367188 5.472656 15.332031 5.441406 C 15.210938 5.320312 15.101562 5.1875 14.988281 5.054688 C 14.96875 5.035156 14.945312 5.011719 14.925781 4.988281 C 14.816406 4.988281 14.746094 5.019531 14.644531 5.058594 Z M 17.789062 5.527344 C 17.507812 5.734375 17.171875 5.835938 16.824219 5.835938 C 16.789062 5.835938 16.75 5.835938 16.710938 5.835938 C 16.671875 5.835938 16.632812 5.835938 16.59375 5.832031 C 16.554688 5.832031 16.515625 5.832031 16.476562 5.832031 C 16.378906 5.832031 16.285156 5.832031 16.1875 5.832031 C 15.945312 6.28125 15.714844 6.734375 15.496094 7.195312 C 15.390625 7.417969 15.285156 7.636719 15.175781 7.855469 C 15.050781 8.097656 14.933594 8.34375 14.820312 8.589844 C 14.664062 8.917969 14.503906 9.246094 14.339844 9.570312 C 14.246094 9.753906 14.152344 9.941406 14.0625 10.125 C 14.023438 10.199219 13.988281 10.269531 13.953125 10.34375 L 13.90625 10.4375 L 13.871094 10.503906 C 13.902344 10.535156 13.933594 10.566406 13.964844 10.597656 C 14.070312 10.703125 14.160156 10.8125 14.25 10.929688 C 14.277344 10.964844 14.304688 11.003906 14.332031 11.039062 C 14.453125 11.230469 14.539062 11.433594 14.628906 11.640625 C 15.339844 11.570312 16.050781 11.484375 16.761719 11.398438 C 17.457031 11.308594 18.15625 11.222656 18.855469 11.140625 C 18.898438 11.132812 18.941406 11.128906 18.984375 11.125 C 19.160156 11.101562 19.335938 11.082031 19.511719 11.058594 C 19.867188 11.019531 20.226562 10.976562 20.582031 10.929688 C 20.636719 10.925781 20.691406 10.917969 20.75 10.910156 C 20.964844 10.886719 21.179688 10.859375 21.394531 10.832031 C 21.496094 10.820312 21.597656 10.808594 21.699219 10.796875 C 21.792969 10.785156 21.886719 10.773438 21.984375 10.761719 C 22.191406 10.734375 22.398438 10.710938 22.609375 10.695312 C 22.644531 10.691406 22.679688 10.691406 22.71875 10.6875 C 22.78125 10.683594 22.84375 10.675781 22.910156 10.675781 C 23.066406 10.660156 23.125 10.644531 23.226562 10.519531 C 23.296875 10.375 23.34375 10.246094 23.34375 10.082031 C 23.28125 10.027344 23.214844 9.972656 23.148438 9.921875 C 22.960938 9.769531 22.78125 9.617188 22.609375 9.453125 C 22.40625 9.261719 22.199219 9.085938 21.984375 8.914062 C 21.867188 8.816406 21.753906 8.714844 21.640625 8.609375 C 21.488281 8.472656 21.335938 8.339844 21.179688 8.210938 C 20.988281 8.058594 20.808594 7.894531 20.628906 7.730469 C 20.457031 7.570312 20.273438 7.421875 20.089844 7.273438 C 19.972656 7.175781 19.859375 7.074219 19.746094 6.96875 C 19.5625 6.796875 19.371094 6.640625 19.175781 6.484375 C 19.027344 6.359375 18.878906 6.230469 18.734375 6.105469 C 18.542969 5.9375 18.347656 5.769531 18.152344 5.609375 C 18.117188 5.578125 18.082031 5.546875 18.042969 5.515625 C 17.921875 5.429688 17.898438 5.425781 17.785156 5.527344 Z M 6.757812 9.03125 C 6.734375 9.050781 6.714844 9.074219 6.695312 9.09375 C 6.28125 9.492188 5.800781 9.691406 5.242188 9.789062 C 5.171875 10.070312 5.128906 10.347656 5.09375 10.636719 C 5.085938 10.683594 5.078125 10.730469 5.074219 10.777344 C 5.054688 10.933594 5.035156 11.09375 5.015625 11.25 C 5 11.363281 4.984375 11.472656 4.972656 11.585938 C 4.949219 11.769531 4.925781 11.957031 4.902344 12.140625 C 4.839844 12.609375 4.78125 13.078125 4.71875 13.550781 C 4.679688 13.863281 4.636719 14.179688 4.597656 14.496094 C 4.570312 14.71875 4.539062 14.945312 4.511719 15.167969 C 4.484375 15.382812 4.457031 15.59375 4.429688 15.808594 C 4.417969 15.886719 4.40625 15.96875 4.398438 16.046875 C 4.382812 16.15625 4.367188 16.265625 4.355469 16.375 C 4.351562 16.40625 4.347656 16.441406 4.34375 16.472656 C 4.316406 16.675781 4.308594 16.871094 4.3125 17.074219 C 4.34375 17.082031 4.375 17.09375 4.40625 17.101562 C 4.800781 17.238281 5.035156 17.382812 5.113281 17.535156 C 5.324219 17.472656 5.46875 17.34375 5.632812 17.203125 C 5.863281 17.011719 6.097656 16.828125 6.335938 16.648438 C 6.585938 16.464844 6.832031 16.273438 7.074219 16.078125 C 7.261719 15.925781 7.453125 15.777344 7.648438 15.628906 C 7.8125 15.5 7.980469 15.371094 8.144531 15.242188 C 8.351562 15.078125 8.5625 14.917969 8.769531 14.757812 C 8.964844 14.605469 9.160156 14.457031 9.351562 14.304688 C 9.386719 14.28125 9.417969 14.253906 9.449219 14.230469 C 9.617188 14.097656 9.789062 13.964844 9.957031 13.832031 C 9.992188 13.808594 10.027344 13.78125 10.0625 13.753906 C 10.128906 13.699219 10.195312 13.648438 10.261719 13.597656 C 10.292969 13.574219 10.320312 13.550781 10.351562 13.527344 C 10.378906 13.503906 10.40625 13.484375 10.429688 13.464844 C 10.496094 13.414062 10.5625 13.371094 10.628906 13.324219 C 10.613281 13.175781 10.589844 13.039062 10.542969 12.898438 C 10.496094 12.703125 10.492188 12.523438 10.492188 12.320312 C 10.492188 12.285156 10.492188 12.25 10.492188 12.210938 C 10.492188 11.96875 10.527344 11.75 10.585938 11.515625 C 10.566406 11.503906 10.546875 11.488281 10.527344 11.476562 C 10.0625 11.1875 9.605469 10.890625 9.152344 10.589844 C 9 10.484375 8.847656 10.382812 8.695312 10.28125 C 8.605469 10.222656 8.511719 10.160156 8.421875 10.101562 C 8.363281 10.058594 8.300781 10.019531 8.242188 9.980469 C 8.15625 9.921875 8.070312 9.867188 7.984375 9.808594 C 7.957031 9.789062 7.925781 9.769531 7.898438 9.75 C 7.75 9.652344 7.601562 9.550781 7.453125 9.449219 C 7.425781 9.429688 7.394531 9.40625 7.363281 9.386719 C 7.304688 9.34375 7.246094 9.304688 7.191406 9.265625 C 7.050781 9.164062 6.917969 9.085938 6.757812 9.03125 Z M 22.730469 11.46875 C 22.695312 11.472656 22.664062 11.476562 22.628906 11.480469 C 22.492188 11.5 22.351562 11.519531 22.214844 11.535156 C 21.652344 11.609375 21.085938 11.675781 20.523438 11.738281 C 19.628906 11.84375 18.730469 11.949219 17.835938 12.058594 C 17.625 12.085938 17.417969 12.109375 17.207031 12.132812 C 16.390625 12.234375 15.574219 12.335938 14.753906 12.441406 C 14.75 12.480469 14.746094 12.523438 14.742188 12.566406 C 14.707031 12.851562 14.660156 13.105469 14.535156 13.367188 C 14.507812 13.425781 14.496094 13.496094 14.503906 13.578125 C 14.578125 13.65625 14.65625 13.726562 14.738281 13.796875 C 14.882812 13.921875 15.019531 14.050781 15.144531 14.195312 C 15.304688 14.382812 15.476562 14.558594 15.648438 14.734375 C 15.683594 14.769531 15.71875 14.800781 15.75 14.835938 C 15.859375 14.945312 15.96875 15.058594 16.078125 15.167969 C 16.117188 15.207031 16.15625 15.242188 16.195312 15.28125 C 16.351562 15.441406 16.507812 15.601562 16.667969 15.757812 C 16.890625 15.984375 17.117188 16.210938 17.34375 16.4375 C 17.519531 16.617188 17.699219 16.796875 17.875 16.976562 C 17.953125 17.054688 18.027344 17.128906 18.101562 17.207031 C 18.207031 17.3125 18.3125 17.417969 18.417969 17.523438 C 18.449219 17.554688 18.480469 17.585938 18.511719 17.621094 C 18.542969 17.648438 18.570312 17.675781 18.601562 17.707031 C 18.625 17.730469 18.652344 17.757812 18.675781 17.78125 C 18.730469 17.820312 18.792969 17.835938 18.863281 17.820312 C 18.898438 17.808594 18.929688 17.800781 18.964844 17.789062 C 19.449219 17.648438 19.898438 17.625 20.398438 17.703125 C 20.597656 17.445312 20.757812 17.171875 20.917969 16.886719 C 21.125 16.523438 21.335938 16.164062 21.554688 15.808594 C 21.570312 15.78125 21.585938 15.757812 21.601562 15.730469 C 21.664062 15.628906 21.726562 15.527344 21.785156 15.429688 C 22.058594 14.980469 22.332031 14.527344 22.597656 14.074219 C 22.613281 14.046875 22.628906 14.019531 22.644531 13.992188 C 22.722656 13.859375 22.800781 13.730469 22.875 13.597656 C 23.046875 13.304688 23.21875 13.015625 23.398438 12.726562 C 23.488281 12.582031 23.566406 12.429688 23.640625 12.273438 C 23.613281 12.242188 23.589844 12.214844 23.5625 12.183594 C 23.46875 12.058594 23.414062 11.949219 23.359375 11.804688 C 23.339844 11.761719 23.324219 11.71875 23.304688 11.671875 C 23.273438 11.59375 23.246094 11.511719 23.21875 11.429688 C 23.050781 11.429688 22.894531 11.449219 22.730469 11.46875 Z M 24.3125 12.777344 C 24.011719 13.25 23.726562 13.730469 23.445312 14.214844 C 23.25 14.546875 23.050781 14.882812 22.851562 15.214844 C 22.703125 15.457031 22.558594 15.703125 22.414062 15.953125 C 22.253906 16.222656 22.089844 16.496094 21.929688 16.765625 C 21.910156 16.796875 21.894531 16.824219 21.878906 16.851562 C 21.792969 16.992188 21.710938 17.128906 21.625 17.269531 C 21.464844 17.539062 21.304688 17.808594 21.15625 18.082031 C 21.191406 18.109375 21.226562 18.136719 21.265625 18.164062 C 21.667969 18.5 21.816406 19.050781 21.875 19.550781 C 21.878906 19.582031 21.882812 19.609375 21.886719 19.640625 C 21.894531 19.710938 21.90625 19.78125 21.914062 19.851562 C 22.019531 19.886719 22.125 19.925781 22.230469 19.960938 C 22.265625 19.972656 22.300781 19.984375 22.332031 19.996094 C 22.515625 20.058594 22.695312 20.121094 22.878906 20.183594 C 22.914062 20.195312 22.953125 20.207031 22.988281 20.21875 C 23.0625 20.246094 23.136719 20.269531 23.207031 20.292969 C 23.410156 20.363281 23.609375 20.433594 23.808594 20.503906 C 23.886719 20.53125 23.964844 20.554688 24.042969 20.582031 C 24.078125 20.59375 24.109375 20.609375 24.144531 20.621094 C 24.300781 20.671875 24.453125 20.683594 24.609375 20.652344 C 24.664062 20.601562 24.71875 20.542969 24.773438 20.476562 C 25.042969 20.191406 25.398438 20.007812 25.785156 19.9375 C 25.664062 18.527344 25.539062 17.117188 25.410156 15.710938 C 25.398438 15.585938 25.390625 15.464844 25.378906 15.339844 C 25.359375 15.144531 25.34375 14.949219 25.324219 14.75 C 25.316406 14.679688 25.3125 14.605469 25.304688 14.53125 C 25.257812 14.019531 25.207031 13.503906 25.15625 12.988281 C 25.113281 12.980469 25.070312 12.972656 25.027344 12.960938 C 24.78125 12.910156 24.546875 12.859375 24.3125 12.777344 Z M 10.996094 14.054688 C 10.96875 14.078125 10.941406 14.097656 10.910156 14.121094 C 10.882812 14.144531 10.851562 14.167969 10.820312 14.195312 C 10.789062 14.21875 10.753906 14.242188 10.722656 14.269531 C 10.621094 14.347656 10.519531 14.425781 10.417969 14.503906 C 10.351562 14.554688 10.289062 14.605469 10.222656 14.65625 C 10.09375 14.757812 9.964844 14.855469 9.839844 14.957031 C 9.6875 15.074219 9.539062 15.1875 9.386719 15.304688 C 9.074219 15.542969 8.765625 15.785156 8.453125 16.027344 C 8.355469 16.105469 8.257812 16.179688 8.160156 16.257812 C 7.871094 16.484375 7.578125 16.707031 7.289062 16.9375 C 7.109375 17.078125 6.929688 17.21875 6.746094 17.359375 C 6.703125 17.394531 6.65625 17.425781 6.613281 17.460938 C 6.496094 17.550781 6.378906 17.640625 6.261719 17.730469 C 6.191406 17.78125 6.121094 17.835938 6.050781 17.886719 C 6.015625 17.914062 5.984375 17.9375 5.949219 17.964844 C 5.917969 17.988281 5.886719 18.011719 5.855469 18.035156 C 5.824219 18.058594 5.796875 18.078125 5.769531 18.101562 C 5.691406 18.179688 5.671875 18.226562 5.660156 18.335938 C 5.6875 18.40625 5.714844 18.476562 5.746094 18.546875 C 5.824219 18.9375 5.824219 19.34375 5.703125 19.726562 C 5.6875 19.78125 5.675781 19.835938 5.660156 19.894531 C 5.789062 19.988281 5.917969 20.082031 6.046875 20.175781 C 6.101562 20.214844 6.152344 20.253906 6.207031 20.292969 C 6.597656 20.578125 6.992188 20.855469 7.390625 21.125 C 7.621094 21.28125 7.847656 21.445312 8.070312 21.609375 C 8.394531 21.847656 8.722656 22.078125 9.054688 22.304688 C 9.460938 22.589844 9.871094 22.878906 10.273438 23.171875 C 10.304688 23.195312 10.335938 23.21875 10.367188 23.238281 C 10.570312 23.386719 10.769531 23.535156 10.964844 23.683594 C 11.070312 23.632812 11.148438 23.589844 11.234375 23.515625 C 11.351562 23.425781 11.453125 23.375 11.589844 23.324219 C 11.632812 23.304688 11.671875 23.289062 11.714844 23.273438 C 11.871094 23.210938 12.03125 23.152344 12.1875 23.09375 L 12.1875 14.503906 C 12.007812 14.433594 11.824219 14.363281 11.640625 14.292969 C 11.546875 14.230469 11.464844 14.171875 11.402344 14.113281 C 11.269531 13.996094 11.136719 13.976562 10.996094 14.054688 Z M 13.617188 14.335938 C 13.425781 14.40625 13.230469 14.476562 13.03125 14.546875 L 13.03125 23.136719 C 13.238281 23.246094 13.445312 23.359375 13.660156 23.472656 C 13.730469 23.527344 13.800781 23.585938 13.871094 23.640625 C 14.03125 23.570312 14.160156 23.464844 14.296875 23.355469 C 14.351562 23.316406 14.402344 23.273438 14.457031 23.230469 C 14.484375 23.207031 14.511719 23.1875 14.539062 23.164062 C 14.695312 23.042969 14.851562 22.921875 15.007812 22.800781 C 15.234375 22.625 15.457031 22.449219 15.683594 22.273438 C 15.90625 22.097656 16.128906 21.921875 16.355469 21.746094 C 16.480469 21.648438 16.609375 21.550781 16.734375 21.453125 C 16.761719 21.429688 16.789062 21.410156 16.816406 21.386719 C 17.160156 21.121094 17.496094 20.847656 17.828125 20.566406 C 17.816406 20.515625 17.800781 20.460938 17.789062 20.40625 C 17.683594 19.925781 17.652344 19.316406 17.914062 18.882812 C 17.9375 18.847656 17.957031 18.808594 17.980469 18.769531 C 18.023438 18.695312 18.070312 18.625 18.117188 18.550781 C 18.15625 18.492188 18.171875 18.417969 18.167969 18.335938 C 18.113281 18.269531 18.054688 18.207031 17.984375 18.140625 C 17.949219 18.101562 17.910156 18.0625 17.871094 18.027344 C 17.851562 18.007812 17.832031 17.988281 17.8125 17.964844 C 17.75 17.90625 17.691406 17.847656 17.628906 17.785156 C 17.519531 17.652344 17.386719 17.554688 17.238281 17.492188 C 17.230469 17.46875 17.21875 17.445312 17.207031 17.421875 C 17.148438 17.3125 17.082031 17.238281 16.988281 17.15625 L 16.902344 17.15625 C 16.890625 17.117188 16.875 17.074219 16.859375 17.03125 C 16.820312 16.992188 16.777344 16.953125 16.726562 16.914062 C 16.476562 16.699219 16.246094 16.464844 16.015625 16.230469 C 15.929688 16.144531 15.847656 16.058594 15.761719 15.972656 C 15.519531 15.730469 15.28125 15.492188 15.039062 15.25 C 14.894531 15.101562 14.746094 14.953125 14.597656 14.804688 C 14.542969 14.746094 14.484375 14.691406 14.429688 14.632812 C 14.351562 14.554688 14.273438 14.476562 14.195312 14.398438 C 14.171875 14.375 14.148438 14.351562 14.125 14.328125 C 13.902344 14.105469 13.910156 14.144531 13.617188 14.335938 Z M 13.617188 14.335938 " fill-opacity="1" fill-rule="nonzero"/></g></svg>