<svg xmlns="http://www.w3.org/2000/svg" xmlns:xlink="http://www.w3.org/1999/xlink" width="320" zoomAndPan="magnify" viewBox="0 0 240 239.999995" height="320" preserveAspectRatio="xMidYMid meet" version="1.0"><defs><clipPath id="418f628f8c"><path d="M 30.269531 10 L 211.769531 10 L 211.769531 233 L 30.269531 233 Z M 30.269531 10 " clip-rule="nonzero"/></clipPath></defs><g clip-path="url(#418f628f8c)"><path fill="#22c55e" d="M 105.6875 193.96875 L 70.816406 193.96875 C 67.195312 193.96875 64.269531 196.894531 64.269531 200.515625 L 64.269531 208.851562 C 64.269531 212.476562 67.195312 215.398438 70.816406 215.398438 L 105.6875 215.398438 C 109.3125 215.398438 112.234375 212.476562 112.234375 208.851562 L 112.234375 200.515625 C 112.234375 196.894531 109.3125 193.96875 105.6875 193.96875 Z M 105.078125 208.242188 L 71.472656 208.242188 L 71.472656 201.128906 L 105.078125 201.128906 Z M 112.105469 67.097656 L 158.890625 67.097656 C 163.605469 67.183594 163.605469 74.167969 158.890625 74.253906 L 112.105469 74.253906 C 107.390625 74.167969 107.390625 67.140625 112.105469 67.097656 Z M 85.875 87.042969 L 158.890625 87.042969 C 163.605469 87.128906 163.5625 94.113281 158.890625 94.199219 L 85.875 94.199219 C 81.117188 94.113281 81.160156 87.128906 85.875 87.042969 Z M 85.875 106.988281 L 158.890625 106.988281 C 163.605469 107.074219 163.5625 114.058594 158.890625 114.144531 L 85.875 114.144531 C 81.117188 114.058594 81.160156 107.074219 85.875 106.988281 Z M 206.113281 35.105469 L 107.785156 10.488281 C 104.421875 9.574219 100.667969 11.84375 99.882812 15.246094 L 98.050781 22.621094 L 34.328125 42.480469 C 32.933594 42.917969 31.753906 43.921875 31.101562 45.230469 C 30.402344 46.539062 30.269531 48.066406 30.75 49.464844 L 53.96875 124.007812 C 50.085938 125.011719 47.207031 128.546875 47.207031 132.738281 L 47.207031 223.777344 C 47.207031 228.796875 51.265625 232.855469 56.28125 232.855469 L 185.296875 232.855469 C 190.316406 232.855469 194.375 228.796875 194.375 223.777344 L 194.375 146.136719 C 194.375 141.769531 191.320312 138.148438 187.214844 137.277344 C 187.214844 137.277344 210.828125 43.003906 210.828125 43.003906 C 211.699219 39.554688 209.605469 35.976562 206.113281 35.105469 Z M 38.039062 48.851562 L 96 30.785156 L 91.679688 48.023438 L 71.601562 48.023438 C 68.546875 48.023438 66.015625 50.511719 66.015625 53.609375 L 66.015625 123.703125 L 61.347656 123.703125 Z M 171.546875 55.136719 L 171.546875 137.101562 L 106.210938 137.101562 C 105.644531 137.101562 105.121094 136.839844 104.773438 136.445312 L 96.347656 126.714844 C 94.648438 124.707031 92.113281 123.570312 89.453125 123.570312 L 73.21875 123.617188 L 73.21875 55.136719 Z M 187.214844 223.777344 C 187.214844 224.828125 186.34375 225.699219 185.296875 225.699219 L 56.28125 225.699219 C 55.234375 225.699219 54.363281 224.828125 54.363281 223.777344 L 54.363281 132.738281 C 54.449219 130.335938 57.070312 130.859375 58.683594 130.816406 C 65.40625 130.816406 82.511719 130.730469 89.453125 130.6875 C 90.019531 130.6875 90.542969 130.902344 90.9375 131.339844 L 99.359375 141.074219 C 101.105469 143.082031 103.59375 144.214844 106.210938 144.214844 L 185.296875 144.214844 C 186.386719 144.214844 187.214844 145.042969 187.214844 146.136719 Z M 179.882812 137.101562 L 178.707031 137.101562 L 178.707031 53.566406 C 178.707031 50.511719 176.21875 47.980469 173.121094 47.980469 L 99.054688 47.980469 C 100.582031 41.871094 105.207031 23.40625 106.691406 17.601562 L 203.757812 41.914062 Z M 179.882812 137.101562 " fill-opacity="1" fill-rule="nonzero"/></g></svg>