<svg xmlns="http://www.w3.org/2000/svg" xmlns:xlink="http://www.w3.org/1999/xlink" width="200" zoomAndPan="magnify" viewBox="0 0 150 157.92" height="200" preserveAspectRatio="xMidYMid meet" version="1.0"><defs><clipPath id="e94799cec7"><path d="M 24.039062 22 L 119 22 L 119 144.628906 L 24.039062 144.628906 Z M 24.039062 22 " clip-rule="nonzero"/></clipPath><clipPath id="6aa8e23edd"><path d="M 47 5.199219 L 95 5.199219 L 95 35 L 47 35 Z M 47 5.199219 " clip-rule="nonzero"/></clipPath><clipPath id="f998dec28b"><path d="M 69 44 L 139.199219 44 L 139.199219 108 L 69 108 Z M 69 44 " clip-rule="nonzero"/></clipPath></defs><path fill="#065f46" d="M 104.519531 97.828125 C 103.40625 97.828125 102.503906 96.925781 102.503906 95.8125 L 102.503906 71.507812 C 102.503906 70.394531 103.40625 69.492188 104.519531 69.492188 C 105.632812 69.492188 106.535156 70.394531 106.535156 71.507812 L 106.535156 95.8125 C 106.535156 96.925781 105.632812 97.828125 104.519531 97.828125 Z M 104.519531 97.828125 " fill-opacity="1" fill-rule="nonzero"/><path fill="#065f46" d="M 104.519531 88.660156 L 100.828125 88.660156 C 93.792969 88.660156 88.070312 82.933594 88.070312 75.898438 L 88.070312 72.207031 C 88.070312 71.09375 88.972656 70.191406 90.085938 70.191406 L 93.777344 70.191406 C 100.8125 70.191406 106.535156 75.917969 106.535156 82.953125 L 106.535156 86.644531 C 106.535156 87.757812 105.632812 88.660156 104.519531 88.660156 Z M 92.101562 74.222656 L 92.101562 75.898438 C 92.101562 80.710938 96.015625 84.625 100.828125 84.625 L 102.503906 84.625 L 102.503906 82.953125 C 102.503906 78.140625 98.589844 74.222656 93.777344 74.222656 Z M 92.101562 74.222656 " fill-opacity="1" fill-rule="nonzero"/><path fill="#065f46" d="M 108.210938 85.566406 L 104.519531 85.566406 C 103.40625 85.566406 102.503906 84.664062 102.503906 83.550781 L 102.503906 79.859375 C 102.503906 72.824219 108.226562 67.101562 115.265625 67.101562 L 118.957031 67.101562 C 120.070312 67.101562 120.972656 68.003906 120.972656 69.117188 L 120.972656 72.808594 C 120.972656 79.84375 115.246094 85.566406 108.210938 85.566406 Z M 106.535156 81.535156 L 108.210938 81.535156 C 113.023438 81.535156 116.9375 77.621094 116.9375 72.808594 L 116.9375 71.132812 L 115.265625 71.132812 C 110.453125 71.132812 106.535156 75.046875 106.535156 79.859375 Z M 106.535156 81.535156 " fill-opacity="1" fill-rule="nonzero"/><path fill="#065f46" d="M 104.339844 73.523438 C 103.824219 73.523438 103.308594 73.324219 102.914062 72.933594 L 101.089844 71.109375 C 96.566406 66.585938 96.566406 59.222656 101.089844 54.699219 L 102.914062 52.875 C 103.703125 52.085938 104.976562 52.085938 105.765625 52.875 L 107.589844 54.699219 C 112.113281 59.222656 112.113281 66.585938 107.589844 71.109375 L 105.765625 72.933594 C 105.371094 73.324219 104.855469 73.523438 104.339844 73.523438 Z M 104.339844 57.152344 L 103.941406 57.550781 C 100.992188 60.5 100.992188 65.304688 103.941406 68.257812 L 104.339844 68.65625 L 104.738281 68.257812 C 107.691406 65.304688 107.6875 60.5 104.738281 57.550781 Z M 104.339844 57.152344 " fill-opacity="1" fill-rule="nonzero"/><g clip-path="url(#e94799cec7)"><path fill="#065f46" d="M 108.128906 144.722656 L 34.433594 144.722656 C 28.734375 144.722656 24.101562 140.089844 24.101562 134.390625 L 24.101562 33.089844 C 24.101562 27.394531 28.734375 22.757812 34.433594 22.757812 L 49.96875 22.757812 C 51.082031 22.757812 51.984375 23.660156 51.984375 24.773438 C 51.984375 25.886719 51.082031 26.789062 49.96875 26.789062 L 34.433594 26.789062 C 30.960938 26.789062 28.132812 29.617188 28.132812 33.089844 L 28.132812 134.390625 C 28.132812 137.863281 30.960938 140.691406 34.433594 140.691406 L 108.128906 140.691406 C 111.601562 140.691406 114.429688 137.863281 114.429688 134.390625 L 114.429688 95.8125 C 114.429688 94.699219 115.332031 93.796875 116.445312 93.796875 C 117.558594 93.796875 118.460938 94.699219 118.460938 95.8125 L 118.460938 134.390625 C 118.460938 140.089844 113.828125 144.722656 108.128906 144.722656 Z M 108.128906 144.722656 " fill-opacity="1" fill-rule="nonzero"/></g><path fill="#065f46" d="M 116.445312 48.582031 C 115.332031 48.582031 114.429688 47.679688 114.429688 46.566406 L 114.429688 33.089844 C 114.429688 29.617188 111.601562 26.789062 108.128906 26.789062 L 92.59375 26.789062 C 91.480469 26.789062 90.578125 25.886719 90.578125 24.773438 C 90.578125 23.660156 91.480469 22.757812 92.59375 22.757812 L 108.128906 22.757812 C 113.828125 22.757812 118.460938 27.394531 118.460938 33.089844 L 118.460938 46.566406 C 118.460938 47.679688 117.558594 48.582031 116.445312 48.582031 Z M 116.445312 48.582031 " fill-opacity="1" fill-rule="nonzero"/><g clip-path="url(#6aa8e23edd)"><path fill="#065f46" d="M 88.855469 34.949219 L 53.707031 34.949219 C 50.535156 34.949219 47.953125 32.363281 47.953125 29.191406 L 47.953125 20.355469 C 47.953125 17.183594 50.535156 14.601562 53.707031 14.601562 L 60.039062 14.601562 C 60.992188 9.261719 65.671875 5.195312 71.28125 5.195312 C 76.890625 5.195312 81.570312 9.261719 82.523438 14.601562 L 88.855469 14.601562 C 92.027344 14.601562 94.609375 17.183594 94.609375 20.355469 L 94.609375 29.191406 C 94.609375 32.363281 92.027344 34.949219 88.855469 34.949219 Z M 53.707031 18.632812 C 52.757812 18.632812 51.984375 19.40625 51.984375 20.355469 L 51.984375 29.191406 C 51.984375 30.140625 52.757812 30.914062 53.707031 30.914062 L 88.855469 30.914062 C 89.804688 30.914062 90.578125 30.140625 90.578125 29.191406 L 90.578125 20.355469 C 90.578125 19.40625 89.804688 18.632812 88.855469 18.632812 L 80.6875 18.632812 C 79.570312 18.632812 78.667969 17.730469 78.667969 16.617188 C 78.667969 12.542969 75.355469 9.226562 71.28125 9.226562 C 67.207031 9.226562 63.894531 12.542969 63.894531 16.617188 C 63.894531 17.730469 62.992188 18.632812 61.875 18.632812 Z M 53.707031 18.632812 " fill-opacity="1" fill-rule="nonzero"/></g><g clip-path="url(#f998dec28b)"><path fill="#065f46" d="M 90.140625 107.835938 C 88.980469 107.835938 87.84375 107.382812 86.984375 106.527344 L 78.289062 97.828125 C 73.691406 97.792969 69.960938 94.039062 69.960938 89.429688 L 69.960938 52.949219 C 69.960938 48.316406 73.726562 44.550781 78.359375 44.550781 L 130.679688 44.550781 C 135.3125 44.550781 139.082031 48.316406 139.082031 52.949219 L 139.082031 89.429688 C 139.082031 94.0625 135.3125 97.828125 130.679688 97.828125 L 94.609375 97.828125 L 94.609375 103.367188 C 94.609375 105.179688 93.527344 106.800781 91.851562 107.492188 C 91.296875 107.722656 90.714844 107.835938 90.140625 107.835938 Z M 78.359375 48.582031 C 75.953125 48.582031 73.992188 50.542969 73.992188 52.949219 L 73.992188 89.429688 C 73.992188 91.835938 75.953125 93.796875 78.359375 93.796875 L 79.125 93.796875 C 79.660156 93.796875 80.171875 94.007812 80.550781 94.386719 L 89.835938 103.675781 C 89.972656 103.808594 90.132812 103.84375 90.308594 103.769531 C 90.488281 103.695312 90.578125 103.558594 90.578125 103.367188 L 90.578125 95.8125 C 90.578125 94.699219 91.480469 93.796875 92.59375 93.796875 L 130.679688 93.796875 C 133.089844 93.796875 135.050781 91.835938 135.050781 89.429688 L 135.050781 52.949219 C 135.050781 50.542969 133.089844 48.582031 130.679688 48.582031 Z M 78.359375 48.582031 " fill-opacity="1" fill-rule="nonzero"/></g><path fill="#065f46" d="M 71.976562 132.074219 L 39.503906 132.074219 C 38.390625 132.074219 37.488281 131.171875 37.488281 130.058594 L 37.488281 98.273438 C 37.488281 97.160156 38.390625 96.257812 39.503906 96.257812 C 40.617188 96.257812 41.519531 97.160156 41.519531 98.273438 L 41.519531 128.042969 L 71.976562 128.042969 C 73.089844 128.042969 73.992188 128.945312 73.992188 130.058594 C 73.992188 131.171875 73.089844 132.074219 71.976562 132.074219 Z M 71.976562 132.074219 " fill-opacity="1" fill-rule="nonzero"/><path fill="#065f46" d="M 48.449219 118.460938 C 47.871094 118.460938 47.296875 118.214844 46.898438 117.738281 C 46.1875 116.882812 46.300781 115.609375 47.15625 114.898438 L 55.664062 107.808594 C 56.441406 107.160156 57.578125 107.191406 58.324219 107.878906 L 64.628906 113.71875 L 76.300781 103.238281 C 77.128906 102.496094 78.40625 102.5625 79.148438 103.390625 C 79.894531 104.21875 79.824219 105.496094 78.996094 106.238281 L 65.953125 117.945312 C 65.179688 118.640625 64.003906 118.632812 63.238281 117.925781 L 56.882812 112.042969 L 49.738281 117.996094 C 49.363281 118.308594 48.90625 118.460938 48.449219 118.460938 Z M 48.449219 118.460938 " fill-opacity="1" fill-rule="nonzero"/><path fill="#065f46" d="M 63.046875 74.222656 L 39.503906 74.222656 C 38.390625 74.222656 37.488281 73.320312 37.488281 72.207031 C 37.488281 71.09375 38.390625 70.191406 39.503906 70.191406 L 63.046875 70.191406 C 64.160156 70.191406 65.066406 71.09375 65.066406 72.207031 C 65.066406 73.320312 64.160156 74.222656 63.046875 74.222656 Z M 63.046875 74.222656 " fill-opacity="1" fill-rule="nonzero"/><path fill="#065f46" d="M 63.046875 85.585938 L 39.503906 85.585938 C 38.390625 85.585938 37.488281 84.683594 37.488281 83.566406 C 37.488281 82.453125 38.390625 81.550781 39.503906 81.550781 L 63.046875 81.550781 C 64.160156 81.550781 65.066406 82.453125 65.066406 83.566406 C 65.066406 84.683594 64.160156 85.585938 63.046875 85.585938 Z M 63.046875 85.585938 " fill-opacity="1" fill-rule="nonzero"/><path fill="#065f46" d="M 49.339844 63.59375 C 42.804688 63.59375 37.488281 58.273438 37.488281 51.738281 C 37.488281 45.203125 42.804688 39.886719 49.339844 39.886719 C 55.875 39.886719 61.191406 45.203125 61.191406 51.738281 C 61.191406 58.273438 55.875 63.59375 49.339844 63.59375 Z M 49.339844 43.917969 C 45.027344 43.917969 41.519531 47.425781 41.519531 51.738281 C 41.519531 56.050781 45.027344 59.558594 49.339844 59.558594 C 53.652344 59.558594 57.160156 56.050781 57.160156 51.738281 C 57.160156 47.425781 53.652344 43.917969 49.339844 43.917969 Z M 49.339844 43.917969 " fill-opacity="1" fill-rule="nonzero"/></svg>