<svg xmlns="http://www.w3.org/2000/svg" xmlns:xlink="http://www.w3.org/1999/xlink" width="320" zoomAndPan="magnify" viewBox="0 0 240 247.92" height="320" preserveAspectRatio="xMidYMid meet" version="1.0"><defs><clipPath id="f301df6101"><path d="M 7.519531 188 L 229.449219 188 L 229.449219 225.382812 L 7.519531 225.382812 Z M 7.519531 188 " clip-rule="nonzero"/></clipPath><clipPath id="e6fe15f2ed"><path d="M 53 11.699219 L 184 11.699219 L 184 121 L 53 121 Z M 53 11.699219 " clip-rule="nonzero"/></clipPath></defs><path fill="#16a34a" d="M 96.148438 193.746094 L 25.679688 193.746094 C 24.25 193.746094 23.078125 192.574219 23.078125 191.144531 L 23.078125 76.125 C 23.078125 67.890625 29.796875 61.171875 38.03125 61.171875 L 55.714844 61.171875 C 57.144531 61.171875 58.3125 62.34375 58.3125 63.773438 C 58.3125 65.203125 57.144531 66.375 55.714844 66.375 L 38.03125 66.375 C 32.65625 66.375 28.28125 70.75 28.28125 76.125 L 28.28125 188.542969 L 96.148438 188.542969 C 97.578125 188.542969 98.75 189.714844 98.75 191.144531 C 98.75 192.574219 97.578125 193.746094 96.148438 193.746094 Z M 96.148438 193.746094 " fill-opacity="1" fill-rule="nonzero"/><path fill="#16a34a" d="M 211.253906 193.746094 L 140.785156 193.746094 C 139.355469 193.746094 138.1875 192.574219 138.1875 191.144531 C 138.1875 189.714844 139.355469 188.542969 140.785156 188.542969 L 208.65625 188.542969 L 208.65625 76.125 C 208.65625 70.75 204.277344 66.375 198.902344 66.375 L 181.222656 66.375 C 179.792969 66.375 178.621094 65.203125 178.621094 63.773438 C 178.621094 62.34375 179.792969 61.171875 181.222656 61.171875 L 198.902344 61.171875 C 207.136719 61.171875 213.855469 67.890625 213.855469 76.125 L 213.855469 191.144531 C 213.855469 192.617188 212.6875 193.746094 211.253906 193.746094 Z M 211.253906 193.746094 " fill-opacity="1" fill-rule="nonzero"/><g clip-path="url(#f301df6101)"><path fill="#16a34a" d="M 195.351562 225.253906 L 41.585938 225.253906 C 22.820312 225.253906 7.519531 209.953125 7.519531 191.144531 C 7.519531 189.714844 8.691406 188.542969 10.121094 188.542969 L 96.148438 188.542969 C 97.578125 188.542969 98.75 189.714844 98.75 191.144531 C 98.75 192.574219 97.578125 193.746094 96.148438 193.746094 L 12.851562 193.746094 C 14.152344 208.4375 26.546875 220.007812 41.628906 220.007812 L 195.351562 220.007812 C 210.390625 220.007812 222.785156 208.4375 224.128906 193.746094 L 140.785156 193.746094 C 139.355469 193.746094 138.1875 192.574219 138.1875 191.144531 C 138.1875 189.714844 139.355469 188.542969 140.785156 188.542969 L 226.8125 188.542969 C 228.246094 188.542969 229.414062 189.714844 229.414062 191.144531 C 229.414062 209.953125 214.117188 225.253906 195.351562 225.253906 Z M 195.351562 225.253906 " fill-opacity="1" fill-rule="nonzero"/></g><path fill="#16a34a" d="M 140.785156 209.519531 L 96.148438 209.519531 C 94.71875 209.519531 93.546875 208.351562 93.546875 206.921875 L 93.546875 191.1875 C 93.546875 189.757812 94.71875 188.589844 96.148438 188.589844 C 97.578125 188.589844 98.75 189.757812 98.75 191.1875 L 98.75 204.320312 L 138.1875 204.320312 L 138.1875 191.1875 C 138.1875 189.757812 139.355469 188.589844 140.785156 188.589844 C 142.21875 188.589844 143.386719 189.757812 143.386719 191.1875 L 143.386719 206.921875 C 143.386719 208.351562 142.21875 209.519531 140.785156 209.519531 Z M 140.785156 209.519531 " fill-opacity="1" fill-rule="nonzero"/><g clip-path="url(#e6fe15f2ed)"><path fill="#16a34a" d="M 168.046875 120.632812 L 68.886719 120.632812 C 60.175781 120.632812 53.113281 113.570312 53.113281 104.859375 L 53.113281 62.34375 C 53.113281 53.804688 60.046875 46.742188 68.585938 46.566406 L 107.199219 45.789062 C 110.710938 45.699219 113.917969 43.925781 115.824219 41.019531 L 130.34375 18.875 C 133.246094 14.410156 138.1875 11.722656 143.515625 11.722656 L 168.046875 11.722656 C 176.757812 11.722656 183.820312 18.789062 183.820312 27.5 L 183.820312 104.816406 C 183.820312 113.570312 176.714844 120.632812 168.046875 120.632812 Z M 143.515625 16.96875 C 139.921875 16.96875 136.625 18.746094 134.675781 21.734375 L 120.15625 43.882812 C 117.296875 48.257812 112.488281 50.902344 107.285156 50.988281 L 68.671875 51.769531 C 62.949219 51.898438 58.3125 56.621094 58.3125 62.34375 L 58.3125 104.859375 C 58.3125 110.707031 63.039062 115.433594 68.886719 115.433594 L 168.003906 115.433594 C 173.855469 115.433594 178.578125 110.707031 178.578125 104.859375 L 178.578125 27.542969 C 178.578125 21.691406 173.855469 16.96875 168.003906 16.96875 Z M 143.515625 16.96875 " fill-opacity="1" fill-rule="nonzero"/></g><path fill="#16a34a" d="M 59.65625 55.582031 C 58.226562 55.582031 57.058594 54.414062 57.058594 52.980469 L 57.058594 28.019531 C 57.058594 22.515625 61.519531 18.007812 67.066406 18.007812 L 132.335938 18.007812 C 133.765625 18.007812 134.9375 19.179688 134.9375 20.609375 C 134.9375 22.039062 133.765625 23.207031 132.335938 23.207031 L 67.023438 23.207031 C 64.382812 23.207031 62.214844 25.375 62.214844 28.019531 L 62.214844 52.980469 C 62.257812 54.414062 61.085938 55.582031 59.65625 55.582031 Z M 59.65625 55.582031 " fill-opacity="1" fill-rule="nonzero"/><path fill="#16a34a" d="M 167.832031 109.753906 L 69.105469 109.753906 C 67.675781 109.753906 66.503906 108.585938 66.503906 107.15625 C 66.503906 105.726562 67.675781 104.554688 69.105469 104.554688 L 167.785156 104.554688 C 169.21875 104.554688 170.386719 105.726562 170.386719 107.15625 C 170.386719 108.585938 169.261719 109.753906 167.832031 109.753906 Z M 167.832031 109.753906 " fill-opacity="1" fill-rule="nonzero"/><path fill="#16a34a" d="M 167.832031 92.765625 L 69.105469 92.765625 C 67.675781 92.765625 66.503906 91.597656 66.503906 90.167969 C 66.503906 88.734375 67.675781 87.566406 69.105469 87.566406 L 167.785156 87.566406 C 169.21875 87.566406 170.386719 88.734375 170.386719 90.167969 C 170.386719 91.597656 169.261719 92.765625 167.832031 92.765625 Z M 167.832031 92.765625 " fill-opacity="1" fill-rule="nonzero"/><path fill="#16a34a" d="M 167.832031 75.820312 L 69.105469 75.820312 C 67.675781 75.820312 66.503906 74.652344 66.503906 73.222656 C 66.503906 71.789062 67.675781 70.621094 69.105469 70.621094 L 167.785156 70.621094 C 169.21875 70.621094 170.386719 71.789062 170.386719 73.222656 C 170.386719 74.652344 169.261719 75.820312 167.832031 75.820312 Z M 167.832031 75.820312 " fill-opacity="1" fill-rule="nonzero"/><path fill="#16a34a" d="M 167.832031 58.832031 L 118.46875 58.832031 C 117.039062 58.832031 115.867188 57.664062 115.867188 56.230469 C 115.867188 54.800781 117.039062 53.632812 118.46875 53.632812 L 167.832031 53.632812 C 169.261719 53.632812 170.429688 54.800781 170.429688 56.230469 C 170.429688 57.664062 169.261719 58.832031 167.832031 58.832031 Z M 167.832031 58.832031 " fill-opacity="1" fill-rule="nonzero"/><path fill="#16a34a" d="M 167.832031 41.886719 L 132.335938 41.886719 C 130.90625 41.886719 129.734375 40.71875 129.734375 39.285156 C 129.734375 37.855469 130.90625 36.6875 132.335938 36.6875 L 167.832031 36.6875 C 169.261719 36.6875 170.429688 37.855469 170.429688 39.285156 C 170.429688 40.71875 169.261719 41.886719 167.832031 41.886719 Z M 167.832031 41.886719 " fill-opacity="1" fill-rule="nonzero"/><path fill="#16a34a" d="M 125.574219 190.0625 L 111.359375 190.0625 C 109.929688 190.0625 108.761719 188.890625 108.761719 187.460938 L 108.761719 153.3125 C 108.761719 151.878906 109.929688 150.710938 111.359375 150.710938 L 125.574219 150.710938 C 127.003906 150.710938 128.175781 151.878906 128.175781 153.3125 L 128.175781 187.460938 C 128.175781 188.890625 127.003906 190.0625 125.574219 190.0625 Z M 113.960938 184.859375 L 122.976562 184.859375 L 122.976562 155.910156 L 113.960938 155.910156 Z M 113.960938 184.859375 " fill-opacity="1" fill-rule="nonzero"/><path fill="#16a34a" d="M 134.761719 155.910156 L 102.171875 155.910156 C 101.261719 155.910156 100.394531 155.433594 99.917969 154.609375 C 99.441406 153.789062 99.441406 152.832031 99.917969 152.011719 L 116.214844 123.796875 C 116.691406 122.972656 117.558594 122.496094 118.46875 122.496094 C 119.378906 122.496094 120.246094 122.972656 120.722656 123.796875 L 137.015625 152.011719 C 137.492188 152.832031 137.492188 153.789062 137.015625 154.609375 C 136.539062 155.433594 135.714844 155.910156 134.761719 155.910156 Z M 106.679688 150.710938 L 130.253906 150.710938 L 118.46875 130.296875 Z M 106.679688 150.710938 " fill-opacity="1" fill-rule="nonzero"/></svg>