<svg xmlns="http://www.w3.org/2000/svg" xmlns:xlink="http://www.w3.org/1999/xlink" width="40" zoomAndPan="magnify" viewBox="0 0 30 30.000001" height="40" preserveAspectRatio="xMidYMid meet" version="1.0"><defs><clipPath id="fd67cf50a9"><path d="M 2.414062 1.769531 L 27.816406 1.769531 L 27.816406 27.171875 L 2.414062 27.171875 Z M 2.414062 1.769531 " clip-rule="nonzero"/></clipPath></defs><g clip-path="url(#fd67cf50a9)"><path fill="#16a34a" d="M 11.46875 22.355469 L 17.734375 20.265625 L 11.476562 20.265625 C 11.203125 20.265625 10.984375 20.042969 10.984375 19.773438 C 10.984375 19.5 11.203125 19.277344 11.476562 19.277344 L 18.121094 19.277344 C 18.574219 19.277344 18.957031 19.605469 19.03125 20.050781 C 19.105469 20.503906 18.84375 20.933594 18.40625 21.078125 L 11.769531 23.292969 C 11.660156 23.324219 11.566406 23.339844 11.476562 23.339844 C 11.203125 23.339844 10.984375 23.117188 10.984375 22.847656 C 10.984375 22.578125 11.199219 22.359375 11.46875 22.355469 Z M 18.351562 25.234375 C 18.339844 25.246094 17.234375 26.320312 15.078125 26.320312 C 13.238281 26.320312 12.160156 25.539062 11.878906 25.300781 L 18.414062 23.125 C 18.671875 23.039062 18.8125 22.757812 18.726562 22.5 C 18.640625 22.242188 18.363281 22.105469 18.105469 22.1875 L 11.464844 24.398438 C 11.160156 24.5 10.929688 24.757812 10.855469 25.066406 C 10.785156 25.375 10.878906 25.707031 11.101562 25.929688 C 11.15625 25.984375 12.496094 27.308594 15.078125 27.308594 C 17.65625 27.308594 18.996094 25.984375 19.050781 25.929688 C 19.242188 25.734375 19.238281 25.425781 19.046875 25.234375 C 18.855469 25.042969 18.542969 25.042969 18.351562 25.234375 Z M 15.015625 2.890625 C 10.84375 2.890625 7.449219 6.285156 7.449219 10.453125 C 7.449219 12.5625 8.546875 14.191406 9.519531 15.640625 C 10.191406 16.632812 10.769531 17.492188 10.769531 18.203125 C 10.769531 18.476562 10.992188 18.695312 11.261719 18.695312 C 11.535156 18.695312 11.757812 18.476562 11.757812 18.203125 C 11.757812 17.191406 11.097656 16.214844 10.332031 15.078125 C 9.441406 13.757812 8.433594 12.261719 8.433594 10.453125 C 8.433594 6.828125 11.386719 3.878906 15.015625 3.878906 C 18.640625 3.878906 21.589844 6.828125 21.589844 10.453125 C 21.589844 12.261719 20.582031 13.761719 19.691406 15.082031 C 18.929688 16.210938 18.273438 17.1875 18.273438 18.203125 C 18.273438 18.476562 18.492188 18.695312 18.765625 18.695312 C 19.035156 18.695312 19.257812 18.476562 19.257812 18.203125 C 19.257812 17.488281 19.835938 16.628906 20.507812 15.632812 C 21.476562 14.195312 22.578125 12.566406 22.578125 10.453125 C 22.578125 6.285156 19.183594 2.890625 15.015625 2.890625 Z M 15.378906 6.078125 C 15.378906 5.804688 15.15625 5.585938 14.886719 5.585938 C 12.269531 5.585938 10.144531 7.714844 10.144531 10.328125 C 10.144531 10.601562 10.367188 10.820312 10.636719 10.820312 C 10.910156 10.820312 11.128906 10.601562 11.128906 10.328125 C 11.128906 8.257812 12.816406 6.570312 14.886719 6.570312 C 15.15625 6.570312 15.378906 6.351562 15.378906 6.078125 Z M 6.519531 10.453125 C 6.519531 10.179688 6.300781 9.960938 6.027344 9.960938 L 2.890625 9.960938 C 2.621094 9.960938 2.398438 10.179688 2.398438 10.453125 C 2.398438 10.726562 2.621094 10.945312 2.890625 10.945312 L 6.027344 10.945312 C 6.300781 10.945312 6.519531 10.726562 6.519531 10.453125 Z M 27.136719 9.960938 L 23.996094 9.960938 C 23.726562 9.960938 23.503906 10.179688 23.503906 10.453125 C 23.503906 10.726562 23.726562 10.945312 23.996094 10.945312 L 27.136719 10.945312 C 27.40625 10.945312 27.628906 10.726562 27.628906 10.453125 C 27.628906 10.179688 27.40625 9.960938 27.136719 9.960938 Z M 7.941406 4.609375 C 8.027344 4.675781 8.128906 4.703125 8.230469 4.703125 C 8.382812 4.703125 8.53125 4.632812 8.628906 4.5 C 8.789062 4.28125 8.738281 3.972656 8.519531 3.8125 L 5.980469 1.96875 C 5.761719 1.808594 5.453125 1.855469 5.292969 2.078125 C 5.132812 2.300781 5.183594 2.605469 5.402344 2.765625 Z M 7.941406 16.300781 L 5.402344 18.144531 C 5.183594 18.304688 5.132812 18.613281 5.292969 18.832031 C 5.390625 18.964844 5.539062 19.035156 5.691406 19.035156 C 5.792969 19.035156 5.894531 19.003906 5.980469 18.941406 L 8.519531 17.097656 C 8.738281 16.9375 8.789062 16.628906 8.628906 16.410156 C 8.46875 16.1875 8.160156 16.140625 7.941406 16.300781 Z M 21.796875 4.703125 C 21.898438 4.703125 22 4.675781 22.085938 4.609375 L 24.625 2.769531 C 24.84375 2.605469 24.894531 2.300781 24.734375 2.078125 C 24.574219 1.855469 24.265625 1.808594 24.046875 1.96875 L 21.507812 3.8125 C 21.285156 3.972656 21.238281 4.28125 21.398438 4.5 C 21.496094 4.632812 21.644531 4.703125 21.796875 4.703125 Z M 22.085938 16.300781 C 21.867188 16.140625 21.558594 16.1875 21.398438 16.410156 C 21.238281 16.628906 21.285156 16.9375 21.507812 17.097656 L 24.046875 18.941406 C 24.132812 19.003906 24.234375 19.035156 24.335938 19.035156 C 24.488281 19.035156 24.636719 18.964844 24.734375 18.832031 C 24.894531 18.613281 24.84375 18.304688 24.625 18.144531 Z M 22.085938 16.300781 " fill-opacity="1" fill-rule="nonzero"/></g></svg>