<svg xmlns="http://www.w3.org/2000/svg" xmlns:xlink="http://www.w3.org/1999/xlink" width="200" zoomAndPan="magnify" viewBox="0 0 150 157.92" height="200" preserveAspectRatio="xMidYMid meet" version="1.0"><defs><clipPath id="cbdfc572f1"><path d="M 4 15 L 146 15 L 146 134.933594 L 4 134.933594 Z M 4 15 " clip-rule="nonzero"/></clipPath></defs><g clip-path="url(#cbdfc572f1)"><path fill="#065f46" d="M 136.800781 15.011719 L 13.195312 15.011719 C 8.65625 15.011719 4.960938 18.707031 4.960938 23.242188 L 4.960938 108.269531 C 4.960938 112.816406 8.65625 116.511719 13.195312 116.511719 L 53.394531 116.511719 L 53.394531 126.414062 L 52.324219 126.414062 C 49.980469 126.414062 48.074219 128.320312 48.074219 130.664062 C 48.074219 133.015625 49.980469 134.921875 52.324219 134.921875 L 97.660156 134.921875 C 100.011719 134.921875 101.910156 133.015625 101.910156 130.664062 C 101.910156 128.320312 100.011719 126.414062 97.660156 126.414062 L 96.601562 126.414062 L 96.601562 116.511719 L 136.800781 116.511719 C 141.339844 116.511719 145.035156 112.816406 145.035156 108.269531 L 145.035156 23.242188 C 145.035156 18.707031 141.339844 15.011719 136.800781 15.011719 Z M 138.65625 108.265625 C 138.65625 109.289062 137.820312 110.128906 136.800781 110.128906 L 13.195312 110.128906 C 12.171875 110.128906 11.339844 109.292969 11.339844 108.265625 L 11.339844 23.242188 C 11.339844 22.226562 12.164062 21.386719 13.195312 21.386719 L 136.800781 21.386719 C 137.816406 21.386719 138.65625 22.222656 138.65625 23.242188 Z M 138.65625 108.265625 " fill-opacity="1" fill-rule="nonzero"/></g><path fill="#065f46" d="M 31.421875 70.535156 L 22.925781 70.535156 C 20.574219 70.535156 18.667969 72.4375 18.667969 74.785156 L 18.667969 102.59375 L 35.671875 102.59375 L 35.671875 74.785156 C 35.671875 72.4375 33.765625 70.535156 31.421875 70.535156 Z M 31.421875 70.535156 " fill-opacity="1" fill-rule="nonzero"/><path fill="#065f46" d="M 55.335938 62.210938 L 46.839844 62.210938 C 44.488281 62.210938 42.578125 64.121094 42.578125 66.460938 L 42.578125 102.59375 L 59.585938 102.59375 L 59.585938 66.460938 C 59.585938 64.113281 57.675781 62.210938 55.335938 62.210938 Z M 55.335938 62.210938 " fill-opacity="1" fill-rule="nonzero"/><path fill="#065f46" d="M 79.25 78.421875 L 70.753906 78.421875 C 68.402344 78.421875 66.492188 80.328125 66.492188 82.671875 L 66.492188 102.59375 L 83.5 102.59375 L 83.5 82.671875 C 83.496094 80.328125 81.589844 78.421875 79.25 78.421875 Z M 79.25 78.421875 " fill-opacity="1" fill-rule="nonzero"/><path fill="#065f46" d="M 103.160156 57.960938 L 94.664062 57.960938 C 92.316406 57.960938 90.40625 59.867188 90.40625 62.210938 L 90.40625 102.59375 L 107.414062 102.59375 L 107.414062 62.210938 C 107.40625 59.867188 105.511719 57.960938 103.160156 57.960938 Z M 103.160156 57.960938 " fill-opacity="1" fill-rule="nonzero"/><path fill="#065f46" d="M 127.070312 49.464844 L 118.574219 49.464844 C 116.222656 49.464844 114.316406 51.363281 114.316406 53.714844 L 114.316406 102.59375 L 131.320312 102.59375 L 131.320312 53.714844 C 131.320312 51.359375 129.425781 49.464844 127.070312 49.464844 Z M 127.070312 49.464844 " fill-opacity="1" fill-rule="nonzero"/><path fill="#065f46" d="M 27.171875 60.417969 C 29.984375 60.417969 32.265625 58.125 32.265625 55.3125 C 32.265625 55.285156 32.257812 55.25 32.257812 55.222656 L 47.050781 50.078125 C 47.980469 51.289062 49.433594 52.085938 51.085938 52.085938 C 52.257812 52.085938 53.316406 51.675781 54.179688 51.007812 L 70.109375 61.808594 C 69.992188 62.253906 69.894531 62.714844 69.894531 63.191406 C 69.894531 66.015625 72.175781 68.296875 75 68.296875 C 77.8125 68.296875 80.09375 66.015625 80.09375 63.191406 C 80.09375 62.507812 79.957031 61.855469 79.707031 61.261719 L 96.277344 47.085938 C 97.046875 47.554688 97.945312 47.839844 98.910156 47.839844 C 101.726562 47.839844 104.007812 45.558594 104.007812 42.734375 C 104.007812 42.699219 104 42.65625 104 42.625 L 118.816406 37.351562 C 119.746094 38.554688 121.191406 39.34375 122.824219 39.34375 C 125.640625 39.34375 127.929688 37.054688 127.929688 34.238281 C 127.929688 31.417969 125.640625 29.136719 122.824219 29.136719 C 120 29.136719 117.722656 31.417969 117.722656 34.238281 C 117.722656 34.273438 117.730469 34.320312 117.738281 34.347656 L 102.921875 39.625 C 101.988281 38.421875 100.542969 37.632812 98.910156 37.632812 C 96.089844 37.632812 93.808594 39.914062 93.808594 42.734375 C 93.808594 43.417969 93.953125 44.078125 94.191406 44.675781 L 77.632812 58.847656 C 76.855469 58.378906 75.964844 58.097656 75 58.097656 C 73.824219 58.097656 72.757812 58.507812 71.894531 59.171875 L 55.964844 48.367188 C 56.09375 47.925781 56.179688 47.46875 56.179688 46.980469 C 56.179688 44.167969 53.898438 41.886719 51.085938 41.886719 C 48.261719 41.886719 45.980469 44.167969 45.980469 46.980469 C 45.980469 47.015625 45.988281 47.042969 45.988281 47.074219 L 31.199219 52.222656 C 30.265625 51.007812 28.8125 50.203125 27.171875 50.203125 C 24.347656 50.203125 22.066406 52.492188 22.066406 55.308594 C 22.066406 58.121094 24.351562 60.417969 27.171875 60.417969 Z M 27.171875 60.417969 " fill-opacity="1" fill-rule="nonzero"/></svg>