<svg xmlns="http://www.w3.org/2000/svg" xmlns:xlink="http://www.w3.org/1999/xlink" width="320" zoomAndPan="magnify" viewBox="0 0 240 247.92" height="320" preserveAspectRatio="xMidYMid meet" version="1.0"><defs><clipPath id="bd6e940c62"><path d="M 11.558594 24 L 231.988281 24 L 231.988281 219.679688 L 11.558594 219.679688 Z M 11.558594 24 " clip-rule="nonzero"/></clipPath></defs><g clip-path="url(#bd6e940c62)"><path fill="#20a751" d="M 180.359375 67.027344 C 178.609375 67.027344 177.1875 65.609375 177.1875 63.859375 C 177.1875 62.105469 178.609375 60.6875 180.359375 60.6875 L 202.347656 60.6875 L 202.425781 60.691406 L 202.429688 60.691406 L 202.507812 60.695312 L 202.589844 60.703125 L 202.667969 60.710938 L 202.824219 60.734375 L 202.824219 60.738281 L 202.902344 60.75 L 202.980469 60.769531 L 203.054688 60.785156 L 203.058594 60.785156 L 203.132812 60.804688 L 203.132812 60.808594 L 203.207031 60.828125 L 203.28125 60.851562 L 203.355469 60.878906 L 203.425781 60.90625 L 203.5 60.933594 L 203.5 60.9375 L 203.570312 60.964844 L 203.570312 60.96875 L 203.640625 61 L 203.707031 61.03125 L 203.707031 61.035156 L 203.777344 61.070312 L 203.84375 61.105469 L 203.910156 61.144531 L 203.972656 61.183594 L 203.972656 61.1875 L 204.039062 61.226562 L 204.039062 61.230469 L 204.097656 61.269531 L 204.101562 61.273438 L 204.160156 61.316406 L 204.222656 61.363281 L 204.28125 61.410156 L 204.398438 61.511719 L 204.507812 61.613281 L 204.507812 61.617188 L 204.5625 61.671875 L 204.664062 61.78125 L 204.757812 61.898438 L 204.757812 61.902344 L 204.804688 61.960938 L 204.851562 62.023438 L 204.9375 62.148438 L 204.976562 62.210938 L 204.976562 62.214844 L 205.015625 62.28125 L 205.050781 62.347656 L 205.054688 62.347656 L 205.089844 62.414062 L 205.121094 62.484375 L 205.125 62.484375 L 205.15625 62.550781 L 205.15625 62.554688 L 205.1875 62.625 L 205.242188 62.765625 L 205.242188 62.769531 L 205.269531 62.839844 L 205.316406 62.988281 L 205.335938 63.066406 L 205.355469 63.140625 L 205.386719 63.296875 L 205.410156 63.453125 L 205.417969 63.535156 L 205.425781 63.613281 L 205.429688 63.695312 L 205.433594 63.695312 L 205.433594 63.777344 L 205.4375 63.777344 L 205.4375 85.761719 C 205.4375 87.515625 204.015625 88.933594 202.265625 88.933594 C 200.511719 88.933594 199.09375 87.515625 199.09375 85.761719 L 199.09375 73.539062 C 181.640625 96.296875 160.015625 115.125 135.644531 129.199219 C 108.507812 144.875 77.96875 154.648438 46 157.386719 C 44.257812 157.53125 42.726562 156.230469 42.582031 154.488281 C 42.4375 152.742188 43.734375 151.210938 45.480469 151.070312 C 76.515625 148.410156 106.148438 138.925781 132.476562 123.730469 L 132.488281 123.730469 C 157.085938 109.527344 178.808594 90.324219 196.089844 67.027344 Z M 63.835938 118.285156 C 64.644531 118.605469 65.578125 118.59375 66.414062 118.175781 C 67.980469 117.398438 68.621094 115.492188 67.839844 113.925781 C 61.429688 101.09375 66.058594 98.558594 71.132812 95.785156 C 76.132812 93.050781 81.421875 90.15625 82.628906 82.921875 C 84.472656 86.582031 85.339844 89.988281 85.210938 93.339844 C 84.976562 99.515625 81.34375 105.921875 74.199219 113.777344 C 73.429688 114.5625 73.089844 115.730469 73.410156 116.867188 C 73.890625 118.546875 75.644531 119.523438 77.328125 119.046875 C 84.753906 116.90625 91.71875 113 96.71875 107.4375 C 101.21875 102.429688 104.128906 96.109375 104.378906 88.558594 C 104.816406 75.683594 97.390625 67.929688 90.355469 60.582031 C 82.636719 52.523438 75.472656 45.039062 83.925781 30.761719 C 84.464844 29.847656 84.535156 28.6875 84.003906 27.679688 C 83.1875 26.132812 81.273438 25.539062 79.730469 26.351562 C 69.789062 31.589844 64.566406 38.214844 61.765625 45.933594 C 59.0625 53.382812 58.738281 61.625 58.554688 70.59375 L 58.550781 70.609375 C 58.519531 72.054688 58.058594 73.035156 57.4375 73.53125 C 57.226562 73.703125 57.003906 73.808594 56.800781 73.839844 C 56.628906 73.867188 56.453125 73.847656 56.296875 73.78125 C 55.878906 73.597656 55.476562 73.070312 55.210938 72.140625 C 54.632812 70.117188 54.464844 67.898438 54.714844 65.738281 C 54.953125 63.640625 55.578125 61.609375 56.585938 59.878906 C 57.300781 58.648438 57.113281 57.042969 56.042969 56.015625 C 54.78125 54.804688 52.78125 54.84375 51.570312 56.101562 C 46.625 61.242188 43.085938 67.089844 41.03125 73.121094 C 38.839844 79.554688 38.332031 86.214844 39.609375 92.472656 C 40.894531 98.785156 43.988281 104.664062 48.980469 109.464844 C 52.8125 113.152344 57.753906 116.195312 63.835938 118.285156 Z M 53.367188 104.90625 C 54.992188 106.472656 56.875 107.902344 59.019531 109.164062 C 55.308594 97.234375 61.464844 93.867188 68.109375 90.230469 C 73.234375 87.429688 78.792969 84.390625 75.292969 71.855469 C 74.972656 70.6875 75.339844 69.390625 76.332031 68.570312 C 77.679688 67.464844 79.671875 67.65625 80.78125 69.003906 C 88.199219 78.015625 91.832031 85.675781 91.53125 93.5625 C 91.351562 98.242188 89.792969 102.855469 86.824219 107.726562 C 88.742188 106.398438 90.492188 104.890625 92.007812 103.203125 C 95.566406 99.246094 97.863281 94.273438 98.0625 88.359375 C 98.410156 78.136719 91.933594 71.375 85.796875 64.964844 C 78.371094 57.210938 71.363281 49.890625 74 38.171875 C 70.992188 41.175781 69.015625 44.496094 67.710938 48.085938 C 65.335938 54.636719 65.042969 62.332031 64.871094 70.730469 L 64.871094 70.757812 C 64.789062 74.269531 63.355469 76.894531 61.402344 78.464844 C 60.320312 79.332031 59.066406 79.882812 57.765625 80.082031 C 56.433594 80.289062 55.070312 80.128906 53.792969 79.578125 C 51.722656 78.683594 49.953125 76.804688 49.113281 73.875 C 48.882812 73.058594 48.695312 72.21875 48.558594 71.371094 C 47.972656 72.617188 47.460938 73.882812 47.027344 75.152344 C 45.191406 80.542969 44.757812 86.070312 45.804688 91.207031 C 46.839844 96.292969 49.335938 101.03125 53.367188 104.90625 Z M 11.574219 27.347656 L 11.574219 215.933594 C 11.574219 217.6875 12.992188 219.105469 14.746094 219.105469 L 229.121094 219.105469 C 230.871094 219.105469 232.292969 217.6875 232.292969 215.933594 C 232.292969 214.183594 230.871094 212.761719 229.121094 212.761719 L 213.324219 212.761719 L 213.324219 106.0625 C 213.324219 104.3125 211.90625 102.890625 210.152344 102.890625 L 185.003906 102.890625 C 183.25 102.890625 181.832031 104.3125 181.832031 106.0625 L 181.832031 212.761719 L 163.488281 212.761719 L 163.488281 144.992188 C 163.488281 143.242188 162.070312 141.820312 160.316406 141.820312 L 135.167969 141.820312 C 133.417969 141.820312 131.996094 143.242188 131.996094 144.992188 L 131.996094 212.761719 L 113.65625 212.761719 L 113.65625 171.957031 C 113.65625 170.207031 112.234375 168.785156 110.484375 168.785156 L 85.335938 168.785156 C 83.582031 168.785156 82.164062 170.207031 82.164062 171.957031 L 82.164062 212.761719 L 63.820312 212.761719 L 63.820312 184.875 C 63.820312 183.125 62.402344 181.703125 60.648438 181.703125 L 35.5 181.703125 C 33.746094 181.703125 32.328125 183.125 32.328125 184.875 L 32.328125 212.761719 L 17.917969 212.761719 L 17.917969 27.347656 C 17.917969 25.597656 16.496094 24.175781 14.746094 24.175781 C 12.992188 24.175781 11.574219 25.597656 11.574219 27.347656 Z M 88.503906 212.761719 L 88.503906 175.128906 L 107.3125 175.128906 L 107.3125 212.761719 Z M 138.339844 212.761719 L 157.144531 212.761719 L 157.144531 148.164062 L 138.339844 148.164062 Z M 188.175781 212.761719 L 206.980469 212.761719 L 206.980469 109.234375 L 188.175781 109.234375 Z M 38.671875 212.761719 L 38.671875 188.046875 L 57.476562 188.046875 L 57.476562 212.761719 Z M 38.671875 212.761719 " fill-opacity="1" fill-rule="evenodd"/></g></svg>