<svg xmlns="http://www.w3.org/2000/svg" xmlns:xlink="http://www.w3.org/1999/xlink" width="320" zoomAndPan="magnify" viewBox="0 0 240 247.92" height="320" preserveAspectRatio="xMidYMid meet" version="1.0"><defs><clipPath id="dc5ffd373b"><path d="M 9.125 5.804688 L 227.304688 5.804688 L 227.304688 230.730469 L 9.125 230.730469 Z M 9.125 5.804688 " clip-rule="nonzero"/></clipPath></defs><g clip-path="url(#dc5ffd373b)"><path fill="#20a751" d="M 85.449219 178.1875 L 51.824219 218.503906 C 51.253906 219.191406 50.417969 219.605469 49.527344 219.644531 C 48.632812 219.683594 47.765625 219.347656 47.132812 218.71875 L 36.84375 208.433594 C 32.511719 204.105469 32.511719 197.0625 36.84375 192.734375 C 51.621094 177.957031 41.140625 152.636719 20.234375 152.636719 C 14.109375 152.636719 9.140625 147.667969 9.140625 141.542969 L 9.140625 117.445312 C 9.140625 111.320312 14.109375 106.351562 20.234375 106.351562 C 41.140625 106.351562 51.621094 81.03125 36.84375 66.253906 C 32.511719 61.921875 32.511719 54.898438 36.84375 50.566406 L 53.890625 33.515625 C 58.222656 29.1875 65.246094 29.1875 69.578125 33.515625 C 84.355469 48.292969 109.675781 37.816406 109.675781 16.910156 C 109.675781 10.78125 114.644531 5.8125 120.773438 5.8125 L 132.820312 5.8125 C 134.578125 5.8125 136 7.238281 136 8.996094 L 136 61.195312 C 136 62.953125 134.578125 64.378906 132.820312 64.378906 C 96.949219 64.382812 67.703125 93.628906 67.703125 129.5 C 67.703125 146.664062 74.40625 162.316406 85.328125 173.972656 C 86.425781 175.144531 86.476562 176.953125 85.449219 178.1875 Z M 78.796875 176.230469 C 67.925781 163.679688 61.339844 147.332031 61.339844 129.5 C 61.339844 91.1875 91.726562 59.761719 129.636719 58.085938 L 129.636719 12.175781 L 120.773438 12.175781 C 118.160156 12.175781 116.039062 14.296875 116.039062 16.910156 C 116.039062 43.480469 83.859375 56.796875 65.078125 38.015625 C 63.234375 36.171875 60.238281 36.171875 58.390625 38.015625 L 41.339844 55.066406 C 39.496094 56.914062 39.496094 59.90625 41.339844 61.753906 C 60.125 80.535156 46.804688 112.714844 20.234375 112.714844 C 17.621094 112.714844 15.503906 114.832031 15.503906 117.445312 L 15.503906 141.542969 C 15.503906 144.152344 17.621094 146.273438 20.234375 146.273438 C 46.804688 146.273438 60.125 178.453125 41.339844 197.234375 C 39.496094 199.082031 39.496094 202.085938 41.339844 203.933594 L 49.167969 211.753906 Z M 132.828125 190.582031 C 99.179688 190.582031 71.746094 163.132812 71.746094 129.5 C 71.746094 95.851562 99.179688 68.421875 132.828125 68.421875 C 166.460938 68.421875 193.90625 95.851562 193.90625 129.5 C 193.90625 163.132812 166.460938 190.582031 132.828125 190.582031 Z M 132.828125 184.214844 C 162.953125 184.214844 187.542969 159.628906 187.542969 129.5 C 187.542969 99.359375 162.953125 74.785156 132.828125 74.785156 C 102.683594 74.785156 78.109375 99.359375 78.109375 129.5 C 78.109375 159.628906 102.683594 184.214844 132.828125 184.214844 Z M 85.644531 132.683594 C 83.886719 132.683594 82.460938 131.257812 82.460938 129.5 C 82.460938 127.746094 83.886719 126.320312 85.644531 126.320312 L 92.472656 126.320312 C 94.230469 126.320312 95.65625 127.746094 95.65625 129.5 C 95.65625 131.257812 94.230469 132.683594 92.472656 132.683594 Z M 136.007812 176.683594 C 136.007812 178.441406 134.582031 179.867188 132.828125 179.867188 C 131.070312 179.867188 129.644531 178.441406 129.644531 176.683594 L 129.644531 169.851562 C 129.644531 168.097656 131.070312 166.671875 132.828125 166.671875 C 134.582031 166.671875 136.007812 168.097656 136.007812 169.851562 Z M 180.007812 126.320312 C 181.765625 126.320312 183.191406 127.746094 183.191406 129.5 C 183.191406 131.257812 181.765625 132.683594 180.007812 132.683594 L 173.179688 132.683594 C 171.421875 132.683594 169.996094 131.257812 169.996094 129.5 C 169.996094 127.746094 171.421875 126.320312 173.179688 126.320312 Z M 129.644531 82.320312 C 129.644531 80.5625 131.070312 79.136719 132.828125 79.136719 C 134.582031 79.136719 136.007812 80.5625 136.007812 82.320312 L 136.007812 89.148438 C 136.007812 90.90625 134.582031 92.332031 132.828125 92.332031 C 131.070312 92.332031 129.644531 90.90625 129.644531 89.148438 Z M 137.375 141.351562 C 135.960938 141.898438 134.425781 142.195312 132.828125 142.195312 C 125.832031 142.195312 120.132812 136.492188 120.132812 129.5 C 120.132812 123.605469 124.183594 118.628906 129.644531 117.210938 L 129.644531 105.035156 C 129.644531 103.277344 131.070312 101.851562 132.828125 101.851562 C 134.582031 101.851562 136.007812 103.277344 136.007812 105.035156 L 136.007812 117.210938 C 141.46875 118.628906 145.519531 123.605469 145.519531 129.5 C 145.519531 132.597656 144.402344 135.441406 142.546875 137.648438 L 154.441406 154.316406 C 155.460938 155.746094 155.128906 157.738281 153.699219 158.757812 C 152.269531 159.777344 150.28125 159.445312 149.261719 158.015625 Z M 132.828125 123.167969 C 129.339844 123.167969 126.496094 126.011719 126.496094 129.5 C 126.496094 132.988281 129.339844 135.832031 132.828125 135.832031 C 136.3125 135.832031 139.15625 132.988281 139.15625 129.5 C 139.15625 126.011719 136.3125 123.167969 132.828125 123.167969 Z M 93.804688 208.875 C 105.585938 214.699219 118.835938 217.976562 132.828125 217.976562 C 181.542969 217.976562 221.300781 178.21875 221.300781 129.5 C 221.300781 86.734375 190.6875 50.898438 150.269531 42.757812 C 148.550781 42.414062 147.433594 40.734375 147.78125 39.011719 C 148.125 37.289062 149.804688 36.175781 151.527344 36.519531 C 194.851562 45.246094 227.664062 83.65625 227.664062 129.5 C 227.664062 181.722656 185.046875 224.339844 132.828125 224.339844 C 117.582031 224.339844 103.15625 220.710938 90.375 214.273438 L 94.621094 226.109375 C 95.214844 227.761719 94.355469 229.585938 92.703125 230.179688 C 91.050781 230.773438 89.226562 229.914062 88.632812 228.257812 L 81.503906 208.398438 C 81.1875 207.519531 81.277344 206.542969 81.742188 205.734375 C 82.210938 204.921875 83.011719 204.359375 83.933594 204.195312 L 104.695312 200.4375 C 106.425781 200.125 108.082031 201.273438 108.394531 203 C 108.707031 204.730469 107.558594 206.386719 105.828125 206.699219 Z M 93.804688 208.875 " fill-opacity="1" fill-rule="evenodd"/></g></svg>