<svg xmlns="http://www.w3.org/2000/svg" xmlns:xlink="http://www.w3.org/1999/xlink" width="320" zoomAndPan="magnify" viewBox="0 0 240 239.999995" height="320" preserveAspectRatio="xMidYMid meet" version="1.0"><defs><clipPath id="5a1cf3c20a"><path d="M 12 11.28125 L 228.78125 11.28125 L 228.78125 228 L 12 228 Z M 12 11.28125 " clip-rule="nonzero"/></clipPath></defs><g clip-path="url(#5a1cf3c20a)"><path fill="#f59e0b" d="M 62.148438 205.300781 L 64.695312 209.796875 C 64.695312 209.800781 64.699219 209.800781 64.699219 209.804688 C 66.957031 213.816406 65.523438 218.9375 61.535156 221.191406 L 52.25 226.457031 C 52.246094 226.457031 52.242188 226.460938 52.238281 226.460938 C 48.226562 228.71875 43.105469 227.285156 40.851562 223.292969 L 13.542969 175.046875 C 11.269531 171.027344 12.699219 165.902344 16.695312 163.648438 L 25.992188 158.382812 C 29.988281 156.125 35.109375 157.542969 37.382812 161.539062 L 37.386719 161.546875 L 39.4375 165.164062 L 63.582031 151.183594 C 70.941406 146.925781 78.464844 144.164062 86.550781 146.789062 C 94.359375 149.320312 107.113281 154.78125 120.128906 157.132812 C 120.285156 157.164062 120.433594 157.199219 120.585938 157.25 C 127.257812 159.410156 131.3125 166.160156 129.488281 172.9375 C 129.25 173.824219 128.945312 174.660156 128.578125 175.4375 C 129.835938 175.046875 131.066406 174.503906 132.28125 173.796875 L 165.390625 154.511719 C 177.453125 147.484375 185.496094 148.277344 190.046875 151.332031 C 193.988281 153.972656 195.820312 158.488281 195.703125 162.917969 C 195.582031 167.398438 193.441406 171.671875 189.929688 173.835938 L 129.851562 210.828125 C 123.484375 214.757812 116.507812 215.679688 109.28125 213.753906 L 109.277344 213.75 L 67.09375 202.445312 Z M 58.621094 213.226562 L 31.320312 164.988281 C 30.941406 164.324219 30.089844 164.082031 29.425781 164.457031 L 20.128906 169.71875 C 19.464844 170.09375 19.238281 170.941406 19.613281 171.605469 L 46.921875 219.859375 C 47.296875 220.523438 48.152344 220.753906 48.816406 220.382812 L 58.09375 215.125 L 58.101562 215.121094 C 58.765625 214.746094 58.996094 213.894531 58.621094 213.226562 Z M 58.714844 199.226562 L 64.855469 195.679688 C 65.65625 195.21875 66.609375 195.09375 67.5 195.332031 L 111.082031 207.011719 C 116.386719 208.425781 121.511719 207.777344 126.1875 204.890625 L 126.191406 204.886719 L 186.273438 167.898438 C 187.898438 166.894531 188.671875 164.808594 188.726562 162.734375 C 188.792969 160.277344 187.769531 157.675781 185.171875 156.59375 C 181.753906 155.171875 176.515625 156.105469 168.902344 160.539062 L 135.792969 179.824219 C 130.441406 182.941406 124.835938 183.804688 118.722656 182.832031 C 118.71875 182.832031 118.714844 182.828125 118.710938 182.828125 L 114.605469 182.160156 C 114.605469 182.160156 100.046875 178.339844 92.355469 176.273438 C 90.496094 175.773438 89.390625 173.859375 89.890625 172 C 90.390625 170.140625 92.304688 169.035156 94.164062 169.535156 C 101.667969 171.554688 108.433594 173.765625 115.71875 175.269531 C 119.296875 175.664062 121.929688 174.195312 122.75 171.125 L 122.753906 171.125 C 123.585938 168.027344 121.640625 165.027344 118.632812 163.953125 C 105.359375 161.515625 92.367188 156.007812 84.398438 153.421875 L 84.394531 153.421875 C 78.265625 151.433594 72.65625 153.996094 67.074219 157.222656 L 42.871094 171.234375 Z M 28.007812 169.964844 C 30.117188 169.652344 32.074219 171.105469 32.386719 173.214844 C 32.6875 175.320312 31.230469 177.289062 29.125 177.59375 C 27.015625 177.90625 25.058594 176.4375 24.746094 174.332031 C 24.445312 172.222656 25.902344 170.265625 28.007812 169.964844 Z M 48.957031 56.472656 C 69.117188 56.472656 85.457031 72.8125 85.457031 92.972656 C 85.457031 113.132812 69.117188 129.46875 48.957031 129.46875 C 28.796875 129.46875 12.457031 113.132812 12.457031 92.972656 C 12.457031 72.8125 28.796875 56.472656 48.957031 56.472656 Z M 73.570312 109.285156 C 76.671875 104.609375 78.480469 99.003906 78.480469 92.972656 C 78.480469 76.664062 65.261719 63.449219 48.957031 63.449219 C 32.648438 63.449219 19.433594 76.664062 19.433594 92.972656 C 19.433594 99.003906 21.242188 104.609375 24.34375 109.285156 C 26.90625 102.9375 31.851562 97.808594 38.066406 95.003906 C 35.433594 92.277344 33.8125 88.570312 33.8125 84.5 C 33.8125 76.167969 40.625 69.355469 48.957031 69.355469 C 57.289062 69.355469 64.101562 76.167969 64.101562 84.5 C 64.101562 88.570312 62.480469 92.277344 59.847656 95.003906 C 66.0625 97.808594 71.007812 102.9375 73.570312 109.285156 Z M 29.769531 115.410156 C 34.929688 119.828125 41.632812 122.496094 48.957031 122.496094 C 56.28125 122.496094 62.984375 119.828125 68.144531 115.410156 C 66.378906 106.425781 58.457031 99.648438 48.957031 99.648438 C 39.457031 99.648438 31.535156 106.425781 29.769531 115.410156 Z M 48.957031 92.671875 C 53.453125 92.671875 57.128906 88.996094 57.128906 84.5 C 57.128906 80.007812 53.453125 76.332031 48.957031 76.332031 C 44.460938 76.332031 40.789062 80.007812 40.789062 84.5 C 40.789062 88.996094 44.460938 92.671875 48.957031 92.671875 Z M 129.777344 17.339844 C 131.796875 17.949219 133.75 18.757812 135.609375 19.757812 L 139.347656 18.09375 C 140.667969 17.507812 142.210938 17.792969 143.230469 18.8125 L 149.542969 25.128906 C 150.5625 26.148438 150.851562 27.6875 150.269531 29.007812 C 150.269531 29.007812 148.609375 32.75 148.609375 32.75 C 149.609375 34.609375 150.417969 36.566406 151.027344 38.589844 L 154.84375 40.058594 C 156.1875 40.578125 157.078125 41.871094 157.078125 43.3125 L 157.078125 52.242188 C 157.078125 53.6875 156.1875 54.980469 154.84375 55.5 C 154.84375 55.5 151.027344 56.96875 151.027344 56.96875 C 150.417969 58.984375 149.605469 60.9375 148.609375 62.796875 L 150.269531 66.542969 C 150.851562 67.859375 150.5625 69.402344 149.542969 70.421875 L 143.230469 76.734375 C 142.210938 77.753906 140.671875 78.039062 139.351562 77.457031 C 139.351562 77.457031 135.613281 75.800781 135.613281 75.800781 C 133.753906 76.800781 131.800781 77.609375 129.777344 78.214844 L 128.308594 82.03125 C 127.792969 83.378906 126.496094 84.265625 125.054688 84.265625 L 116.125 84.265625 C 114.679688 84.265625 113.386719 83.378906 112.867188 82.03125 C 112.867188 82.03125 111.402344 78.21875 111.402344 78.21875 C 109.375 77.605469 107.421875 76.792969 105.5625 75.796875 L 101.816406 77.457031 C 100.5 78.039062 98.957031 77.753906 97.9375 76.734375 L 91.625 70.421875 C 90.605469 69.398438 90.316406 67.855469 90.902344 66.539062 C 90.902344 66.539062 92.566406 62.796875 92.566406 62.796875 C 91.566406 60.941406 90.757812 58.988281 90.148438 56.96875 L 86.328125 55.5 C 84.980469 54.980469 84.09375 53.6875 84.09375 52.242188 L 84.09375 43.3125 C 84.09375 41.871094 84.980469 40.578125 86.328125 40.058594 C 86.328125 40.058594 90.144531 38.589844 90.144531 38.589844 C 90.757812 36.566406 91.566406 34.613281 92.566406 32.75 L 90.902344 29.011719 C 90.316406 27.691406 90.605469 26.148438 91.625 25.128906 L 97.9375 18.8125 C 98.957031 17.792969 100.503906 17.507812 101.820312 18.09375 C 101.820312 18.09375 105.5625 19.757812 105.5625 19.757812 C 107.421875 18.757812 109.375 17.949219 111.394531 17.339844 L 112.871094 13.515625 C 113.390625 12.167969 114.683594 11.28125 116.125 11.28125 L 125.054688 11.28125 C 126.5 11.28125 127.792969 12.171875 128.308594 13.519531 Z M 123.902344 21.496094 C 123.902344 21.496094 122.65625 18.257812 122.65625 18.257812 L 118.515625 18.257812 L 117.265625 21.503906 C 116.851562 22.574219 115.933594 23.375 114.816406 23.640625 C 112.265625 24.246094 109.832031 25.253906 107.59375 26.632812 C 106.613281 27.238281 105.398438 27.320312 104.347656 26.851562 C 104.347656 26.851562 101.175781 25.441406 101.175781 25.441406 L 98.25 28.367188 L 99.660156 31.535156 C 100.128906 32.589844 100.046875 33.804688 99.445312 34.78125 C 98.0625 37.023438 97.054688 39.460938 96.441406 42.023438 C 96.171875 43.140625 95.371094 44.050781 94.300781 44.464844 L 91.066406 45.707031 L 91.066406 49.847656 L 94.300781 51.09375 C 95.371094 51.503906 96.171875 52.417969 96.4375 53.53125 C 97.054688 56.085938 98.0625 58.53125 99.441406 60.761719 C 100.046875 61.742188 100.128906 62.957031 99.660156 64.011719 L 98.25 67.183594 L 101.179688 70.109375 L 104.351562 68.703125 C 105.398438 68.238281 106.609375 68.320312 107.585938 68.917969 C 109.824219 70.292969 112.261719 71.308594 114.824219 71.917969 C 115.945312 72.183594 116.863281 72.984375 117.273438 74.058594 L 118.519531 77.289062 L 122.660156 77.289062 L 123.902344 74.058594 C 124.316406 72.984375 125.234375 72.183594 126.351562 71.917969 C 128.902344 71.3125 131.34375 70.304688 133.570312 68.925781 C 134.550781 68.320312 135.765625 68.238281 136.816406 68.703125 L 139.992188 70.109375 L 142.921875 67.179688 L 141.515625 64.007812 C 141.050781 62.960938 141.132812 61.75 141.730469 60.773438 C 143.101562 58.53125 144.121094 56.097656 144.726562 53.542969 C 144.996094 52.421875 145.796875 51.507812 146.867188 51.09375 L 150.101562 49.847656 L 150.101562 45.707031 L 146.867188 44.464844 C 145.792969 44.050781 144.992188 43.132812 144.726562 42.011719 C 144.121094 39.453125 143.113281 37.019531 141.734375 34.78125 C 141.132812 33.804688 141.050781 32.59375 141.515625 31.539062 L 142.921875 28.367188 L 139.992188 25.441406 L 136.824219 26.851562 C 135.769531 27.320312 134.554688 27.238281 133.574219 26.632812 C 131.339844 25.253906 128.90625 24.246094 126.351562 23.640625 C 125.234375 23.375 124.316406 22.570312 123.902344 21.496094 Z M 120.585938 28.710938 C 131.117188 28.710938 139.65625 37.242188 139.65625 47.773438 C 139.65625 58.308594 131.117188 66.847656 120.585938 66.847656 C 110.050781 66.847656 101.519531 58.308594 101.519531 47.773438 C 101.519531 37.242188 110.050781 28.710938 120.585938 28.710938 Z M 120.585938 35.6875 C 113.90625 35.6875 108.496094 41.09375 108.496094 47.773438 C 108.496094 54.453125 113.90625 59.871094 120.585938 59.871094 C 127.265625 59.871094 132.683594 54.453125 132.683594 47.773438 C 132.683594 41.09375 127.265625 35.6875 120.585938 35.6875 Z M 192.21875 129.46875 C 172.121094 129.46875 155.726562 113.078125 155.726562 92.976562 C 155.726562 72.878906 172.121094 56.484375 192.21875 56.484375 C 212.316406 56.484375 228.710938 72.878906 228.710938 92.976562 C 228.710938 113.078125 212.316406 129.46875 192.21875 129.46875 Z M 192.21875 122.496094 C 208.476562 122.496094 221.734375 109.234375 221.734375 92.976562 C 221.734375 76.722656 208.476562 63.460938 192.21875 63.460938 C 175.960938 63.460938 162.703125 76.722656 162.703125 92.976562 C 162.703125 109.234375 175.960938 122.496094 192.21875 122.496094 Z M 188.730469 73.703125 L 188.730469 72.097656 C 188.730469 70.175781 190.292969 68.609375 192.21875 68.609375 C 194.144531 68.609375 195.707031 70.175781 195.707031 72.097656 L 195.707031 73.664062 C 199.652344 74.574219 203.277344 77.128906 205.15625 81.609375 C 205.902344 83.382812 205.066406 85.429688 203.289062 86.171875 C 201.515625 86.917969 199.46875 86.082031 198.726562 84.308594 C 197.054688 80.324219 192.585938 79.535156 189.382812 80.792969 C 187.582031 81.5 186.117188 82.933594 186.222656 85.042969 L 186.222656 85.054688 C 186.300781 86.679688 187.375 87.59375 188.632812 88.207031 C 189.917969 88.835938 191.40625 89.183594 192.8125 89.414062 L 192.820312 89.414062 C 198.8125 90.402344 205.351562 93.164062 206.207031 100.289062 C 207.046875 107.195312 201.550781 111.238281 195.707031 112.363281 L 195.707031 113.867188 C 195.707031 115.792969 194.144531 117.355469 192.21875 117.355469 C 190.292969 117.355469 188.730469 115.792969 188.730469 113.867188 L 188.730469 112.308594 C 183.796875 111.25 179.5625 107.972656 178.25 102.707031 C 177.785156 100.835938 178.925781 98.941406 180.792969 98.476562 C 182.660156 98.011719 184.554688 99.152344 185.019531 101.019531 C 185.855469 104.378906 189.277344 105.789062 192.5625 105.707031 L 192.570312 105.707031 C 194.355469 105.667969 196.347656 105.230469 197.8125 104.21875 C 198.789062 103.546875 199.457031 102.542969 199.285156 101.125 L 199.28125 101.121094 C 199.058594 99.246094 197.765625 98.234375 196.28125 97.558594 C 194.84375 96.90625 193.210938 96.550781 191.691406 96.300781 C 185.816406 95.34375 179.582031 92.347656 179.253906 85.382812 C 178.992188 80.035156 182.269531 76.09375 186.828125 74.300781 C 187.441406 74.058594 188.078125 73.859375 188.730469 73.703125 Z M 124.074219 120.398438 C 124.074219 122.320312 122.511719 123.886719 120.585938 123.886719 C 118.660156 123.886719 117.097656 122.320312 117.097656 120.398438 L 117.097656 96.671875 C 117.097656 94.746094 118.660156 93.183594 120.585938 93.183594 C 122.511719 93.183594 124.074219 94.746094 124.074219 96.671875 Z M 133.261719 133.378906 C 131.75 134.570312 129.554688 134.316406 128.363281 132.804688 C 127.167969 131.296875 127.421875 129.101562 128.933594 127.90625 L 149.320312 111.777344 C 150.828125 110.582031 153.023438 110.835938 154.21875 112.347656 C 155.414062 113.855469 155.15625 116.050781 153.648438 117.246094 Z M 112.238281 127.90625 C 113.746094 129.101562 114.003906 131.296875 112.808594 132.804688 C 111.613281 134.316406 109.417969 134.570312 107.910156 133.378906 L 87.523438 117.246094 C 86.011719 116.050781 85.757812 113.855469 86.949219 112.347656 C 88.144531 110.835938 90.339844 110.582031 91.851562 111.777344 Z M 112.238281 127.90625 " fill-opacity="1" fill-rule="evenodd"/></g></svg>