<svg xmlns="http://www.w3.org/2000/svg" xmlns:xlink="http://www.w3.org/1999/xlink" width="320" zoomAndPan="magnify" viewBox="0 0 240 239.999995" height="320" preserveAspectRatio="xMidYMid meet" version="1.0"><defs><clipPath id="acdca6fd8a"><path d="M 12.359375 12.359375 L 227.609375 12.359375 L 227.609375 227.609375 L 12.359375 227.609375 Z M 12.359375 12.359375 " clip-rule="nonzero"/></clipPath></defs><g clip-path="url(#acdca6fd8a)"><path fill="#f59e0b" d="M 35.699219 176.625 C 36.625 177.988281 36.261719 179.878906 34.894531 180.800781 C 34.375 181.164062 33.769531 181.324219 33.207031 181.324219 C 32.246094 181.324219 31.28125 180.882812 30.71875 180 C 18.585938 162.160156 12.160156 141.273438 12.160156 119.621094 C 12.160156 93.507812 21.4375 68.839844 38.429688 49.316406 L 19.429688 50.683594 C 17.78125 50.804688 16.335938 49.558594 16.214844 47.910156 C 16.09375 46.265625 17.339844 44.820312 18.988281 44.699219 L 45.542969 42.769531 C 46.34375 42.6875 47.109375 42.96875 47.710938 43.492188 C 48.3125 44.015625 48.675781 44.738281 48.753906 45.542969 L 50.683594 72.09375 C 50.804688 73.742188 49.558594 75.1875 47.910156 75.308594 C 47.832031 75.308594 47.75 75.308594 47.671875 75.308594 C 46.105469 75.308594 44.777344 74.105469 44.65625 72.496094 L 43.25 52.851562 C 27.0625 71.332031 18.183594 94.753906 18.183594 119.539062 C 18.183594 139.988281 24.25 159.710938 35.699219 176.542969 Z M 176.625 203.539062 C 159.792969 214.988281 140.066406 221.054688 119.621094 221.054688 C 94.832031 221.054688 71.414062 212.175781 52.933594 195.988281 L 72.578125 194.539062 C 74.226562 194.421875 75.46875 192.972656 75.347656 191.328125 C 75.230469 189.679688 73.742188 188.433594 72.136719 188.554688 L 45.582031 190.484375 C 43.933594 190.605469 42.6875 192.050781 42.808594 193.695312 L 44.738281 220.25 C 44.859375 221.859375 46.183594 223.0625 47.75 223.0625 C 47.832031 223.0625 47.910156 223.0625 47.992188 223.0625 C 49.640625 222.941406 50.882812 221.496094 50.765625 219.847656 L 49.398438 200.847656 C 68.921875 217.800781 93.585938 227.121094 119.699219 227.121094 C 141.351562 227.121094 162.242188 220.691406 180.078125 208.5625 C 181.445312 207.636719 181.804688 205.75 180.882812 204.382812 C 179.957031 203.015625 178.070312 202.65625 176.703125 203.578125 Z M 62.613281 35.699219 C 79.445312 24.25 99.171875 18.183594 119.621094 18.183594 C 144.40625 18.183594 167.824219 27.0625 186.304688 43.25 L 166.703125 44.65625 C 165.054688 44.777344 163.808594 46.222656 163.929688 47.871094 C 164.050781 49.476562 165.375 50.683594 166.941406 50.683594 C 167.023438 50.683594 167.101562 50.683594 167.183594 50.683594 L 193.738281 48.753906 C 195.382812 48.636719 196.628906 47.1875 196.507812 45.542969 L 194.582031 18.988281 C 194.460938 17.339844 193.015625 16.09375 191.367188 16.214844 C 189.71875 16.335938 188.476562 17.78125 188.59375 19.429688 L 189.960938 38.429688 C 170.4375 21.476562 145.773438 12.160156 119.660156 12.160156 C 98.007812 12.160156 77.117188 18.585938 59.28125 30.71875 C 57.914062 31.640625 57.554688 33.53125 58.476562 34.894531 C 59.402344 36.261719 61.289062 36.625 62.65625 35.699219 Z M 219.808594 188.554688 L 200.808594 189.921875 C 217.761719 170.398438 227.082031 145.730469 227.082031 119.621094 C 227.082031 97.964844 220.652344 77.078125 208.519531 59.242188 C 207.597656 57.875 205.707031 57.511719 204.34375 58.4375 C 202.976562 59.359375 202.617188 61.25 203.539062 62.613281 C 214.988281 79.445312 221.054688 99.171875 221.054688 119.621094 C 221.054688 144.40625 212.175781 167.824219 195.988281 186.304688 L 194.582031 166.660156 C 194.460938 165.015625 193.015625 163.730469 191.367188 163.890625 C 189.71875 164.007812 188.476562 165.457031 188.59375 167.101562 L 190.523438 193.65625 C 190.5625 194.460938 190.964844 195.183594 191.566406 195.707031 C 192.128906 196.1875 192.8125 196.429688 193.535156 196.429688 C 193.617188 196.429688 193.695312 196.429688 193.738281 196.429688 L 220.292969 194.5 C 221.9375 194.378906 223.183594 192.933594 223.0625 191.285156 C 222.941406 189.640625 221.457031 188.355469 219.847656 188.515625 Z M 139.664062 104.59375 L 87.441406 74.425781 L 67.394531 85.996094 L 119.621094 116.203125 L 139.707031 104.59375 Z M 171.804688 85.996094 L 121.105469 56.710938 C 120.183594 56.1875 119.015625 56.1875 118.09375 56.710938 L 93.46875 70.929688 L 145.691406 101.101562 Z M 64.34375 91.21875 L 116.566406 121.425781 L 116.566406 181.6875 L 65.867188 152.398438 C 64.945312 151.878906 64.34375 150.875 64.34375 149.789062 Z M 85.953125 145.492188 L 102.023438 154.730469 C 102.507812 155.011719 103.027344 155.132812 103.511719 155.132812 C 104.554688 155.132812 105.558594 154.609375 106.121094 153.605469 C 106.964844 152.160156 106.441406 150.3125 104.996094 149.507812 L 88.925781 140.269531 C 87.480469 139.464844 85.632812 139.945312 84.832031 141.394531 C 83.988281 142.839844 84.507812 144.6875 85.953125 145.492188 Z M 174.816406 149.828125 L 174.816406 91.257812 L 148.703125 106.363281 L 148.703125 120.703125 C 148.703125 122.351562 147.339844 123.71875 145.691406 123.71875 C 144.042969 123.71875 142.679688 122.351562 142.679688 120.703125 L 142.679688 109.859375 L 122.59375 121.46875 L 122.59375 181.726562 L 173.289062 152.441406 C 174.214844 151.917969 174.816406 150.914062 174.816406 149.828125 Z M 174.816406 149.828125 " fill-opacity="1" fill-rule="nonzero"/></g></svg>