<svg xmlns="http://www.w3.org/2000/svg" xmlns:xlink="http://www.w3.org/1999/xlink" width="200" zoomAndPan="magnify" viewBox="0 0 150 157.92" height="200" preserveAspectRatio="xMidYMid meet" version="1.0"><defs><clipPath id="42324c61f2"><path d="M 12.515625 4.953125 L 137.703125 4.953125 L 137.703125 145 L 12.515625 145 Z M 12.515625 4.953125 " clip-rule="nonzero"/></clipPath></defs><g clip-path="url(#42324c61f2)"><path fill="#065f46" d="M 135.265625 79.644531 L 125.847656 79.644531 L 125.847656 71.695312 C 125.847656 70.65625 125.117188 69.761719 124.097656 69.554688 C 114.222656 67.527344 103.828125 67.132812 93.191406 68.367188 C 92.441406 67.824219 91.554688 67.449219 90.597656 67.304688 C 91.125 64.761719 92.277344 62.46875 94.09375 60.34375 C 94.855469 59.453125 95.625 58.589844 96.371094 57.753906 C 101.265625 52.28125 105.886719 47.109375 105.886719 35.839844 C 105.886719 18.808594 92.03125 4.953125 74.992188 4.953125 C 57.960938 4.953125 44.105469 18.808594 44.105469 35.839844 C 44.105469 47.113281 48.726562 52.285156 53.621094 57.753906 C 54.367188 58.589844 55.140625 59.453125 55.902344 60.34375 C 57.710938 62.460938 58.859375 64.757812 59.390625 67.304688 C 58.433594 67.449219 57.554688 67.824219 56.800781 68.367188 C 46.160156 67.132812 35.761719 67.527344 25.886719 69.554688 C 24.867188 69.761719 24.136719 70.65625 24.136719 71.695312 L 24.136719 79.644531 L 14.726562 79.644531 C 13.519531 79.644531 12.539062 80.625 12.539062 81.835938 L 12.539062 142.449219 C 12.539062 143.105469 12.832031 143.726562 13.34375 144.144531 C 13.855469 144.558594 14.523438 144.722656 15.167969 144.59375 L 29.097656 141.738281 C 42.253906 139.046875 56.058594 139.792969 71.300781 144.019531 L 74.402344 144.886719 C 74.597656 144.941406 74.792969 144.96875 74.992188 144.96875 C 75.1875 144.96875 75.390625 144.941406 75.582031 144.890625 L 78.683594 144.023438 C 93.933594 139.792969 107.738281 139.046875 120.890625 141.738281 L 134.820312 144.59375 C 135.464844 144.722656 136.136719 144.558594 136.644531 144.144531 C 137.152344 143.726562 137.453125 143.105469 137.453125 142.449219 L 137.453125 81.835938 C 137.453125 80.625 136.472656 79.644531 135.265625 79.644531 Z M 121.472656 73.5 L 121.472656 125.585938 C 107.414062 123.125 92.871094 123.886719 77.1875 127.894531 L 77.1875 96.273438 L 82.003906 96.273438 C 86.382812 96.273438 89.945312 92.710938 89.945312 88.332031 L 89.945312 86.792969 C 93.132812 86.667969 95.6875 84.03125 95.6875 80.8125 C 95.6875 79.375 95.175781 78.054688 94.328125 77.019531 C 95.175781 75.988281 95.6875 74.664062 95.6875 73.226562 C 95.6875 72.980469 95.671875 72.746094 95.644531 72.507812 C 104.511719 71.648438 113.179688 71.976562 121.472656 73.5 Z M 59.183594 72.066406 C 59.472656 71.785156 59.863281 71.613281 60.296875 71.613281 L 89.699219 71.613281 C 90.570312 71.613281 91.308594 72.351562 91.308594 73.222656 C 91.308594 74.09375 90.570312 74.832031 89.699219 74.832031 L 60.296875 74.832031 C 59.410156 74.832031 58.6875 74.109375 58.6875 73.222656 C 58.6875 72.835938 58.824219 72.480469 59.050781 72.207031 C 59.097656 72.160156 59.140625 72.113281 59.183594 72.066406 Z M 60.296875 79.210938 L 89.699219 79.210938 C 90.570312 79.210938 91.308594 79.945312 91.308594 80.8125 C 91.308594 81.699219 90.585938 82.417969 89.699219 82.417969 L 60.296875 82.417969 C 59.410156 82.417969 58.6875 81.699219 58.6875 80.8125 C 58.6875 79.929688 59.410156 79.210938 60.296875 79.210938 Z M 64.429688 86.800781 L 85.5625 86.800781 L 85.5625 88.332031 C 85.5625 90.296875 83.964844 91.894531 82 91.894531 L 67.996094 91.894531 C 66.03125 91.894531 64.429688 90.296875 64.429688 88.332031 Z M 56.890625 54.835938 C 52.195312 49.585938 48.488281 45.4375 48.488281 35.835938 C 48.488281 21.21875 60.378906 9.328125 74.996094 9.328125 C 89.613281 9.328125 101.511719 21.21875 101.511719 35.835938 C 101.511719 45.4375 97.800781 49.585938 93.109375 54.835938 C 92.347656 55.6875 91.554688 56.570312 90.765625 57.5 C 88.257812 60.433594 86.742188 63.636719 86.160156 67.234375 L 63.839844 67.234375 C 63.253906 63.628906 61.738281 60.425781 59.238281 57.5 C 58.441406 56.570312 57.652344 55.6875 56.890625 54.835938 Z M 28.515625 73.5 C 36.8125 71.976562 45.480469 71.648438 54.351562 72.507812 C 54.324219 72.742188 54.308594 72.980469 54.308594 73.222656 C 54.308594 74.664062 54.820312 75.984375 55.667969 77.019531 C 54.820312 78.050781 54.308594 79.371094 54.308594 80.8125 C 54.308594 84.03125 56.863281 86.664062 60.050781 86.792969 L 60.050781 88.328125 C 60.050781 92.707031 63.613281 96.269531 67.992188 96.269531 L 72.800781 96.269531 L 72.800781 127.890625 C 57.121094 123.882812 42.578125 123.121094 28.515625 125.582031 Z M 133.074219 139.761719 L 121.773438 137.449219 C 107.925781 134.613281 93.453125 135.382812 77.515625 139.804688 L 74.996094 140.507812 L 72.480469 139.800781 C 56.546875 135.382812 42.070312 134.613281 28.222656 137.449219 L 16.921875 139.761719 L 16.921875 84.023438 L 24.136719 84.023438 L 24.136719 128.230469 C 24.136719 128.890625 24.433594 129.511719 24.941406 129.925781 C 25.449219 130.339844 26.121094 130.503906 26.765625 130.375 C 41.773438 127.304688 57.355469 128.117188 74.40625 132.847656 C 74.597656 132.902344 74.796875 132.929688 74.992188 132.929688 C 75.1875 132.929688 75.386719 132.902344 75.578125 132.847656 C 92.636719 128.117188 108.21875 127.304688 123.21875 130.375 C 123.859375 130.503906 124.53125 130.339844 125.042969 129.925781 C 125.550781 129.511719 125.847656 128.886719 125.847656 128.230469 L 125.847656 84.023438 L 133.070312 84.023438 L 133.070312 139.761719 Z M 116.636719 115.222656 C 116.519531 116.425781 115.445312 117.304688 114.242188 117.183594 C 104.796875 116.25 94.835938 116.8125 84.636719 118.859375 C 84.488281 118.890625 84.34375 118.902344 84.203125 118.902344 C 83.179688 118.902344 82.265625 118.183594 82.058594 117.144531 C 81.820312 115.957031 82.589844 114.804688 83.777344 114.566406 C 94.402344 112.433594 104.800781 111.851562 114.679688 112.828125 C 115.878906 112.945312 116.757812 114.019531 116.636719 115.222656 Z M 116.636719 104.261719 C 116.519531 105.464844 115.445312 106.34375 114.242188 106.226562 C 104.796875 105.289062 94.835938 105.851562 84.636719 107.898438 C 84.488281 107.929688 84.34375 107.941406 84.203125 107.941406 C 83.179688 107.941406 82.265625 107.222656 82.058594 106.183594 C 81.820312 104.996094 82.589844 103.84375 83.777344 103.605469 C 94.402344 101.472656 104.800781 100.890625 114.679688 101.867188 C 115.878906 101.984375 116.757812 103.054688 116.636719 104.261719 Z M 92.082031 93.46875 C 91.949219 92.265625 92.816406 91.183594 94.019531 91.054688 C 101.003906 90.285156 107.953125 90.238281 114.675781 90.902344 C 115.878906 91.023438 116.757812 92.09375 116.636719 93.296875 C 116.519531 94.5 115.445312 95.378906 114.242188 95.261719 C 107.820312 94.628906 101.179688 94.675781 94.496094 95.40625 C 94.414062 95.414062 94.335938 95.421875 94.253906 95.421875 C 93.152344 95.421875 92.203125 94.589844 92.082031 93.46875 Z M 98.714844 81.851562 C 98.660156 80.640625 99.597656 79.621094 100.808594 79.570312 C 105.5 79.367188 110.164062 79.492188 114.675781 79.945312 C 115.878906 80.066406 116.757812 81.136719 116.636719 82.339844 C 116.527344 83.46875 115.574219 84.316406 114.460938 84.316406 C 114.386719 84.316406 114.316406 84.3125 114.242188 84.304688 C 109.9375 83.875 105.480469 83.753906 100.996094 83.949219 C 99.78125 83.996094 98.765625 83.058594 98.714844 81.851562 Z M 67.941406 117.140625 C 67.730469 118.179688 66.816406 118.898438 65.796875 118.898438 C 65.652344 118.898438 65.507812 118.886719 65.363281 118.855469 C 55.160156 116.808594 45.199219 116.246094 35.753906 117.183594 C 34.550781 117.300781 33.480469 116.421875 33.359375 115.21875 C 33.238281 114.015625 34.121094 112.945312 35.324219 112.824219 C 45.199219 111.84375 55.597656 112.429688 66.226562 114.558594 C 67.410156 114.800781 68.175781 115.953125 67.941406 117.140625 Z M 66.222656 103.601562 C 67.410156 103.839844 68.175781 104.992188 67.941406 106.179688 C 67.730469 107.21875 66.816406 107.9375 65.796875 107.9375 C 65.652344 107.9375 65.507812 107.925781 65.363281 107.894531 C 55.160156 105.847656 45.199219 105.285156 35.753906 106.222656 C 34.550781 106.339844 33.480469 105.460938 33.359375 104.257812 C 33.238281 103.054688 34.121094 101.984375 35.324219 101.863281 C 45.199219 100.886719 55.59375 101.46875 66.222656 103.601562 Z M 55.976562 91.054688 C 57.179688 91.183594 58.046875 92.265625 57.914062 93.46875 C 57.792969 94.589844 56.84375 95.421875 55.742188 95.421875 C 55.660156 95.421875 55.582031 95.414062 55.5 95.40625 C 48.8125 94.675781 42.167969 94.628906 35.753906 95.261719 C 34.550781 95.378906 33.476562 94.5 33.355469 93.296875 C 33.238281 92.09375 34.117188 91.023438 35.320312 90.902344 C 42.039062 90.238281 48.988281 90.289062 55.976562 91.054688 Z M 33.355469 82.339844 C 33.238281 81.136719 34.113281 80.066406 35.320312 79.945312 C 39.828125 79.496094 44.496094 79.371094 49.183594 79.570312 C 50.390625 79.621094 51.328125 80.644531 51.277344 81.851562 C 51.226562 83.058594 50.199219 83.996094 48.996094 83.945312 C 44.515625 83.75 40.0625 83.871094 35.757812 84.300781 C 35.683594 84.308594 35.609375 84.3125 35.539062 84.3125 C 34.421875 84.3125 33.46875 83.46875 33.355469 82.339844 Z M 109.160156 25.351562 C 108.554688 24.300781 108.914062 22.960938 109.960938 22.359375 L 119.082031 17.085938 C 120.128906 16.480469 121.472656 16.839844 122.074219 17.886719 C 122.679688 18.933594 122.320312 20.273438 121.273438 20.878906 L 112.152344 26.152344 C 111.804688 26.351562 111.429688 26.445312 111.058594 26.445312 C 110.300781 26.445312 109.5625 26.050781 109.160156 25.351562 Z M 114.992188 36.746094 L 125.527344 36.746094 C 126.734375 36.746094 127.714844 37.726562 127.714844 38.9375 C 127.714844 40.148438 126.738281 41.128906 125.527344 41.128906 L 114.992188 41.128906 C 113.785156 41.128906 112.800781 40.148438 112.800781 38.9375 C 112.800781 37.726562 113.785156 36.746094 114.992188 36.746094 Z M 109.160156 52.523438 C 109.765625 51.476562 111.105469 51.117188 112.152344 51.722656 L 121.273438 56.996094 C 122.320312 57.597656 122.679688 58.941406 122.074219 59.988281 C 121.671875 60.691406 120.933594 61.082031 120.175781 61.082031 C 119.804688 61.082031 119.429688 60.984375 119.082031 60.785156 L 109.960938 55.511719 C 108.914062 54.910156 108.554688 53.570312 109.160156 52.523438 Z M 27.914062 17.890625 C 28.515625 16.84375 29.855469 16.484375 30.902344 17.089844 L 40.035156 22.359375 C 41.082031 22.964844 41.441406 24.304688 40.835938 25.351562 C 40.433594 26.054688 39.691406 26.449219 38.9375 26.449219 C 38.566406 26.449219 38.191406 26.351562 37.84375 26.15625 L 28.714844 20.882812 C 27.667969 20.277344 27.308594 18.9375 27.914062 17.890625 Z M 22.277344 38.933594 C 22.277344 37.726562 23.257812 36.746094 24.46875 36.746094 L 35.003906 36.746094 C 36.210938 36.746094 37.195312 37.722656 37.195312 38.933594 C 37.195312 40.148438 36.214844 41.125 35.003906 41.125 L 24.464844 41.125 C 23.257812 41.125 22.277344 40.148438 22.277344 38.933594 Z M 40.835938 52.523438 C 41.441406 53.570312 41.082031 54.910156 40.035156 55.515625 L 30.902344 60.789062 C 30.558594 60.988281 30.183594 61.082031 29.808594 61.082031 C 29.050781 61.082031 28.316406 60.6875 27.914062 59.984375 C 27.308594 58.9375 27.667969 57.597656 28.714844 56.992188 L 37.84375 51.71875 C 38.890625 51.117188 40.230469 51.476562 40.835938 52.523438 Z M 64.851562 50.632812 C 65.621094 51.160156 66.425781 51.625 67.261719 52.023438 L 67.261719 55.65625 C 67.261719 56.863281 68.242188 57.84375 69.453125 57.84375 L 80.542969 57.84375 C 81.753906 57.84375 82.734375 56.867188 82.734375 55.65625 L 82.734375 52.023438 C 83.566406 51.625 84.375 51.160156 85.144531 50.632812 L 88.289062 52.445312 C 89.335938 53.050781 90.671875 52.691406 91.277344 51.644531 L 96.828125 42.039062 C 97.433594 40.992188 97.074219 39.65625 96.03125 39.046875 L 92.886719 37.230469 C 92.921875 36.769531 92.9375 36.304688 92.9375 35.835938 C 92.9375 35.371094 92.921875 34.90625 92.886719 34.445312 L 96.027344 32.632812 C 96.53125 32.34375 96.898438 31.863281 97.046875 31.304688 C 97.199219 30.742188 97.117188 30.144531 96.828125 29.640625 L 91.277344 20.027344 C 90.988281 19.523438 90.507812 19.160156 89.945312 19.007812 C 89.386719 18.859375 88.785156 18.9375 88.28125 19.226562 L 85.140625 21.046875 C 84.375 20.519531 83.570312 20.054688 82.730469 19.652344 L 82.730469 16.023438 C 82.730469 14.8125 81.753906 13.832031 80.542969 13.832031 L 69.449219 13.832031 C 68.242188 13.832031 67.257812 14.808594 67.257812 16.023438 L 67.257812 19.652344 C 66.417969 20.054688 65.613281 20.519531 64.847656 21.046875 L 61.699219 19.226562 C 61.195312 18.9375 60.597656 18.859375 60.035156 19.007812 C 59.476562 19.160156 58.996094 19.523438 58.707031 20.027344 L 53.164062 29.640625 C 52.558594 30.6875 52.921875 32.027344 53.96875 32.632812 L 57.109375 34.445312 C 57.074219 34.90625 57.058594 35.371094 57.058594 35.835938 C 57.058594 36.304688 57.074219 36.769531 57.109375 37.230469 L 53.964844 39.046875 C 52.917969 39.652344 52.5625 40.992188 53.164062 42.035156 L 58.707031 51.640625 C 59.3125 52.6875 60.648438 53.046875 61.695312 52.445312 Z M 58.054688 41.742188 L 60.554688 40.296875 C 61.347656 39.839844 61.769531 38.9375 61.621094 38.039062 C 61.503906 37.332031 61.441406 36.59375 61.441406 35.835938 C 61.441406 35.085938 61.503906 34.347656 61.621094 33.628906 C 61.773438 32.730469 61.347656 31.832031 60.554688 31.375 L 58.054688 29.933594 L 61.410156 24.117188 L 63.917969 25.5625 C 64.707031 26.019531 65.699219 25.9375 66.40625 25.359375 C 67.546875 24.417969 68.832031 23.675781 70.226562 23.152344 C 71.078125 22.832031 71.644531 22.011719 71.644531 21.101562 L 71.644531 18.210938 L 78.359375 18.210938 L 78.359375 21.101562 C 78.359375 22.011719 78.925781 22.828125 79.777344 23.152344 C 81.171875 23.675781 82.457031 24.417969 83.597656 25.359375 C 84.304688 25.9375 85.296875 26.019531 86.085938 25.5625 L 88.585938 24.117188 L 91.945312 29.933594 L 89.449219 31.375 C 88.65625 31.832031 88.230469 32.730469 88.382812 33.628906 C 88.5 34.34375 88.5625 35.085938 88.5625 35.835938 C 88.5625 36.59375 88.5 37.332031 88.382812 38.039062 C 88.234375 38.9375 88.65625 39.839844 89.449219 40.296875 L 91.949219 41.742188 L 88.585938 47.558594 L 86.085938 46.117188 C 85.300781 45.660156 84.3125 45.742188 83.605469 46.320312 C 82.445312 47.269531 81.160156 48.011719 79.78125 48.53125 C 78.925781 48.851562 78.363281 49.667969 78.363281 50.582031 L 78.363281 53.46875 L 71.648438 53.46875 L 71.648438 50.582031 C 71.648438 49.671875 71.082031 48.855469 70.230469 48.53125 C 68.851562 48.011719 67.5625 47.269531 66.402344 46.320312 C 65.699219 45.742188 64.710938 45.664062 63.925781 46.117188 L 61.417969 47.5625 Z M 74.996094 45.5 C 80.320312 45.5 84.65625 41.164062 84.65625 35.835938 C 84.65625 30.511719 80.320312 26.179688 74.996094 26.179688 C 69.671875 26.179688 65.339844 30.511719 65.339844 35.835938 C 65.339844 41.164062 69.671875 45.5 74.996094 45.5 Z M 74.996094 30.5625 C 77.90625 30.5625 80.277344 32.925781 80.277344 35.835938 C 80.277344 38.75 77.90625 41.121094 74.996094 41.121094 C 72.085938 41.121094 69.71875 38.75 69.71875 35.835938 C 69.71875 32.925781 72.085938 30.5625 74.996094 30.5625 Z M 74.996094 30.5625 " fill-opacity="1" fill-rule="nonzero"/></g></svg>