<svg xmlns="http://www.w3.org/2000/svg" xmlns:xlink="http://www.w3.org/1999/xlink" width="320" zoomAndPan="magnify" viewBox="0 0 240 239.999995" height="320" preserveAspectRatio="xMidYMid meet" version="1.0"><defs><clipPath id="c4daa89597"><path d="M 10 35 L 204 35 L 204 228.332031 L 10 228.332031 Z M 10 35 " clip-rule="nonzero"/></clipPath><clipPath id="c5e67a2457"><path d="M 127 10.082031 L 229 10.082031 L 229 108 L 127 108 Z M 127 10.082031 " clip-rule="nonzero"/></clipPath></defs><path fill="#16a34a" d="M 160.070312 94.066406 L 167.226562 94.066406 C 163.648438 81.628906 153.9375 71.75 141.503906 68.171875 L 141.503906 75.324219 C 150.019531 78.5625 156.835938 85.375 160.070312 94.066406 Z M 160.070312 94.066406 " fill-opacity="1" fill-rule="nonzero"/><path fill="#16a34a" d="M 107.261719 165.613281 C 124.296875 165.613281 138.777344 154.027344 143.375 138.355469 L 136.222656 138.355469 C 131.964844 150.28125 120.71875 158.796875 107.433594 158.796875 C 90.566406 158.796875 76.769531 145 76.769531 128.136719 C 76.769531 114.847656 85.285156 103.433594 97.210938 99.34375 L 97.210938 92.191406 C 81.367188 96.621094 69.785156 111.101562 69.785156 128.136719 C 69.785156 148.746094 86.648438 165.613281 107.261719 165.613281 Z M 107.261719 165.613281 " fill-opacity="1" fill-rule="nonzero"/><g clip-path="url(#c4daa89597)"><path fill="#16a34a" d="M 10.671875 159.480469 L 16.804688 175.832031 C 17.488281 177.535156 18.679688 178.898438 20.382812 179.582031 C 22.085938 180.261719 23.960938 180.433594 25.664062 179.75 L 41.847656 173.449219 C 47.980469 182.308594 55.644531 189.800781 64.675781 195.421875 L 57.859375 212.628906 C 56.496094 216.035156 58.203125 220.125 61.609375 221.488281 L 77.621094 227.960938 C 78.472656 228.300781 79.324219 228.472656 80.175781 228.472656 C 81.027344 228.472656 82.050781 228.300781 82.902344 227.960938 C 84.605469 227.28125 85.96875 225.917969 86.648438 224.214844 L 93.804688 206.667969 C 103.515625 208.371094 113.734375 208.199219 123.277344 206.15625 L 130.941406 223.53125 C 131.621094 225.234375 132.984375 226.425781 134.6875 227.109375 C 136.390625 227.789062 138.265625 227.789062 139.96875 226.9375 L 155.8125 219.953125 C 159.21875 218.421875 160.753906 214.332031 159.21875 210.925781 L 151.722656 194.0625 C 159.390625 188.78125 166.375 182.136719 171.65625 174.46875 L 187.839844 181.113281 C 189.542969 181.796875 191.417969 181.796875 193.121094 181.113281 C 194.824219 180.433594 196.1875 179.070312 196.867188 177.367188 L 203.339844 161.183594 C 204.703125 157.605469 203 153.6875 199.59375 152.324219 L 184.601562 146.191406 C 185.964844 140.230469 186.644531 134.097656 186.644531 127.964844 C 186.644531 126.089844 185.113281 124.558594 183.238281 124.558594 C 182.898438 124.558594 182.726562 124.558594 182.386719 124.726562 C 182.21875 124.726562 182.21875 124.726562 182.046875 124.726562 L 110.667969 124.726562 L 110.667969 51.648438 C 110.667969 49.773438 109.136719 48.238281 107.261719 48.238281 C 100.960938 48.238281 94.65625 48.921875 88.523438 50.453125 L 83.753906 39.382812 C 83.074219 37.679688 81.710938 36.484375 80.007812 35.804688 C 78.300781 35.121094 76.429688 35.121094 74.726562 35.976562 L 58.710938 42.960938 C 55.304688 44.492188 53.773438 48.582031 55.304688 51.988281 L 60.414062 63.570312 C 51.898438 69.875 44.574219 77.882812 39.121094 86.910156 L 26.515625 81.800781 C 24.8125 81.117188 22.9375 81.117188 21.234375 81.800781 C 19.53125 82.480469 18.167969 83.84375 17.488281 85.546875 L 11.015625 101.730469 C 9.652344 105.136719 11.355469 109.226562 14.761719 110.589844 L 28.558594 116.210938 C 28.050781 120.128906 27.707031 124.046875 27.707031 127.964844 C 27.707031 133.585938 28.21875 139.378906 29.410156 144.828125 L 14.421875 150.621094 C 11.015625 152.15625 9.308594 156.074219 10.671875 159.480469 Z M 34.863281 150.28125 C 36.394531 149.597656 37.417969 147.894531 36.90625 146.191406 C 35.375 140.398438 34.691406 134.269531 34.691406 128.136719 C 34.691406 123.707031 35.035156 119.277344 35.886719 114.847656 C 36.226562 113.3125 35.375 111.609375 33.839844 111.101562 L 17.488281 104.457031 L 23.960938 88.273438 L 39.292969 94.574219 C 40.824219 95.257812 42.699219 94.574219 43.550781 93.042969 C 49.003906 82.992188 57.007812 74.132812 66.546875 67.660156 C 67.910156 66.808594 68.421875 64.933594 67.742188 63.402344 L 61.609375 49.261719 L 77.449219 42.277344 L 83.414062 55.90625 C 84.09375 57.4375 85.796875 58.289062 87.5 57.78125 C 92.78125 56.246094 98.234375 55.394531 103.855469 55.222656 L 103.855469 128.136719 C 103.855469 130.007812 105.386719 131.542969 107.261719 131.542969 L 179.832031 131.542969 C 179.660156 136.992188 178.808594 142.273438 177.445312 147.382812 C 176.9375 149.089844 177.789062 150.792969 179.492188 151.472656 L 197.207031 158.796875 L 190.734375 174.980469 L 171.996094 167.316406 C 170.460938 166.632812 168.757812 167.316406 167.90625 168.507812 C 162.285156 177.027344 154.621094 184.519531 145.933594 189.972656 C 144.570312 190.824219 143.886719 192.699219 144.570312 194.230469 L 153.085938 213.820312 L 137.246094 220.804688 L 128.554688 200.875 C 127.875 199.34375 126.171875 198.488281 124.636719 199 C 114.246094 201.554688 103.003906 201.726562 92.441406 199.511719 C 90.738281 199.171875 89.207031 200.023438 88.523438 201.554688 L 80.175781 221.828125 L 64.164062 215.183594 L 72.171875 195.421875 C 72.851562 193.890625 72.171875 192.015625 70.808594 191.164062 C 60.925781 185.371094 52.410156 177.195312 46.277344 167.484375 C 45.425781 166.125 43.722656 165.613281 42.1875 166.125 L 23.449219 173.277344 L 16.976562 157.09375 Z M 34.863281 150.28125 " fill-opacity="1" fill-rule="nonzero"/></g><g clip-path="url(#c5e67a2457)"><path fill="#16a34a" d="M 131.113281 107.691406 L 206.066406 107.691406 C 206.40625 107.691406 206.578125 107.691406 206.917969 107.523438 C 207.089844 107.523438 207.089844 107.523438 207.257812 107.523438 C 209.132812 107.523438 210.664062 105.988281 210.664062 104.117188 C 210.664062 100.707031 210.496094 97.132812 209.984375 93.722656 L 223.953125 88.273438 C 227.53125 86.910156 229.234375 82.992188 227.871094 79.414062 L 221.566406 63.0625 C 220.886719 61.355469 219.695312 59.996094 217.992188 59.3125 C 216.289062 58.632812 214.414062 58.460938 212.710938 59.140625 L 200.105469 64.082031 C 194.140625 53.691406 185.792969 44.664062 175.914062 37.847656 L 180.683594 26.09375 C 182.046875 22.6875 180.34375 18.597656 176.9375 17.234375 L 160.921875 10.761719 C 159.21875 10.082031 157.347656 10.082031 155.640625 10.761719 C 153.9375 11.445312 152.574219 12.808594 151.894531 14.511719 L 147.464844 25.582031 C 142.183594 24.5625 136.734375 23.878906 131.28125 23.878906 C 129.40625 23.878906 127.875 25.414062 127.875 27.285156 L 127.875 104.285156 C 127.703125 106.160156 129.238281 107.691406 131.113281 107.691406 Z M 148.488281 33.25 C 150.191406 33.589844 151.894531 32.738281 152.40625 31.203125 L 158.199219 17.40625 L 174.210938 24.050781 L 168.417969 38.359375 C 167.738281 39.894531 168.417969 41.597656 169.78125 42.449219 C 180.511719 49.261719 189.371094 58.800781 195.335938 70.214844 C 196.1875 71.75 197.890625 72.429688 199.59375 71.75 L 215.09375 65.785156 L 221.398438 82.140625 L 204.875 88.441406 C 203.339844 88.953125 202.488281 90.65625 202.660156 92.191406 C 203.171875 95.085938 203.339844 97.8125 203.511719 100.878906 L 134.519531 100.878906 L 134.519531 31.203125 C 139.289062 31.546875 144.058594 32.226562 148.488281 33.25 Z M 148.488281 33.25 " fill-opacity="1" fill-rule="nonzero"/></g></svg>