<svg xmlns="http://www.w3.org/2000/svg" xmlns:xlink="http://www.w3.org/1999/xlink" width="200" zoomAndPan="magnify" viewBox="0 0 150 157.92" height="200" preserveAspectRatio="xMidYMid meet" version="1.0"><defs><clipPath id="35b393f6c5"><path d="M 31 5.925781 L 116 5.925781 L 116 114 L 31 114 Z M 31 5.925781 " clip-rule="nonzero"/></clipPath><clipPath id="12db62ab26"><path d="M 56 90 L 91 90 L 91 140.855469 L 56 140.855469 Z M 56 90 " clip-rule="nonzero"/></clipPath><clipPath id="0f53e16fd2"><path d="M 5.964844 112 L 23 112 L 23 117 L 5.964844 117 Z M 5.964844 112 " clip-rule="nonzero"/></clipPath><clipPath id="60f6e5bc91"><path d="M 14 127 L 28 127 L 28 140.855469 L 14 140.855469 Z M 14 127 " clip-rule="nonzero"/></clipPath><clipPath id="6a9cfe359d"><path d="M 124 112 L 140.894531 112 L 140.894531 117 L 124 117 Z M 124 112 " clip-rule="nonzero"/></clipPath><clipPath id="9c5a40dd24"><path d="M 120 127 L 134 127 L 134 140.855469 L 120 140.855469 Z M 120 127 " clip-rule="nonzero"/></clipPath></defs><path fill="#065f46" d="M 43.976562 40.769531 L 103.105469 40.769531 C 104.265625 40.769531 105.21875 39.820312 105.21875 38.65625 C 105.21875 37.496094 104.265625 36.546875 103.105469 36.546875 L 43.976562 36.546875 C 42.8125 36.546875 41.863281 37.496094 41.863281 38.65625 C 41.863281 39.820312 42.8125 40.769531 43.976562 40.769531 Z M 43.976562 40.769531 " fill-opacity="1" fill-rule="nonzero"/><path fill="#065f46" d="M 43.976562 49.214844 L 103.105469 49.214844 C 104.265625 49.214844 105.21875 48.265625 105.21875 47.105469 C 105.21875 45.945312 104.265625 44.992188 103.105469 44.992188 L 43.976562 44.992188 C 42.8125 44.992188 41.863281 45.945312 41.863281 47.105469 C 41.863281 48.265625 42.8125 49.214844 43.976562 49.214844 Z M 43.976562 49.214844 " fill-opacity="1" fill-rule="nonzero"/><path fill="#065f46" d="M 43.976562 57.664062 L 103.105469 57.664062 C 104.265625 57.664062 105.21875 56.714844 105.21875 55.550781 C 105.21875 54.390625 104.265625 53.441406 103.105469 53.441406 L 43.976562 53.441406 C 42.8125 53.441406 41.863281 54.390625 41.863281 55.550781 C 41.863281 56.714844 42.8125 57.664062 43.976562 57.664062 Z M 43.976562 57.664062 " fill-opacity="1" fill-rule="nonzero"/><path fill="#065f46" d="M 103.105469 61.886719 L 79.875 61.886719 C 78.714844 61.886719 77.765625 62.835938 77.765625 64 C 77.765625 65.160156 78.714844 66.109375 79.875 66.109375 L 103.105469 66.109375 C 104.265625 66.109375 105.21875 65.160156 105.21875 64 C 105.21875 62.835938 104.265625 61.886719 103.105469 61.886719 Z M 103.105469 61.886719 " fill-opacity="1" fill-rule="nonzero"/><path fill="#065f46" d="M 105.21875 72.445312 C 105.21875 71.285156 104.265625 70.335938 103.105469 70.335938 L 90.433594 70.335938 C 89.273438 70.335938 88.324219 71.285156 88.324219 72.445312 C 88.324219 73.609375 89.273438 74.558594 90.433594 74.558594 L 103.105469 74.558594 C 104.265625 74.558594 105.21875 73.609375 105.21875 72.445312 Z M 105.21875 72.445312 " fill-opacity="1" fill-rule="nonzero"/><g clip-path="url(#35b393f6c5)"><path fill="#065f46" d="M 113.875 24.191406 L 94.234375 7.296875 C 93.285156 6.453125 92.125 5.925781 90.855469 5.925781 L 36.371094 5.925781 C 33.628906 5.925781 31.304688 8.25 31.304688 11.097656 L 31.304688 108.558594 C 31.304688 111.410156 33.628906 113.730469 36.371094 113.730469 L 52.421875 113.730469 L 52.421875 111.621094 C 52.421875 110.878906 52.527344 110.140625 52.738281 109.507812 L 36.371094 109.507812 C 35.84375 109.507812 35.527344 109.085938 35.527344 108.558594 L 35.527344 11.097656 C 35.527344 10.570312 35.949219 10.148438 36.371094 10.148438 L 90.75 10.148438 C 91.277344 10.148438 91.597656 10.570312 91.597656 10.992188 L 92.019531 21.761719 C 92.125 24.507812 94.234375 26.726562 96.980469 26.726562 L 110.707031 27.148438 C 111.234375 27.148438 111.550781 27.570312 111.550781 28.097656 L 111.550781 108.453125 C 111.550781 108.980469 111.128906 109.402344 110.707031 109.402344 L 94.339844 109.402344 C 94.550781 110.035156 94.65625 110.773438 94.65625 111.515625 L 94.65625 113.625 L 110.707031 113.625 C 113.558594 113.625 115.777344 111.304688 115.777344 108.453125 L 115.777344 28.097656 C 115.777344 26.515625 115.035156 25.140625 113.875 24.191406 Z M 96.242188 21.65625 L 96.03125 14.265625 L 105.957031 22.820312 L 97.085938 22.609375 C 96.558594 22.609375 96.242188 22.1875 96.242188 21.65625 Z M 96.242188 21.65625 " fill-opacity="1" fill-rule="nonzero"/></g><g clip-path="url(#12db62ab26)"><path fill="#065f46" d="M 86.210938 107.289062 L 86.210938 103.066406 C 86.210938 96.097656 80.507812 90.398438 73.539062 90.398438 C 66.570312 90.398438 60.871094 96.097656 60.871094 103.066406 L 60.871094 107.289062 C 58.546875 107.289062 56.644531 109.191406 56.644531 111.515625 L 56.644531 136.855469 C 56.644531 139.179688 58.546875 141.078125 60.871094 141.078125 L 86.210938 141.078125 C 88.535156 141.078125 90.433594 139.179688 90.433594 136.855469 L 90.433594 111.515625 C 90.433594 109.191406 88.535156 107.289062 86.210938 107.289062 Z M 65.09375 103.066406 C 65.09375 98.421875 68.894531 94.621094 73.539062 94.621094 C 78.1875 94.621094 81.988281 98.421875 81.988281 103.066406 L 81.988281 107.289062 L 65.09375 107.289062 Z M 60.871094 136.855469 L 60.871094 111.515625 L 86.210938 111.515625 L 86.210938 136.855469 Z M 60.871094 136.855469 " fill-opacity="1" fill-rule="nonzero"/></g><path fill="#065f46" d="M 73.539062 115.738281 C 70.054688 115.738281 67.203125 118.589844 67.203125 122.074219 C 67.203125 124.820312 69 127.140625 71.429688 127.984375 L 71.429688 131.578125 C 71.429688 132.738281 72.378906 133.6875 73.539062 133.6875 C 74.703125 133.6875 75.652344 132.738281 75.652344 131.578125 L 75.652344 127.984375 C 78.082031 127.140625 79.875 124.820312 79.875 122.074219 C 79.875 118.589844 77.023438 115.738281 73.539062 115.738281 Z M 73.539062 124.183594 C 72.378906 124.183594 71.429688 123.234375 71.429688 122.074219 C 71.429688 120.910156 72.378906 119.960938 73.539062 119.960938 C 74.703125 119.960938 75.652344 120.910156 75.652344 122.074219 C 75.652344 123.234375 74.703125 124.183594 73.539062 124.183594 Z M 73.539062 124.183594 " fill-opacity="1" fill-rule="nonzero"/><g clip-path="url(#0f53e16fd2)"><path fill="#065f46" d="M 22.855469 114.683594 C 22.855469 113.519531 21.90625 112.570312 20.746094 112.570312 L 8.074219 112.570312 C 6.914062 112.570312 5.964844 113.519531 5.964844 114.683594 C 5.964844 115.84375 6.914062 116.792969 8.074219 116.792969 L 20.746094 116.792969 C 21.90625 116.792969 22.855469 115.84375 22.855469 114.683594 Z M 22.855469 114.683594 " fill-opacity="1" fill-rule="nonzero"/></g><path fill="#065f46" d="M 17.789062 89.65625 C 16.945312 88.8125 15.675781 88.8125 14.832031 89.65625 C 13.988281 90.503906 13.988281 91.769531 14.832031 92.613281 L 23.808594 101.589844 C 24.230469 102.011719 24.757812 102.222656 25.285156 102.222656 C 25.8125 102.222656 26.34375 102.011719 26.765625 101.589844 C 27.609375 100.746094 27.609375 99.476562 26.765625 98.632812 Z M 17.789062 89.65625 " fill-opacity="1" fill-rule="nonzero"/><g clip-path="url(#60f6e5bc91)"><path fill="#065f46" d="M 23.703125 127.667969 L 14.726562 136.644531 C 13.882812 137.488281 13.882812 138.757812 14.726562 139.601562 C 15.148438 140.023438 15.675781 140.234375 16.207031 140.234375 C 16.734375 140.234375 17.261719 140.023438 17.683594 139.601562 L 26.660156 130.625 C 27.503906 129.78125 27.503906 128.515625 26.660156 127.667969 C 25.917969 126.929688 24.546875 126.929688 23.703125 127.667969 Z M 23.703125 127.667969 " fill-opacity="1" fill-rule="nonzero"/></g><g clip-path="url(#6a9cfe359d)"><path fill="#065f46" d="M 139.003906 112.570312 L 126.335938 112.570312 C 125.171875 112.570312 124.222656 113.519531 124.222656 114.683594 C 124.222656 115.84375 125.171875 116.792969 126.335938 116.792969 L 139.003906 116.792969 C 140.167969 116.792969 141.117188 115.84375 141.117188 114.683594 C 141.117188 113.519531 140.167969 112.570312 139.003906 112.570312 Z M 139.003906 112.570312 " fill-opacity="1" fill-rule="nonzero"/></g><path fill="#065f46" d="M 122.109375 102.222656 C 122.640625 102.222656 123.167969 102.011719 123.589844 101.589844 L 132.566406 92.613281 C 133.410156 91.769531 133.410156 90.503906 132.566406 89.65625 C 131.71875 88.8125 130.453125 88.8125 129.609375 89.65625 L 120.632812 98.632812 C 119.789062 99.476562 119.789062 100.746094 120.632812 101.589844 C 121.054688 102.011719 121.582031 102.222656 122.109375 102.222656 Z M 122.109375 102.222656 " fill-opacity="1" fill-rule="nonzero"/><g clip-path="url(#9c5a40dd24)"><path fill="#065f46" d="M 123.589844 127.667969 C 122.746094 126.824219 121.476562 126.824219 120.632812 127.667969 C 119.789062 128.515625 119.789062 129.78125 120.632812 130.625 L 129.609375 139.601562 C 130.03125 140.023438 130.558594 140.234375 131.085938 140.234375 C 131.613281 140.234375 132.140625 140.023438 132.566406 139.601562 C 133.410156 138.757812 133.410156 137.488281 132.566406 136.644531 Z M 123.589844 127.667969 " fill-opacity="1" fill-rule="nonzero"/></g></svg>