<svg xmlns="http://www.w3.org/2000/svg" xmlns:xlink="http://www.w3.org/1999/xlink" width="40" zoomAndPan="magnify" viewBox="0 0 30 30.000001" height="40" preserveAspectRatio="xMidYMid meet" version="1.0"><defs><clipPath id="69c4b19bda"><path d="M 1.296875 2.902344 L 28.878906 2.902344 L 28.878906 26.128906 L 1.296875 26.128906 Z M 1.296875 2.902344 " clip-rule="nonzero"/></clipPath></defs><g clip-path="url(#69c4b19bda)"><path fill="#16a34a" d="M 16.214844 15.042969 L 16.214844 13.816406 C 16.214844 13.628906 16.367188 13.472656 16.558594 13.472656 L 17.691406 13.472656 C 17.882812 13.472656 18.035156 13.628906 18.035156 13.816406 L 18.035156 15.042969 Z M 10.136719 6.03125 C 11.40625 6.105469 12.5625 6.601562 13.46875 7.375 L 12.183594 8.660156 L 12.183594 8.664062 L 12.179688 8.664062 L 12.179688 8.667969 L 12.097656 8.75 C 11.546875 8.316406 10.875 8.03125 10.136719 7.964844 Z M 13.960938 7.851562 L 12.941406 8.867188 L 12.664062 9.144531 L 12.664062 9.148438 L 12.660156 9.148438 L 12.59375 9.21875 C 12.613281 9.242188 12.636719 9.269531 12.660156 9.296875 L 14.644531 8.761719 C 14.445312 8.4375 14.214844 8.128906 13.960938 7.851562 Z M 15.222656 10.085938 C 15.347656 10.523438 15.425781 10.984375 15.441406 11.457031 C 15.445312 11.515625 15.425781 11.566406 15.386719 11.609375 C 15.34375 11.648438 15.296875 11.671875 15.238281 11.671875 L 13.714844 11.671875 C 13.605469 11.671875 13.515625 11.585938 13.511719 11.476562 C 13.507812 11.378906 13.496094 11.285156 13.484375 11.1875 Z M 9.457031 7.964844 C 8.683594 8.035156 7.980469 8.34375 7.417969 8.8125 L 6.046875 7.441406 C 6.964844 6.628906 8.152344 6.105469 9.457031 6.03125 Z M 6.9375 9.292969 L 5.566406 7.921875 C 4.726562 8.871094 4.199219 10.105469 4.148438 11.457031 C 4.148438 11.515625 4.164062 11.566406 4.207031 11.609375 C 4.246094 11.648438 4.296875 11.671875 4.355469 11.671875 L 5.875 11.671875 C 5.984375 11.671875 6.074219 11.585938 6.082031 11.476562 C 6.125 10.648438 6.4375 9.890625 6.9375 9.292969 Z M 10.726562 23.792969 L 11.886719 21.324219 L 18.144531 21.324219 L 19.300781 23.792969 L 20.714844 23.792969 C 21.351562 23.792969 21.875 24.316406 21.875 24.953125 L 21.875 25.90625 C 21.875 26.019531 21.78125 26.109375 21.667969 26.109375 L 8.359375 26.109375 C 8.246094 26.109375 8.152344 26.019531 8.152344 25.90625 L 8.152344 24.953125 C 8.152344 24.316406 8.675781 23.792969 9.3125 23.792969 Z M 2.859375 2.886719 C 2.007812 2.886719 1.3125 3.582031 1.3125 4.433594 L 1.3125 19.097656 C 1.3125 19.945312 2.007812 20.640625 2.859375 20.640625 L 27.171875 20.640625 C 28.019531 20.640625 28.714844 19.945312 28.714844 19.097656 L 28.714844 4.433594 C 28.714844 3.582031 28.019531 2.886719 27.171875 2.886719 Z M 3.289062 17.804688 L 26.742188 17.804688 C 27.136719 17.804688 27.457031 17.484375 27.457031 17.089844 L 27.457031 4.863281 C 27.457031 4.46875 27.136719 4.144531 26.742188 4.144531 L 3.289062 4.144531 C 2.894531 4.144531 2.570312 4.46875 2.570312 4.863281 L 2.570312 17.089844 C 2.570312 17.484375 2.894531 17.804688 3.289062 17.804688 Z M 8.140625 15.820312 C 7.953125 15.820312 7.800781 15.664062 7.800781 15.476562 C 7.800781 15.289062 7.953125 15.136719 8.140625 15.136719 L 12.742188 15.136719 C 12.929688 15.136719 13.082031 15.289062 13.082031 15.476562 C 13.082031 15.664062 12.929688 15.820312 12.742188 15.820312 Z M 8.140625 14.75 C 7.953125 14.75 7.800781 14.59375 7.800781 14.40625 C 7.800781 14.21875 7.953125 14.066406 8.140625 14.066406 L 11.222656 14.066406 C 11.414062 14.066406 11.566406 14.21875 11.566406 14.40625 C 11.566406 14.59375 11.414062 14.75 11.222656 14.75 Z M 5.121094 14.089844 L 6.273438 14.089844 C 6.457031 14.089844 6.605469 14.238281 6.605469 14.421875 L 6.605469 15.574219 C 6.605469 15.757812 6.457031 15.910156 6.273438 15.910156 L 5.121094 15.910156 C 4.933594 15.910156 4.785156 15.757812 4.785156 15.574219 L 4.785156 14.421875 C 4.785156 14.238281 4.9375 14.089844 5.121094 14.089844 Z M 24.855469 7.398438 L 24.867188 7.402344 C 24.921875 7.414062 24.96875 7.441406 25.011719 7.476562 C 25.019531 7.484375 25.027344 7.492188 25.035156 7.5 L 25.039062 7.503906 L 25.039062 7.507812 L 25.042969 7.511719 L 25.046875 7.511719 L 25.050781 7.519531 L 25.058594 7.527344 C 25.078125 7.554688 25.097656 7.589844 25.109375 7.625 L 25.109375 7.632812 L 25.113281 7.640625 L 25.117188 7.652344 L 25.117188 7.660156 C 25.128906 7.710938 25.128906 7.761719 25.113281 7.816406 L 24.742188 9.277344 C 24.695312 9.457031 24.511719 9.570312 24.328125 9.523438 C 24.148438 9.476562 24.035156 9.292969 24.082031 9.109375 L 24.253906 8.429688 L 20.558594 10.550781 C 20.410156 10.636719 20.21875 10.597656 20.113281 10.457031 L 19.46875 9.574219 L 16.457031 10.96875 C 16.285156 11.050781 16.082031 10.976562 16.003906 10.804688 C 15.925781 10.632812 16 10.429688 16.171875 10.351562 L 19.433594 8.839844 C 19.585938 8.769531 19.761719 8.820312 19.855469 8.953125 L 20.484375 9.808594 L 23.886719 7.855469 L 23.242188 7.691406 C 23.058594 7.648438 22.949219 7.460938 22.992188 7.28125 C 23.039062 7.097656 23.222656 6.984375 23.40625 7.03125 Z M 15.847656 9.128906 L 13.484375 10.628906 L 11.609375 11.820312 C 11.613281 11.769531 11.617188 11.71875 11.617188 11.667969 C 11.617188 11.09375 11.351562 10.582031 10.9375 10.25 L 13.066406 9.675781 L 15.765625 8.949219 C 15.816406 8.9375 15.863281 8.960938 15.882812 9.003906 C 15.902344 9.050781 15.886719 9.105469 15.847656 9.128906 Z M 9.796875 10.398438 C 10.5 10.398438 11.066406 10.96875 11.066406 11.667969 C 11.066406 12.371094 10.5 12.941406 9.796875 12.941406 C 9.09375 12.941406 8.523438 12.371094 8.523438 11.667969 C 8.523438 10.96875 9.09375 10.398438 9.796875 10.398438 Z M 15.605469 16.273438 C 15.417969 16.273438 15.265625 16.121094 15.265625 15.933594 C 15.265625 15.742188 15.417969 15.589844 15.605469 15.589844 L 25.882812 15.589844 C 26.070312 15.589844 26.222656 15.742188 26.222656 15.933594 C 26.222656 16.121094 26.070312 16.273438 25.882812 16.273438 Z M 23.457031 15.042969 L 23.457031 10.3125 C 23.457031 10.125 23.609375 9.96875 23.800781 9.96875 L 24.933594 9.96875 C 25.125 9.96875 25.277344 10.125 25.277344 10.3125 L 25.277344 15.042969 Z M 21.039062 15.042969 L 21.039062 12.945312 C 21.039062 12.753906 21.195312 12.601562 21.386719 12.601562 L 22.519531 12.601562 C 22.710938 12.601562 22.863281 12.753906 22.863281 12.945312 L 22.863281 15.042969 Z M 18.628906 15.042969 L 18.628906 12.011719 C 18.628906 11.820312 18.78125 11.667969 18.972656 11.667969 L 20.105469 11.667969 C 20.292969 11.667969 20.449219 11.820312 20.449219 12.011719 L 20.449219 15.042969 Z M 18.628906 15.042969 " fill-opacity="1" fill-rule="evenodd"/></g></svg>